<?xml version="1.0" encoding="UTF-8"?>
<svg width="48px" height="48px" viewBox="0 0 48 48" version="1.1" xmlns="http://www.w3.org/2000/svg" xmlns:xlink="http://www.w3.org/1999/xlink">
    <!-- Generator: Sketch 59 (86127) - https://sketch.com -->
    <title>09_facialhair-frenchmustache</title>
    <desc>Created with Sketch.</desc>
    <g id="SVGs" stroke="none" stroke-width="1" fill="none" fill-rule="evenodd">
        <g id="Slices" transform="translate(-473.000000, -591.000000)"></g>
        <g id="Group-151" transform="translate(13.000000, 14.000000)" fill-rule="nonzero">
            <path d="M10.8235294,18.4928705 C16.8011996,18.4928705 21.6470588,15.7264183 21.6470588,11.0469245 C21.6470588,9.68530558 21.2367752,8.31174756 20.5077071,7.04848241 C21.017083,5.07118682 21.626986,1.13462298 20.3706862,0.284453549 C18.687063,-0.854896218 15.7154838,1.75961389 14.8788735,2.31067579 C13.6264103,1.8243407 12.2575373,1.54692452 10.8235294,1.54692452 C9.41485993,1.54692452 8.06904378,1.81462364 6.83468572,2.28509179 C5.92528339,1.76324961 3.26609998,-0.565577397 1.58447129,0.164976405 C-0.182518711,0.932613916 0.805196297,5.58250636 1.19875174,6.94699097 C0.432606378,8.23799612 0,9.64875465 0,11.0469245 C0,15.7264183 4.84585918,18.4928705 10.8235294,18.4928705 Z" id="Oval-2" fill="#000000"></path>
            <path d="M10.8663761,18.5330325 C16.1963622,18.5330325 20.5171697,15.5966658 20.5171697,11.974474 C20.5171697,9.6949759 18.8059709,7.67709262 16.2089363,7.24236318 C14.6792037,6.9862943 12.8421244,7.93843794 10.8663761,7.93843794 C8.90268131,7.93843794 7.07596864,6.98560258 5.55184763,7.23769877 C2.93910179,7.66985822 1.21558244,9.6867845 1.21558244,11.974474 C1.21558244,15.5966658 5.53638993,18.5330325 10.8663761,18.5330325 Z" id="Oval-2" fill="#9B9B9B"></path>
        </g>
        <g id="Group-166" transform="translate(17.242049, 26.079592)" fill="#F6D5AE">
            <path d="M6.7579512,1.01354766 C6.4927331,0.489255671 6.19227737,0.188738907 5.85658401,0.111997371 C5.35304397,-0.00311493408 4.20920007,-0.197007796 3.46739334,0.539365535 C2.92991775,1.07290435 2.67347854,1.57635284 2.31984085,1.75066925 C1.96620315,1.92498565 1.35347122,1.97851348 1.05073684,1.75066925 C0.748002468,1.52282501 0.651688991,0.969419246 0.870561062,0.422178035 C1.08943313,-0.125063176 0.662583767,0.111997371 0.502702175,0.227109675 C0.342820583,0.34222198 -0.818159641,2.02734161 1.05073684,3.09289337 C2.91963333,4.15844512 5.73652786,4.02001739 6.7579512,2.36456085 C6.95602742,2.04353178 6.95602742,1.59319405 6.7579512,1.01354766 Z" id="Path-424"></path>
            <path d="M13.379186,1.01354766 C13.113968,0.489255671 12.8135122,0.188738907 12.4778189,0.111997371 C11.9742788,-0.00311493408 10.8304349,-0.197007796 10.0886282,0.539365535 C9.5511526,1.07290435 9.29471339,1.57635284 8.9410757,1.75066925 C8.587438,1.92498565 7.97470607,1.97851348 7.67197169,1.75066925 C7.36923732,1.52282501 7.27292384,0.969419246 7.49179591,0.422178035 C7.71066798,-0.125063176 7.28381862,0.111997371 7.12393703,0.227109675 C6.96405543,0.34222198 5.80307521,2.02734161 7.67197169,3.09289337 C9.54086818,4.15844512 12.3577627,4.02001739 13.379186,2.36456085 C13.5772623,2.04353178 13.5772623,1.59319405 13.379186,1.01354766 Z" id="Path-424" transform="translate(10.074489, 1.887575) scale(-1, 1) translate(-10.074489, -1.887575) "></path>
        </g>
    </g>
</svg>