<?xml version="1.0" encoding="UTF-8"?>
<svg width="48px" height="48px" viewBox="0 0 48 48" version="1.1" xmlns="http://www.w3.org/2000/svg" xmlns:xlink="http://www.w3.org/1999/xlink">
    <!-- Generator: Sketch 59 (86127) - https://sketch.com -->
    <title>16-eyeexpress-Contempt</title>
    <desc>Created with Sketch.</desc>
    <g id="SVGs" stroke="none" stroke-width="1" fill="none" fill-rule="evenodd">
        <g id="Slices" transform="translate(-824.000000, -950.000000)"></g>
        <g id="16_EyeExpression_contempt" transform="translate(11.000000, 17.000000)">
            <g id="Group-184" transform="translate(0.000000, 0.029674)">
                <path d="M1.50946045,6.89903645 C1.53452054,5.9808369 1.39306741,1.83740657 1.59947,0.942355513 C1.52512,0.993565513 1.38410801,0.964591562 1.32442801,1.01406156 C1.22132147,1.72878605 1.1074581,2.5433379 1.10797119,3.26546101 C1.10797119,3.40536101 0.994232178,5.83668904 1.50946045,6.89903645 Z" id="Shape" fill="#703628" fill-rule="nonzero"></path>
                <path d="M11.2806222,0.48560174 C11.2288822,0.51460174 9.07431988,0.501333116 8.43101283,0.527663682 C5.76388114,0.636829419 2.40722656,0.797055423 1.59944,0.942355513 C1.39303741,1.83740657 1.27644009,2.75081596 1.25138,3.66901551 C1.24723333,3.81140218 1.24506667,3.95463218 1.24488,4.09870551 C1.17972025,6.454644 1.82650082,8.77548177 3.10076,10.7581455 L4.04032,11.0849155 L6.02398682,12.3179818 C6.17795661,12.3415505 6.59793062,12.7968596 6.67219268,12.7916461 C9.44200865,12.595464 11.6509347,8.77855316 11.6515415,4.09870551 C11.6516855,2.97402414 11.3470381,1.04843709 11.2806222,0.48560174 Z" id="Shape" fill="#EEF6F3" fill-rule="nonzero"></path>
                <path d="M7.02404108,13.7681502 C6.48932891,13.236358 6.12330922,12.8475638 5.61139922,12.4790338 C5.10293922,12.1088438 4.61217401,11.6862498 4.07630401,11.3697198 C3.54200401,11.0517898 2.98567811,10.7214432 2.41675811,10.4554132 C1.85488811,10.1670032 1.38270049,10.0704034 0.549411077,9.86423016 C1.24485235,9.78997709 1.89202998,9.84069255 2.52646466,10.030663 C3.16599524,10.2146539 3.83873694,10.5023894 4.40689161,10.848875 C4.97807277,11.1893515 5.52183613,11.6229989 5.98588075,12.0992707 C6.45773377,12.5659753 6.74296057,13.1669412 7.02404108,13.7681502 Z" id="Shape" fill="#703628" fill-rule="nonzero" transform="translate(3.786726, 11.799828) rotate(-7.000000) translate(-3.786726, -11.799828) "></path>
                <path d="M4.04348373,0.807038658 C4.01598901,1.07332986 4.0024655,1.34105584 4.00302444,1.60911551 C3.96218514,2.92376743 4.33580928,4.21797276 5.07102444,5.30858551 C5.32038965,5.61611527 5.7648537,6.189321 6.71852579,6.30052848 C8.26375579,6.30052848 9.59863444,4.20848551 9.59863444,1.60911551 C9.60933591,1.24070022 9.58778429,0.873868236 9.53509892,0.512590569 C7.99707031,0.562573109 4.06982229,0.551944975 4.04348373,0.807038658 Z" id="Shape" fill="#975444" fill-rule="nonzero"></path>
                <path d="M0.222205529,1.09487479 C2.61568888,1.03416484 4.51254885,0.967695991 5.91278546,0.895468241 C7.31302206,0.823240491 9.41616209,0.683379213 12.2222055,0.475884407 C12.3636536,0.412343103 12.3504324,0.376811252 12.1825421,0.369288854 C10.5231717,0.294940051 7.98470104,0.160121404 5.9206543,0.266590161 C3.79315875,0.376331768 1.55423562,0.771879266 0.205491286,1.0113787 C0.0999148975,1.03012612 0.105486312,1.05795816 0.222205529,1.09487479 Z" id="Path-498" fill="#703628"></path>
            </g>
            <g id="Group-184" transform="translate(19.500000, 7.529674) scale(-1, 1) translate(-19.500000, -7.529674) translate(13.000000, 0.029674)">
                <path d="M1.50946045,6.89903645 C1.53452054,5.9808369 1.39306741,1.83740657 1.59947,0.942355513 C1.52512,0.993565513 1.38410801,0.964591562 1.32442801,1.01406156 C1.22132147,1.72878605 1.1074581,2.5433379 1.10797119,3.26546101 C1.10797119,3.40536101 0.994232178,5.83668904 1.50946045,6.89903645 Z" id="Shape" fill="#703628" fill-rule="nonzero"></path>
                <path d="M11.2806222,0.48560174 C11.2288822,0.51460174 9.07431988,0.501333116 8.43101283,0.527663682 C5.76388114,0.636829419 2.40722656,0.797055423 1.59944,0.942355513 C1.39303741,1.83740657 1.27644009,2.75081596 1.25138,3.66901551 C1.24723333,3.81140218 1.24506667,3.95463218 1.24488,4.09870551 C1.17972025,6.454644 1.82650082,8.77548177 3.10076,10.7581455 L4.04032,11.0849155 L6.02398682,12.3179818 C6.17795661,12.3415505 6.59793062,12.7968596 6.67219268,12.7916461 C9.44200865,12.595464 11.6509347,8.77855316 11.6515415,4.09870551 C11.6516855,2.97402414 11.3470381,1.04843709 11.2806222,0.48560174 Z" id="Shape" fill="#EEF6F3" fill-rule="nonzero"></path>
                <path d="M4.04348373,0.807038658 C4.01598901,1.07332986 4.0024655,1.34105584 4.00302444,1.60911551 C3.96218514,2.92376743 4.33580928,4.21797276 5.07102444,5.30858551 C5.32038965,5.61611527 5.7648537,6.189321 6.71852579,6.30052848 C8.26375579,6.30052848 9.59863444,4.20848551 9.59863444,1.60911551 C9.60933591,1.24070022 9.58778429,0.873868236 9.53509892,0.512590569 C7.99707031,0.562573109 4.06982229,0.551944975 4.04348373,0.807038658 Z" id="Shape" fill="#975444" fill-rule="nonzero"></path>
                <path d="M0.222205529,1.09487479 C2.61568888,1.03416484 4.51254885,0.967695991 5.91278546,0.895468241 C7.31302206,0.823240491 9.41616209,0.683379213 12.2222055,0.475884407 C12.3636536,0.412343103 12.3504324,0.376811252 12.1825421,0.369288854 C10.5231717,0.294940051 7.98824108,0.151088201 5.92419434,0.257556958 C3.79669879,0.367298565 1.55423562,0.771879266 0.205491286,1.0113787 C0.0999148975,1.03012612 0.105486312,1.05795816 0.222205529,1.09487479 Z" id="Path-498" fill="#703628"></path>
                <path d="M6.92521892,13.7681502 C6.39050676,13.236358 6.02448707,12.8475638 5.51257707,12.4790338 C5.00411707,12.1088438 4.51335185,11.6862498 3.97748185,11.3697198 C3.44318185,11.0517898 2.88685595,10.7214432 2.31793595,10.4554132 C1.75606595,10.1670032 1.28387834,10.0704034 0.450588923,9.86423016 C1.1460302,9.78997709 1.79320782,9.84069255 2.42764251,10.030663 C3.06717309,10.2146539 3.73991479,10.5023894 4.30806945,10.848875 C4.87925061,11.1893515 5.42301398,11.6229989 5.88705859,12.0992707 C6.35891162,12.5659753 6.64413842,13.1669412 6.92521892,13.7681502 Z" id="Shape" fill="#703628" fill-rule="nonzero" transform="translate(3.687904, 11.799828) rotate(-7.000000) translate(-3.687904, -11.799828) "></path>
            </g>
        </g>
    </g>
</svg>