<?xml version="1.0" encoding="UTF-8"?>
<svg width="48px" height="48px" viewBox="0 0 48 48" version="1.1" xmlns="http://www.w3.org/2000/svg" xmlns:xlink="http://www.w3.org/1999/xlink">
    <!-- Generator: Sketch 59 (86127) - https://sketch.com -->
    <title>16_mouthexpression-Canines</title>
    <desc>Created with Sketch.</desc>
    <g id="SVGs" stroke="none" stroke-width="1" fill="none" fill-rule="evenodd">
        <g id="Slices" transform="translate(-823.000000, -889.000000)"></g>
        <g id="Group-189" transform="translate(12.000000, 20.818766)">
            <path d="M4,1.18123372 C4.36505533,4.39189671 5.0112796,6.05654617 5.9386728,6.1751821 C6.80002109,6.2853693 7.48713015,4.89085073 8,1.99162642 L4,1.18123372 Z" id="Path-505" fill="#DCE9E6"></path>
            <path d="M16.2141448,1.18123372 C16.5792001,4.39189671 17.2254244,6.05654617 18.1528176,6.1751821 C19.0141659,6.2853693 19.701275,4.89085073 20.2141448,1.99162642 L16.2141448,1.18123372 Z" id="Path-505" fill="#DCE9E6" transform="translate(18.214145, 3.681234) scale(-1, 1) translate(-18.214145, -3.681234) "></path>
            <path d="M20.4984596,1.50990331e-14 C21.6641594,0.328230892 22.6491222,0.807661082 23.4533477,1.43829057 C23.6895259,1.62348852 23.7895493,1.77388689 23.753418,1.88948568 C23.6558548,1.95669302 23.4817641,1.94108572 23.2311459,1.84266379 C22.0999187,1.398412 21.1256688,1.17793531 20.3083961,1.18123372 C19.0508931,1.61621219 17.8848603,1.99383022 16.786965,2.28829303 C15.672478,2.65578764 14.3917538,2.91079891 12.9294479,2.95373924 C12.6728636,2.9650466 12.4192319,2.9688726 12.1679113,2.96403473 C10.5469379,2.93283134 9.1340916,2.689559 7.91079106,2.32799895 C6.72696522,2.03675489 5.4588514,1.65039099 4.10253906,1.18123372 C3.22516977,1.17769277 2.16688839,1.43204665 0.927694923,1.94429537 C0.628975996,2.06777761 0.409115434,2.09468815 0.393798828,2.0542806 C0.339267615,1.91041892 0.500714168,1.81647619 0.787999286,1.57575691 C1.62200911,0.87693114 2.66350121,0.351678836 3.91247559,1.50990331e-14 C5.14436061,0.302978109 7.68596234,1.81421308 11.7403106,1.92447552 L11.7436458,1.9245743 L12.180481,1.92274984 C16.0479126,1.91499837 19.2150768,0.315643807 20.4984596,1.50990331e-14 Z" id="Combined-Shape" fill="#6E3A0C"></path>
        </g>
    </g>
</svg>