<?xml version="1.0" encoding="UTF-8"?>
<svg width="48px" height="48px" viewBox="0 0 48 48" version="1.1" xmlns="http://www.w3.org/2000/svg" xmlns:xlink="http://www.w3.org/1999/xlink">
    <!-- Generator: Sketch 59 (86127) - https://sketch.com -->
    <title>17-eyeexpress-Smirk</title>
    <desc>Created with Sketch.</desc>
    <g id="SVGs" stroke="none" stroke-width="1" fill="none" fill-rule="evenodd">
        <g id="Slices" transform="translate(-884.000000, -950.000000)"></g>
        <g id="Group-186" transform="translate(9.999107, 15.394869)">
            <path d="M2.17850494,7.50900021 C2.32403507,9.339307 2.95221706,11.054683 3.97137454,12.6596118 C4.8096166,13.9796423 6.2998589,14.6432275 7.54280722,14.5609308 C10.3126232,14.3775391 12.5215492,10.8086558 12.5221714,6.43291042 C12.5221714,6.18809974 12.5056733,5.90270431 12.4795187,5.60224821 C12.4528221,5.29556497 2.15125554,7.16628929 2.17850494,7.50900021 Z" id="Shape" fill="#EEF6F3" fill-rule="nonzero"></path>
            <path d="M4.7904129,6.87591305 C4.78242939,7.02110021 4.76874866,7.35300798 4.76905217,7.49856823 C4.72821287,8.81322015 5.10183701,10.1074255 5.83705217,11.1980382 C6.08641738,11.505568 6.53088143,12.0787737 7.48455352,12.1899812 C9.02978352,12.1899812 10.3646622,10.0979382 10.3646622,7.49856823 C10.3753636,7.13015294 10.353812,6.76332095 10.3011266,6.40204329 C10.2799379,6.26198331 10.2611837,6.09014632 10.2127203,5.95219981 C10.1625254,5.80932469 4.7971316,6.75372761 4.7904129,6.87591305 Z" id="Shape" fill="#975444" fill-rule="nonzero"></path>
            <path d="M1.07156216,6.99383321 C3.49148062,6.74502768 5.40155815,6.58451104 6.80179476,6.51228329 C8.20203136,6.44005554 10.2919538,6.39424205 13.0715622,6.37484283 C13.1679653,6.31633735 13.1547441,6.2808055 13.0318987,6.26824728 C11.2697023,6.08810166 8.92319624,5.83833183 6.8591495,5.94480058 C4.73165395,6.05454219 2.45041855,6.55820171 1.05484792,6.91033712 C0.976515903,6.93010214 0.982087317,6.95793417 1.07156216,6.99383321 Z" id="Path-498" fill="#703628" transform="translate(7.067572, 6.456557) rotate(-8.000000) translate(-7.067572, -6.456557) "></path>
            <path d="M15.4796139,7.77311181 C15.6024701,9.13591386 15.9760278,10.4588448 16.5439719,11.7139815 C16.9420949,11.6815749 18.850283,11.7338611 20.6154023,12.0577978 C22.3157445,12.3698466 23.8793642,12.9519485 24.0368034,13.0262518 C25.1304696,11.4327286 25.8458073,9.09852367 25.8461537,6.49303627 C25.8461537,6.24949369 25.8318791,5.96839574 25.8088362,5.67171212 C25.807981,5.66070155 23.3194765,6.30194853 20.7660065,6.81676998 C18.1546208,7.3432682 15.4770089,7.74404566 15.4796139,7.77311181 Z" id="Shape" fill="#EEF6F3" fill-rule="nonzero" transform="translate(20.662884, 9.348912) scale(-1, 1) translate(-20.662884, -9.348912) "></path>
            <path d="M17.8437565,7.40079543 C17.842089,7.46870872 17.8413252,7.53666142 17.841467,7.60463558 C17.8006277,8.91928749 18.1742518,10.2134928 18.909467,11.3041056 C18.9750547,11.3849916 19.0541391,11.4842569 19.1524355,11.588661 C19.4278633,11.8812025 19.8373044,11.969828 20.5401429,12.0517859 C20.8722047,12.0517859 21.211378,12.1994385 21.5128523,12.0219448 C22.6142708,11.3734821 23.437077,9.64541457 23.437077,7.60463558 C23.4477784,7.23622029 23.4262268,6.8693883 23.3735414,6.50811063 C23.3614533,6.42820667 23.3471639,6.32649871 23.3278216,6.22711379 C23.3100068,6.13557736 17.8457954,7.31775902 17.8437565,7.40079543 Z" id="Shape" fill="#975444" fill-rule="nonzero" transform="translate(20.639094, 9.165725) scale(-1, 1) translate(-20.639094, -9.165725) "></path>
            <path d="M17.6465246,14.6289842 C17.8834847,14.1057556 18.737414,13.1767465 19.2475581,12.6986987 C19.7492527,12.2108474 20.3880984,11.8336548 21.0056255,11.4849037 C21.6198804,11.1299889 22.2870226,10.8795513 22.9434681,10.6539097 C23.5083859,10.4597291 24.0478173,10.2961917 24.6194623,10.2543176 C24.7432877,10.2452471 24.8151411,10.2225722 24.7971224,10.2964506 C24.7861511,10.3414336 24.7545465,10.3521245 24.6344957,10.4031592 C24.1107981,10.6257878 23.5968177,10.8226386 23.1025677,11.0629743 C22.4875011,11.3354701 21.8996661,11.6474058 21.3220131,11.973038 C20.742667,12.2972482 20.1842131,12.6551193 19.6344881,13.0343201 C19.081113,13.4118259 18.195241,14.1983648 17.6465246,14.6289842 Z" id="Shape" fill="#703628" fill-rule="nonzero" transform="translate(21.223198, 12.436405) rotate(22.000000) translate(-21.223198, -12.436405) "></path>
            <path d="M14.8783194,7.05064351 C16.147464,7.35486879 17.6060284,7.45834383 19.2540128,7.36106866 C21.2806224,7.24144446 23.4909218,7.06725785 26.8899523,6.37146882 C27.2119882,6.32739349 26.9996873,6.24444999 26.8502888,6.26487326 C24.4356589,6.59496135 21.3090523,6.68911541 19.2321944,6.7387556 C17.1553364,6.78839578 16.353387,6.77750605 14.9054398,6.77105738 C14.6535128,6.76993538 14.6444727,6.86313076 14.8783194,7.05064351 Z" id="Path-498" fill="#703628" transform="translate(20.883922, 6.829057) scale(-1, 1) rotate(-8.000000) translate(-20.883922, -6.829057) "></path>
            <path d="M2.90551503,1.19603227 C2.86892649,1.15587928 2.89654713,1.08189042 2.99786529,1.01759803 C4.20217951,0.253389041 5.9674291,-0.163554319 7.88289047,0.0603307726 C6.30542638,0.068941739 4.72649363,0.430406177 3.14609221,1.14472409 C3.03872559,1.1932522 2.94210358,1.23618526 2.90551503,1.19603227 Z" id="Path-499" fill="#703628"></path>
            <path d="M19.0163169,1.79874012 C18.9797283,1.75858713 19.007349,1.68459827 19.1086671,1.62030588 C20.3129813,0.856096892 22.4180467,0.327833546 24.5422533,0.761183155 C22.8121507,0.650526417 20.7453172,0.996961964 19.256894,1.74743194 C19.1588084,1.7968872 19.0529054,1.83889312 19.0163169,1.79874012 Z" id="Path-499" fill="#703628" transform="translate(21.771573, 1.209958) scale(-1, 1) translate(-21.771573, -1.209958) "></path>
        </g>
    </g>
</svg>