<?xml version="1.0" encoding="UTF-8"?>
<svg width="48px" height="48px" viewBox="0 0 48 48" version="1.1" xmlns="http://www.w3.org/2000/svg" xmlns:xlink="http://www.w3.org/1999/xlink">
    <!-- Generator: Sketch 59 (86127) - https://sketch.com -->
    <title>17-eyeexpress-MascaraClosed</title>
    <desc>Created with Sketch.</desc>
    <g id="SVGs" stroke="none" stroke-width="1" fill="none" fill-rule="evenodd">
        <g id="Slices" transform="translate(-1063.000000, -950.000000)"></g>
        <g id="Group-187" transform="translate(11.000000, 15.000000)" fill="#703628">
            <path d="M10.1005461,5.57148 C9.76605313,5.01801391 9.39830191,4.48184299 8.99897475,3.96542 C8.60519168,3.449478 8.16526138,2.96419225 7.68369589,2.51454 C7.21159486,2.06631895 6.65028303,1.70426194 6.02976108,1.44772 C5.72401184,1.32438316 5.39701578,1.25071701 5.06350308,1.23004 C4.7334933,1.20211183 4.40081006,1.24157609 4.08958644,1.34557 C3.47524501,1.59973851 2.9950529,2.06420649 2.75266841,2.63871 C2.48360511,3.21679226 2.30734954,3.82728689 2.22935078,4.45132 C2.13549848,5.07893396 2.09702687,5.71241391 2.11430703,6.34565 C1.94564298,5.07057282 2.10190833,3.7771698 2.57092118,2.56627 C2.81696751,1.93466247 3.33442729,1.42185918 4.00390624,1.14618 C4.34646194,1.02715958 4.71372718,0.979144332 5.07911616,1.00561 C5.44113656,1.02418168 5.79678818,1.10052694 6.12992585,1.23118 C6.77690084,1.50533899 7.36057802,1.88971329 7.84961091,2.36366 C8.33906357,2.82376329 8.77851703,3.32607043 9.16181097,3.86354 C9.92827622,4.92909105 10.56112,6.0698789 11.04843,7.26443 C10.7575008,6.68772 10.4448666,6.12123 10.1005461,5.57148 Z" id="Shape" fill-rule="nonzero" transform="translate(6.548430, 4.131484) rotate(5.000000) translate(-6.548430, -4.131484) "></path>
            <path d="M12.5242854,18.4241059 C11.6087965,17.6773568 10.0789417,16.4331705 7.70393182,15.3519182 C4.35291123,13.8263251 2.3417165,14.3498381 1.88849708,14.3788373 C2.134103,14.3336173 3.06093727,13.8053826 4.92808035,14.1092415 C8.14990369,14.6335609 10.8483328,16.5927832 12.5242854,18.4241059 Z" id="Shape" fill-rule="nonzero" transform="translate(7.206391, 16.219807) rotate(-2.000000) translate(-7.206391, -16.219807) "></path>
            <path d="M5.84226544,10.7086012 C3.92990008,10.2571988 1.89556885,10.4497681 0.99994,10.55902 C1.45144,10.41073 1.91416,10.30288 2.38005,10.19477 C2.84953,10.13332 3.32315,10.05266 3.8007,10.02754 C4.03964,10.02054 4.27933,10.0154 4.51935,10.01454 C4.63935,10.01448 4.75971,10.00949 4.87962,10.01572 L5.23945,10.04421 L5.95945,10.11315 L6.67286,10.24715 C7.62605344,10.4469433 8.54016153,10.8012617 9.379,11.29608 C9.79512692,11.5475226 10.1838205,11.8417893 10.53874,12.17408 C10.8956682,12.499817 11.1955639,12.882993 11.426,13.30773 C10.7153931,12.7399902 8.99522779,11.4528393 5.84226544,10.7086012 Z" id="Shape" fill-rule="nonzero" transform="translate(6.212970, 11.660161) rotate(-5.000000) translate(-6.212970, -11.660161) "></path>
            <path d="M10.7061768,14.2523193 C10.5302327,15.1265753 10.2288411,15.788987 9.80200195,16.2395543 C9.887146,16.3531494 10.0027971,16.5363532 10.086792,16.3517456 C10.5265706,15.4389038 10.7330322,14.7390951 10.7061768,14.2523193 Z" id="Path-501"></path>
            <path d="M2.31855469,10.68479 C2.40603841,11.331307 2.57325846,11.8943034 2.82021484,12.3737793 C2.6616862,11.8841471 2.56591797,11.3187988 2.53291016,10.6777344 L2.31855469,10.68479 Z" id="Path-502"></path>
            <path d="M10.0583445,11.5939718 C9.05011355,9.68722478 8.60073083,8.08742961 8.71019632,6.79458633 C8.44183695,7.57437148 8.5644932,9.75210586 9.09007913,11.131891 C9.39873799,11.4787009 9.72149311,11.6327278 10.0583445,11.5939718 Z" id="Path-503" transform="translate(9.315442, 9.197201) rotate(-3.000000) translate(-9.315442, -9.197201) "></path>
            <path d="M7.51858489,10.694018 C6.53666977,8.85483991 6.06648748,7.26468692 6.10803802,5.92355906 C5.83967864,6.70334422 6.05360555,8.95145455 6.57919149,10.3312397 C6.88785034,10.6780496 7.20098148,10.7989757 7.51858489,10.694018 Z" id="Path-503" transform="translate(6.755327, 8.327077) rotate(-6.000000) translate(-6.755327, -8.327077) "></path>
            <path d="M5.56076399,10.6979483 C4.57884887,9.16754304 4.10866658,7.84435503 4.15021712,6.72838424 C3.88185774,7.37725411 4.09578465,9.24793739 4.62137059,10.3960755 C4.93002944,10.6846607 5.24316058,10.785285 5.56076399,10.6979483 Z" id="Path-503" transform="translate(4.797506, 8.728384) rotate(-12.000000) translate(-4.797506, -8.728384) "></path>
            <path d="M3.20346447,10.7448741 C2.59706548,9.62148984 2.30747559,8.64130869 2.33469479,7.80433059 C2.15889614,8.290983 2.29903681,9.69399546 2.64334115,10.555099 C2.84553945,10.7715379 3.03224723,10.8347963 3.20346447,10.7448741 Z" id="Path-503" transform="translate(2.731095, 9.294398) rotate(-24.000000) translate(-2.731095, -9.294398) "></path>
            <path d="M1.56772427,11.1824066 C1.24131176,10.4067811 1.08817042,9.70947707 1.10830023,9.09049451 C0.987268375,9.42553942 1.0159883,10.194929 1.15798463,10.9227912 C1.31875211,11.1987849 1.68268142,11.4555693 1.56772427,11.1824066 Z" id="Path-503" transform="translate(1.311057, 10.194727) rotate(-50.000000) translate(-1.311057, -10.194727) "></path>
            <path d="M23.0036861,5.57148 C22.6691931,5.01801391 22.3014419,4.48184299 21.9021147,3.96542 C21.5083317,3.449478 21.0684014,2.96419225 20.5868359,2.51454 C20.1147349,2.06631895 19.553423,1.70426194 18.9329011,1.44772 C18.6271518,1.32438316 18.3001558,1.25071701 17.9666431,1.23004 C17.6366333,1.20211183 17.3039501,1.24157609 16.9927264,1.34557 C16.378385,1.59973851 15.8981929,2.06420649 15.6558084,2.63871 C15.3867451,3.21679226 15.2104895,3.82728689 15.1324908,4.45132 C15.0386385,5.07893396 15.0001669,5.71241391 15.017447,6.34565 C14.848783,5.07057282 15.0050483,3.7771698 15.4740612,2.56627 C15.7201075,1.93466247 16.2375673,1.42185918 16.9070462,1.14618 C17.2496019,1.02715958 17.6168672,0.979144332 17.9822562,1.00561 C18.3442766,1.02418168 18.6999282,1.10052694 19.0330658,1.23118 C19.6800408,1.50533899 20.263718,1.88971329 20.7527509,2.36366 C21.2422036,2.82376329 21.681657,3.32607043 22.064951,3.86354 C22.8314162,4.92909105 23.46426,6.0698789 23.95157,7.26443 C23.6606408,6.68772 23.3480066,6.12123 23.0036861,5.57148 Z" id="Shape" fill-rule="nonzero" transform="translate(19.451570, 4.131484) scale(-1, 1) rotate(5.000000) translate(-19.451570, -4.131484) "></path>
            <path d="M24.1124413,18.4241223 C23.1969524,17.6773732 21.6670976,16.4331869 19.2920877,15.3519346 C15.9410671,13.8263415 13.9298724,14.3498545 13.476653,14.3788536 C13.7222589,14.3336336 14.5748526,13.7445679 16.4419956,14.0484267 C19.663819,14.5727462 22.4364887,16.5927996 24.1124413,18.4241223 Z" id="Shape" fill-rule="nonzero" transform="translate(18.794547, 16.192935) scale(-1, 1) rotate(-2.000000) translate(-18.794547, -16.192935) "></path>
            <path d="M19.4163254,10.7086012 C17.5039601,10.2571988 15.4696288,10.4497681 14.574,10.55902 C15.0255,10.41073 15.48822,10.30288 15.95411,10.19477 C16.42359,10.13332 16.89721,10.05266 17.37476,10.02754 C17.6137,10.02054 17.85339,10.0154 18.09341,10.01454 C18.21341,10.01448 18.33377,10.00949 18.45368,10.01572 L18.81351,10.04421 L19.53351,10.11315 L20.24692,10.24715 C21.2001134,10.4469433 22.1142215,10.8012617 22.95306,11.29608 C23.3691869,11.5475226 23.7578805,11.8417893 24.1128,12.17408 C24.4697282,12.499817 24.7696239,12.882993 25.00006,13.30773 C24.2894531,12.7399902 22.5692878,11.4528393 19.4163254,10.7086012 Z" id="Shape" fill-rule="nonzero" transform="translate(19.787030, 11.660161) scale(-1, 1) rotate(-5.000000) translate(-19.787030, -11.660161) "></path>
            <path d="M16.1850573,13.1273926 C16.0477851,14.5039551 15.6947903,15.5413423 15.1260729,16.2395543 C15.2112169,16.3531494 15.3268681,16.5363532 15.4108629,16.3517456 C16.0029039,15.2837524 16.2609687,14.2089681 16.1850573,13.1273926 Z" id="Path-501" transform="translate(15.662035, 14.778910) scale(-1, 1) translate(-15.662035, -14.778910) "></path>
            <path d="M23.1797852,10.68479 C23.2672689,11.331307 23.4344889,11.8943034 23.6814453,12.3737793 C23.5229167,11.8841471 23.4271484,11.3187988 23.3941406,10.6777344 L23.1797852,10.68479 Z" id="Path-502" transform="translate(23.430615, 11.525757) scale(-1, 1) translate(-23.430615, -11.525757) "></path>
            <path d="M17.42746,11.5939718 C16.4192291,9.68722478 15.9698463,8.08742961 16.0793118,6.79458633 C15.8109525,7.57437148 15.9336087,9.75210586 16.4591947,11.131891 C16.7678535,11.4787009 17.0906086,11.6327278 17.42746,11.5939718 Z" id="Path-503" transform="translate(16.684558, 9.197201) scale(-1, 1) rotate(-3.000000) translate(-16.684558, -9.197201) "></path>
            <path d="M20.0079307,10.694018 C19.0260155,8.85483991 18.5558333,7.26468692 18.5973838,5.92355906 C18.3290244,6.70334422 18.5429513,8.95145455 19.0685373,10.3312397 C19.3771961,10.6780496 19.6903273,10.7989757 20.0079307,10.694018 Z" id="Path-503" transform="translate(19.244673, 8.327077) scale(-1, 1) rotate(-6.000000) translate(-19.244673, -8.327077) "></path>
            <path d="M21.9657516,10.6979483 C20.9838364,9.16754304 20.5136542,7.84435503 20.5552047,6.72838424 C20.2868453,7.37725411 20.5007722,9.24793739 21.0263582,10.3960755 C21.335017,10.6846607 21.6481482,10.785285 21.9657516,10.6979483 Z" id="Path-503" transform="translate(21.202494, 8.728384) scale(-1, 1) rotate(-12.000000) translate(-21.202494, -8.728384) "></path>
            <path d="M23.7412747,10.7448741 C23.1348758,9.62148984 22.8452859,8.64130869 22.8725051,7.80433059 C22.6967064,8.290983 22.8368471,9.69399546 23.1811514,10.555099 C23.3833497,10.7715379 23.5700575,10.8347963 23.7412747,10.7448741 Z" id="Path-503" transform="translate(23.268905, 9.294398) scale(-1, 1) rotate(-24.000000) translate(-23.268905, -9.294398) "></path>
            <path d="M24.9456096,11.1824066 C24.6191971,10.4067811 24.4660558,9.70947707 24.4861856,9.09049451 C24.3651537,9.42553942 24.3938736,10.194929 24.53587,10.9227912 C24.6966375,11.1987849 25.0605668,11.4555693 24.9456096,11.1824066 Z" id="Path-503" transform="translate(24.688943, 10.194727) scale(-1, 1) rotate(-50.000000) translate(-24.688943, -10.194727) "></path>
        </g>
    </g>
</svg>