<?xml version="1.0" encoding="UTF-8"?>
<svg width="48px" height="48px" viewBox="0 0 48 48" version="1.1" xmlns="http://www.w3.org/2000/svg" xmlns:xlink="http://www.w3.org/1999/xlink">
    <!-- Generator: Sketch 59 (86127) - https://sketch.com -->
    <title>17-eyeexpress-Crosseyed</title>
    <desc>Created with Sketch.</desc>
    <g id="SVGs" stroke="none" stroke-width="1" fill="none" fill-rule="evenodd">
        <g id="Slices" transform="translate(-1003.000000, -950.000000)"></g>
        <g id="Group-188" transform="translate(11.000000, 14.000000)">
            <path d="M1.2547,8.609 C1.24721372,10.0039545 1.45133131,11.391977 1.86009,12.72572 C1.71145483,11.6249357 1.64895508,10.5142301 1.67316,9.40372 C1.67316,5.277 3.53748,2.14221 6.25253,1.43618 C8.05716,0.96689 9.59327,2.22465 10.53209,4.33477 C9.67571,1.74563 8.0667,4e-05 6.22144,4e-05 C3.47838,4e-05 1.2547,3.85438 1.2547,8.609 Z" id="Shape" fill="#703628" fill-rule="nonzero"></path>
            <path d="M6.25253,1.43614 C3.53753,2.14214 1.67316,5.27696 1.67316,9.40368 C1.64895508,10.5141901 1.71145483,11.6248957 1.86009,12.72568 C1.97981053,13.5716619 2.2576766,14.3875553 2.67918,15.13076 L2.71389,15.13971 C2.89083,15.18901 3.06346,15.24753 3.23426,15.31128 C3.67061599,15.4757636 4.0911274,15.6795477 4.49061,15.92012 C5.04829559,16.2525468 5.56017197,16.6563927 6.01325,17.12141 C6.24775971,17.3627043 6.46420363,17.6209209 6.66083,17.89397 C7.3718813,17.751309 8.03661498,17.4350126 8.59583,16.97325 C8.61671,16.95825 8.64051,16.9385 8.66502,16.91725 C9.7497938,15.9074201 10.5299855,14.6138996 10.91716,13.18331 C11.3142376,11.9632836 11.5166477,10.6873982 11.5152,9.4036 C11.5383585,7.66445544 11.2037285,5.93911831 10.53209,4.33473 C9.59327,2.22461 8.05716,0.96685 6.25253,1.43614 Z" id="Shape" fill="#EEF6F3" fill-rule="nonzero"></path>
            <path d="M9.11495012,11.9069729 C8.92735965,11.9077888 8.74011115,11.9397234 8.57330265,12.0368547 C7.87993926,12.4405946 7.39287386,13.4872837 7.22791052,14.2451197 C7.14560782,14.6232156 7.11429839,15.0166881 7.11508011,15.4069729 C7.10922722,16.0939068 7.23296967,16.7753626 7.47929715,17.4127341 C7.58209725,17.6774517 7.71619532,17.9278151 7.87849367,18.1580408 C8.05673518,18.3867268 8.50989365,18.8336002 9.11495012,18.9069729 C9.94135309,18.9069729 10.6504672,18.0294918 10.9552601,16.7780398 C11.0626054,16.3296138 11.1162114,15.8690937 11.1148567,15.4069729 C11.1148201,13.4740012 10.2194392,11.9069729 9.11495012,11.9069729 Z" id="Shape" fill="#975444" fill-rule="nonzero" transform="translate(9.114894, 15.406973) rotate(12.000000) translate(-9.114894, -15.406973) "></path>
            <path d="M2.87437,15.3403 C2.85272,15.34308 2.83081,15.34395 2.80922,15.34712 C2.78909,15.31574 2.7715,15.28361 2.75206,15.25203 L2.69654,15.21195 L2.70605,15.17549 L2.67918,15.1308 C2.07034727,14.9520596 1.43732891,14.869528 0.80302,14.88619 C1.38874,15.16519 1.96439,15.38413 2.51297,15.66573 C3.06842,15.92547 3.5993,16.22281 4.12097,16.53322 C4.64417,16.84222 5.14851,17.18336 5.64497,17.54482 C6.14477,17.90463 6.6291,18.28737 7.12465,18.69782 C6.99820504,18.4145784 6.84275875,18.1451974 6.6608,17.89399 C6.59547,17.90684 6.53085,17.92075 6.46369,17.93078 L2.87437,15.3403 Z" id="Shape" fill="#703628" fill-rule="nonzero"></path>
            <path d="M4.49056,15.92016 C4.0910774,15.6795877 3.67056599,15.4758036 3.23421,15.31132 C3.11366,15.31585 2.99364,15.32496 2.87437,15.34032 L6.46367,17.93082 C6.53083,17.92082 6.59545,17.90688 6.66078,17.89403 C6.46415363,17.6209809 6.24770971,17.3627643 6.0132,17.12147 C5.56012321,16.6564457 5.04824677,16.252593 4.49056,15.92016 L4.49056,15.92016 Z" id="Shape" fill="#703628" fill-rule="nonzero"></path>
            <path d="M2.75202,15.25203 L2.87433,15.3403 C2.9936,15.32496 3.11362,15.31585 3.23417,15.3113 C3.06342,15.24755 2.89079,15.18903 2.71517,15.14017 L2.70596,15.17547 C2.72124,15.20104 2.73641,15.22662 2.75202,15.25203 Z" id="Shape" fill="#703628" fill-rule="nonzero"></path>
            <path d="M15.4681087,8.609 C15.4606224,10.0039545 15.66474,11.391977 16.0734987,12.72572 C15.9248635,11.6249357 15.8623638,10.5142301 15.8865687,9.40372 C15.8865687,5.277 17.7508887,2.14221 20.4659387,1.43618 C22.2705687,0.96689 23.8066787,2.22465 24.7454987,4.33477 C23.8891187,1.74563 22.2801087,4e-05 20.4348487,4e-05 C17.6917887,4e-05 15.4681087,3.85438 15.4681087,8.609 Z" id="Shape" fill="#703628" fill-rule="nonzero" transform="translate(20.106704, 6.362880) scale(-1, 1) translate(-20.106704, -6.362880) "></path>
            <path d="M19.0681145,1.43614 C16.3531145,2.14214 14.4887445,5.27696 14.4887445,9.40368 C14.4645396,10.5141901 14.5270393,11.6248957 14.6756745,12.72568 C14.795395,13.5716619 15.0732611,14.3875553 15.4947645,15.13076 L15.5294745,15.13971 C15.7064145,15.18901 15.8790445,15.24753 16.0498445,15.31128 C16.4862005,15.4757636 16.9067119,15.6795477 17.3061945,15.92012 C17.8638801,16.2525468 18.3757565,16.6563927 18.8288345,17.12141 C19.0633442,17.3627043 19.2797881,17.6209209 19.4764145,17.89397 C20.1874658,17.751309 20.8521995,17.4350126 21.4114145,16.97325 C21.4322945,16.95825 21.4560945,16.9385 21.4806045,16.91725 C22.5653783,15.9074201 23.34557,14.6138996 23.7327445,13.18331 C24.1298221,11.9632836 24.3322322,10.6873982 24.3307845,9.4036 C24.353943,7.66445544 24.019313,5.93911831 23.3476745,4.33473 C22.4088545,2.22461 20.8727445,0.96685 19.0681145,1.43614 Z" id="Shape" fill="#EEF6F3" fill-rule="nonzero" transform="translate(19.407792, 9.616077) scale(-1, 1) translate(-19.407792, -9.616077) "></path>
            <path d="M16.8851863,11.9069704 C16.6975958,11.9077863 16.5103473,11.9397209 16.3435388,12.0368522 C15.6501754,12.440592 15.16311,13.4872812 14.9981467,14.2451172 C14.915844,14.6232131 14.8845346,15.0166856 14.8853163,15.4069704 C14.8794634,16.0939043 15.0032058,16.7753601 15.2495333,17.4127316 C15.3523334,17.6774492 15.4864315,17.9278126 15.6487298,18.1580383 C15.8269713,18.3867243 16.2181155,18.8260775 16.8851863,18.9069704 C17.7115893,18.9069704 18.4207034,18.0294893 18.7254963,16.7780373 C18.8328416,16.3296113 18.8864476,15.8690912 18.885118,15.4069704 C18.8850563,13.4739987 17.9896754,11.9069704 16.8851863,11.9069704 Z" id="Shape" fill="#975444" fill-rule="nonzero" transform="translate(16.885118, 15.406970) scale(-1, 1) rotate(12.000000) translate(-16.885118, -15.406970) "></path>
            <path d="M20.9467,15.3403 C20.92505,15.34308 20.90314,15.34395 20.88155,15.34712 C20.86142,15.31574 20.84383,15.28361 20.82439,15.25203 L20.76887,15.21195 L20.77838,15.17549 L20.75151,15.1308 C20.1426773,14.9520596 19.5096589,14.869528 18.87535,14.88619 C19.46107,15.16519 20.03672,15.38413 20.5853,15.66573 C21.14075,15.92547 21.67163,16.22281 22.1933,16.53322 C22.7165,16.84222 23.22084,17.18336 23.7173,17.54482 C24.2171,17.90463 24.70143,18.28737 25.19698,18.69782 C25.070535,18.4145784 24.9150888,18.1451974 24.73313,17.89399 C24.6678,17.90684 24.60318,17.92075 24.53602,17.93078 L20.9467,15.3403 Z" id="Shape" fill="#703628" fill-rule="nonzero" transform="translate(22.036165, 16.790955) scale(-1, 1) translate(-22.036165, -16.790955) "></path>
            <path d="M20.95541,15.92016 C20.5559274,15.6795877 20.135416,15.4758036 19.69906,15.31132 C19.57851,15.31585 19.45849,15.32496 19.33922,15.34032 L22.92852,17.93082 C22.99568,17.92082 23.0603,17.90688 23.12563,17.89403 C22.9290036,17.6209809 22.7125597,17.3627643 22.47805,17.12147 C22.0249732,16.6564457 21.5130968,16.252593 20.95541,15.92016 L20.95541,15.92016 Z" id="Shape" fill="#703628" fill-rule="nonzero" transform="translate(21.232425, 16.621070) scale(-1, 1) translate(-21.232425, -16.621070) "></path>
            <path d="M22.3401,15.25203 L22.46241,15.3403 C22.58168,15.32496 22.7017,15.31585 22.82225,15.3113 C22.6515,15.24755 22.47887,15.18903 22.30325,15.14017 L22.29404,15.17547 C22.30932,15.20104 22.32449,15.22662 22.3401,15.25203 Z" id="Shape" fill="#703628" fill-rule="nonzero" transform="translate(22.794040, 15.640170) scale(-1, 1) translate(-22.794040, -15.640170) "></path>
            <ellipse id="Oval" fill="#FFFFFF" transform="translate(20.500000, 9.500000) scale(-1, 1) rotate(-12.000000) translate(-20.500000, -9.500000) " cx="20.5" cy="9.5" rx="1" ry="1"></ellipse>
        </g>
        <ellipse id="Oval" fill="#FFFFFF" transform="translate(17.500000, 20.500000) rotate(-12.000000) translate(-17.500000, -20.500000) " cx="17.5" cy="20.5" rx="1" ry="1"></ellipse>
    </g>
</svg>