<?xml version="1.0" encoding="UTF-8"?>
<svg width="48px" height="48px" viewBox="0 0 48 48" version="1.1" xmlns="http://www.w3.org/2000/svg" xmlns:xlink="http://www.w3.org/1999/xlink">
    <!-- Generator: Sketch 59 (86127) - https://sketch.com -->
    <title>17-eyeexpress-MascaraOpen</title>
    <desc>Created with Sketch.</desc>
    <g id="SVGs" stroke="none" stroke-width="1" fill="none" fill-rule="evenodd">
        <g id="Slices" transform="translate(-945.000000, -950.000000)"></g>
        <g id="Group-185" transform="translate(9.000000, 12.000000)">
            <path d="M7.56688,3 C4.74866,3 2.46405,6.96 2.46405,11.8449 C2.45636782,13.2780745 2.66608573,14.704126 3.08605,16.07441 C2.93335806,14.9434505 2.86916315,13.8022991 2.89405,12.66135 C2.89405,8.42155 4.72631707,5.00613172 7.51574707,4.28076172 C9.36974707,3.79863172 10.9071031,5.04918102 11.8716431,7.21704102 C10.9917231,4.55703102 9.46266,3 7.56688,3 Z" id="Shape" fill="#703628" fill-rule="nonzero"></path>
            <path d="M11.99561,7.45335 C11.03107,5.28552 9.42861496,3.73892934 7.57458496,4.22106934 C4.78515496,4.94643934 2.89401,8.42149 2.89401,12.66134 C2.86912315,13.8022891 2.93331806,14.9434405 3.08601,16.0744 C3.21116068,16.9614409 3.50627,17.8160068 3.95516,18.59125 L3.94538,18.62876 L4.00245,18.66995 C4.02245,18.70238 4.04045,18.7354 4.06115,18.76763 C4.08333,18.76438 4.10584,18.76348 4.12808,18.76063 C6.70868294,20.5147579 8.02868287,21.3855467 8.08807979,21.3729963 C11.3847359,20.6712696 12.39119,16.54457 12.39119,16.54457 C12.7991412,15.2911324 13.0070935,13.9803061 13.00561,12.66135 C13.029459,10.8744739 12.6856753,9.10177501 11.99561,7.45335 Z" id="Shape" fill="#EEF6F3" fill-rule="nonzero"></path>
            <path d="M9.13161,10.09258 C8.86835015,10.0936936 8.60865877,10.1535593 8.37148,10.26781 C8.89033741,11.2643746 8.72013373,12.4803297 7.94759,13.29613 C7.5064979,13.6192636 6.90162217,13.598815 6.48336,13.24663 C6.37698426,13.7622397 6.32391843,14.2874226 6.325,14.81389 C6.28402763,16.1326618 6.65882427,17.4309237 7.39635,18.52495 C7.64650309,18.8334106 8.15408277,19.4212687 9.13158,19.5352 C10.68158,19.5352 11.9381,17.42137 11.9381,14.81389 C11.9381,12.20641 10.6816,10.09258 9.13161,10.09258 Z" id="Shape" fill="#975444" fill-rule="nonzero"></path>
            <path d="M7.35748805,21.02556 C6.84748805,20.6542 6.32928805,20.30375 5.79174805,19.98624 C5.25574805,19.66732 4.71036805,19.36184 4.13974805,19.09498 C3.57611805,18.80567 2.98474805,18.5807 2.38294805,18.29408 C3.0470378,18.2760876 3.70975266,18.3640267 4.34616805,18.55459 C4.98769298,18.739154 5.60160513,19.0088185 6.17152805,19.35639 C6.74448897,19.6979263 7.270387,20.1128355 7.73587805,20.59059 C8.20919178,21.0587523 8.59578691,21.6070954 8.87772805,22.21018 C8.36858805,21.78846 7.87098805,21.39523 7.35748805,21.02556 Z" id="Shape" fill="#703628" fill-rule="nonzero"></path>
            <path d="M8.19647217,3.17547607 C7.58009847,2.49342855 7.25785714,1.60229492 7.22974818,0.502075195 C6.97355538,1.25260417 7.10957845,2.20025635 7.63781738,3.34503174 L8.19647217,3.17547607 Z" id="Path-500" fill="#703628"></path>
            <path d="M6.43696181,3.49062146 C5.70205904,2.64214299 5.30024882,1.64555676 5.23153113,0.500862747 C5.00630351,1.43400891 5.24264764,2.54895669 5.94056353,3.8457061 L6.43696181,3.49062146 Z" id="Path-500" fill="#703628" transform="translate(5.793033, 2.173284) rotate(-2.000000) translate(-5.793033, -2.173284) "></path>
            <path d="M4.70780426,4.66150907 C3.81166636,3.66093895 3.32923857,2.58830689 3.26052089,1.44361288 C3.03529326,2.37675904 3.32859058,3.53803849 4.14041287,4.92745121 L4.70780426,4.66150907 Z" id="Path-500" fill="#703628" transform="translate(3.947476, 3.185532) rotate(-19.000000) translate(-3.947476, -3.185532) "></path>
            <path d="M3.72182555,6.54090561 C2.82668437,5.57085337 2.34475494,4.51348024 2.27603726,3.36878623 C2.05080963,4.30193239 2.34410695,5.46321183 3.15592924,6.85262456 L3.72182555,6.54090561 Z" id="Path-500" fill="#703628" transform="translate(2.962245, 5.110705) rotate(-34.000000) translate(-2.962245, -5.110705) "></path>
            <path d="M2.92280772,8.137726 C2.43744484,7.36287556 2.10046724,6.58134779 2.04965396,5.73490396 C1.87639788,6.45272551 2.00997567,7.30554348 2.45038733,8.29335789 C2.58249742,8.58967215 3.09382861,8.41074978 2.92280772,8.137726 Z" id="Path-500" fill="#703628" transform="translate(2.466855, 7.090660) rotate(-58.000000) translate(-2.466855, -7.090660) "></path>
            <path d="M2.56515422,9.5772859 C2.1686181,8.87449535 1.94752011,8.14280083 1.90186025,7.38220235 C1.74517323,8.03137621 1.8394392,8.79096082 2.18465815,9.66095617 C2.22116375,9.7529549 2.60990947,9.65660671 2.56515422,9.5772859 Z" id="Path-500" fill="#703628" transform="translate(2.198612, 8.540343) rotate(-77.000000) translate(-2.198612, -8.540343) "></path>
            <path d="M23.2313906,3 C20.4131706,3 18.1285606,6.96 18.1285606,11.8449 C18.1208784,13.2780745 18.3305963,14.704126 18.7505606,16.07441 C18.5978686,14.9434505 18.5336737,13.8022991 18.5585606,12.66135 C18.5585606,8.42155 20.3908276,5.00613172 23.1802576,4.28076172 C25.0342576,3.79863172 26.5716136,5.04918102 27.5361536,7.21704102 C26.6562336,4.55703102 25.1271706,3 23.2313906,3 Z" id="Shape" fill="#703628" fill-rule="nonzero" transform="translate(22.832255, 9.537205) scale(-1, 1) translate(-22.832255, -9.537205) "></path>
            <path d="M26.100045,7.45335 C25.135505,5.28552 23.53305,3.73892934 21.67902,4.22106934 C18.88959,4.94643934 16.998445,8.42149 16.998445,12.66134 C16.9735582,13.8022891 17.0377531,14.9434405 17.190445,16.0744 C17.3155957,16.9614409 17.610705,17.8160068 18.059595,18.59125 L18.049815,18.62876 L18.106885,18.66995 C18.126885,18.70238 18.144885,18.7354 18.165585,18.76763 C18.187765,18.76438 18.210275,18.76348 18.232515,18.76063 C20.813118,20.5147579 22.1331179,21.3855467 22.1925148,21.3729963 C25.489171,20.6712696 26.495625,16.54457 26.495625,16.54457 C26.9035762,15.2911324 27.1115285,13.9803061 27.110045,12.66135 C27.1338941,10.8744739 26.7901103,9.10177501 26.100045,7.45335 Z" id="Shape" fill="#EEF6F3" fill-rule="nonzero" transform="translate(22.052218, 12.752804) scale(-1, 1) translate(-22.052218, -12.752804) "></path>
            <path d="M20.8715446,10.09258 C20.6082848,10.0936936 20.3485934,10.1535593 20.1114146,10.26781 C20.630272,11.2643746 20.4600684,12.4803297 19.6875246,13.29613 C19.2464325,13.6192636 18.6415568,13.598815 18.2232946,13.24663 C18.1169189,13.7622397 18.0638531,14.2874226 18.0649346,14.81389 C18.0239622,16.1326618 18.3987589,17.4309237 19.1362846,18.52495 C19.3864377,18.8334106 19.8940174,19.4212687 20.8715146,19.5352 C22.4215146,19.5352 23.6780346,17.42137 23.6780346,14.81389 C23.6780346,12.20641 22.4215346,10.09258 20.8715446,10.09258 Z" id="Shape" fill="#975444" fill-rule="nonzero" transform="translate(20.869967, 14.813890) scale(-1, 1) translate(-20.869967, -14.813890) "></path>
            <path d="M26.096812,21.02556 C25.586812,20.6542 25.068612,20.30375 24.531072,19.98624 C23.995072,19.66732 23.449692,19.36184 22.879072,19.09498 C22.315442,18.80567 21.724072,18.5807 21.122272,18.29408 C21.7863617,18.2760876 22.4490766,18.3640267 23.085492,18.55459 C23.7270169,18.739154 24.340929,19.0088185 24.910852,19.35639 C25.4838129,19.6979263 26.0097109,20.1128355 26.475202,20.59059 C26.9485157,21.0587523 27.3351108,21.6070954 27.617052,22.21018 C27.107912,21.78846 26.610312,21.39523 26.096812,21.02556 Z" id="Shape" fill="#703628" fill-rule="nonzero" transform="translate(24.369662, 20.250983) scale(-1, 1) translate(-24.369662, -20.250983) "></path>
            <path d="M22.8957594,3.17547607 C22.2793857,2.49342855 21.9571444,1.60229492 21.9290354,0.502075195 C21.6728426,1.25260417 21.8088657,2.20025635 22.3371046,3.34503174 L22.8957594,3.17547607 Z" id="Path-500" fill="#703628" transform="translate(22.349644, 1.923553) scale(-1, 1) translate(-22.349644, -1.923553) "></path>
            <path d="M24.8508951,3.49062146 C24.1159923,2.64214299 23.7141821,1.64555676 23.6454644,0.500862747 C23.4202368,1.43400891 23.6565809,2.54895669 24.3544968,3.8457061 L24.8508951,3.49062146 Z" id="Path-500" fill="#703628" transform="translate(24.206967, 2.173284) scale(-1, 1) rotate(-2.000000) translate(-24.206967, -2.173284) "></path>
            <path d="M26.8128519,4.66150907 C25.916714,3.66093895 25.4342862,2.58830689 25.3655685,1.44361288 C25.1403409,2.37675904 25.4336382,3.53803849 26.2454605,4.92745121 L26.8128519,4.66150907 Z" id="Path-500" fill="#703628" transform="translate(26.052524, 3.185532) scale(-1, 1) rotate(-19.000000) translate(-26.052524, -3.185532) "></path>
            <path d="M27.7973355,6.54090561 C26.9021943,5.57085337 26.4202649,4.51348024 26.3515472,3.36878623 C26.1263196,4.30193239 26.4196169,5.46321183 27.2314392,6.85262456 L27.7973355,6.54090561 Z" id="Path-500" fill="#703628" transform="translate(27.037755, 5.110705) scale(-1, 1) rotate(-34.000000) translate(-27.037755, -5.110705) "></path>
            <path d="M27.9890986,8.137726 C27.5037357,7.36287556 27.1667581,6.58134779 27.1159448,5.73490396 C26.9426887,6.45272551 27.0762665,7.30554348 27.5166782,8.29335789 C27.6487883,8.58967215 28.1601194,8.41074978 27.9890986,8.137726 Z" id="Path-500" fill="#703628" transform="translate(27.533145, 7.090660) scale(-1, 1) rotate(-58.000000) translate(-27.533145, -7.090660) "></path>
            <path d="M28.1679306,9.5772859 C27.7713945,8.87449535 27.5502965,8.14280083 27.5046366,7.38220235 C27.3479496,8.03137621 27.4422156,8.79096082 27.7874345,9.66095617 C27.8239401,9.7529549 28.2126859,9.65660671 28.1679306,9.5772859 Z" id="Path-500" fill="#703628" transform="translate(27.801388, 8.540343) scale(-1, 1) rotate(-77.000000) translate(-27.801388, -8.540343) "></path>
        </g>
    </g>
</svg>