<?xml version="1.0" encoding="UTF-8"?>
<svg width="48px" height="48px" viewBox="0 0 48 48" version="1.1" xmlns="http://www.w3.org/2000/svg" xmlns:xlink="http://www.w3.org/1999/xlink">
    <!-- Generator: Sketch 59 (86127) - https://sketch.com -->
    <title>17_mouthexpression-Underbite</title>
    <desc>Created with Sketch.</desc>
    <g id="SVGs" stroke="none" stroke-width="1" fill="none" fill-rule="evenodd">
        <g id="Slices" transform="translate(-880.000000, -889.000000)"></g>
        <g id="Group-190" transform="translate(12.000000, 21.000000)">
            <g id="Group-161">
                <g id="Group-153" transform="translate(18.000000, 0.000000)" fill="#6E3A0C" fill-rule="nonzero">
                    <path d="M1.41740171,4.38451795 C1.14061318,4.38415155 0.946942727,4.29427747 0.936501525,4.03151675 C0.926060323,3.76875602 1.13766839,3.62189158 1.41453306,3.62633924 C3.78050788,3.6643471 4.09277009,2.810381 5.18157611,1.61324324 C5.35291393,1.42485801 5.80915883,1.30759466 6.02784779,1.5880512 C6.24653676,1.86850774 6.27055471,2.20322305 5.9512085,2.57473829 C4.52415992,4.23491235 3.24570183,4.38693819 1.41740171,4.38451795 Z" id="Path-310" transform="translate(3.563954, 2.902740) scale(1, -1) rotate(-12.000000) translate(-3.563954, -2.902740) "></path>
                </g>
                <path d="M14,0.504728629 C14.3650553,3.71539161 15.0112796,5.38004107 15.9386728,5.49867701 C16.7435121,5.60163534 17.3962243,4.39084474 17.8968094,1.86630519 C17.9202406,1.74813743 16.6213041,1.29427858 14,0.504728629 Z" id="Path-505" fill="#DCE9E6" transform="translate(15.948560, 3.004729) scale(1, -1) translate(-15.948560, -3.004729) "></path>
                <path d="M2.08370665,0.504728629 C2.44876198,3.71539161 3.09498624,5.38004107 4.02237945,5.49867701 C4.83759218,5.60296235 5.49673102,4.35941527 5.99979599,1.76803577 C6.01877605,1.67026601 4.71341294,1.24916363 2.08370665,0.504728629 Z" id="Path-505" fill="#DCE9E6" transform="translate(4.041853, 3.004729) scale(-1, -1) translate(-4.041853, -3.004729) "></path>
                <path d="M0.696051778,3.66247559 C0.496095045,3.47202371 0.428688751,3.22754462 0.619140625,3.02758789 C0.809592499,2.82763116 1.06048028,2.99619363 1.26043701,3.18664551 C3.1718389,5.00718973 6.18204435,5.68093146 9.83966064,5.50476074 C12.3773561,5.38253151 13.823379,4.82346026 15.2991333,4.30725098 C16.3336792,3.94537354 17.5713898,3.38926717 18.4782715,2.90641276 C20.0709437,2.05842037 21.4341646,2.06063566 22.0758667,2.12420654 C22.3506639,2.15142962 22.2152927,2.10272556 22.1880697,2.37752279 C22.1608466,2.65232001 21.8327806,2.58325335 21.5579834,2.55603027 C20.9347726,2.49429125 19.4378255,3.20166016 18.0751139,4.06974284 C16.0740921,5.34444572 13.4105632,6.5226237 9.71476237,6.57779948 C5.71018808,6.63758504 2.8215965,5.68698345 0.696051778,3.66247559 Z" id="Path-321" fill="#6E3A0C" fill-rule="nonzero"></path>
            </g>
        </g>
    </g>
</svg>