<svg height="48" viewBox="0 0 49 48" width="49" xmlns="http://www.w3.org/2000/svg"><g fill="none" fill-rule="evenodd" transform="translate(12 14)"><path d="m.02356254 11.4655013c.00366211.610026.26029459.915039.76989746.915039.76440429 0 7.78540039.1256104 10.7270508-1.147583.4121698-.1783937.9144287-.3328857 1.1016845-.1234131.1872559.2094727 2.7939454 1.883667 4.5181275.2726441.1152954.9060669 2.2720337 5.6210327 6.0852661 5.0886841.7682947-.1072583 1.1685429-.5256746 1.2007446-1.2552491-.1474202-.3146565-.3843994-.4719848-.7109375-.4719848-.4898071 0-1.9509277-1.0017701-1.9509277-1.9742432s-.3608398-2.4469604-.824646-3.16015624c-.1966701-.30242007-.1969604-.45605469 0-.45605469.1969605 0 3.0182495-.32330322 3.8641357-3.5232544.5639242-2.13330078.4380494-3.84865315-.3776245-5.14605713-.3013102-.37288411-.5382894-.53025309-.7109375-.47210693-.2589721.08721924-.6085815.39068604-.6085815.82885742 0 .43817139.1010132 1.90045166-.7473145 2.69787598-.5655517.53161621-1.3539021.86916097-2.3650512 1.01263428-1.7307129.01029459-2.8495891.60312907-3.3566285 1.77850341-.453125-.34191894-2.020874-1.04492187-3.0824584-.52246093-.707723.34830729-1.1527914.79579671-1.3352051 1.34246826-.2346192.22949219-.4416504.28686523-.6210938.17211914-.269165-.17211914-2.93743894-.71466065-4.45666502-.85339356-1.01281738-.0924886-2.89923095-.0924886-5.65924072 0-.67260742.02246094-1.09946696.52168783-1.28057861 1.49768067s-.24078369 2.14247642-.17901611 3.49945072z" fill="#c71d1c"/><g fill="#fff"><circle cx="7.899295" cy="10.022996" r="1"/><circle cx="9.899295" cy="8.022996" r="1"/><circle cx="12.899295" cy="9.022996" r="1"/><circle cx="14.899295" cy="7.022996" r="1"/><circle cx="15.899295" cy="10.022996" r="1"/><circle cx="18.899295" cy="9.022996" r="1"/><circle cx="19.899295" cy="12.022996" r="1"/><circle cx="21.899295" cy="15.022996" r="1"/><circle cx="19.899295" cy="6.022996" r="1"/><circle cx="21.899295" cy="7.022996" r="1"/><circle cx="23.899295" cy="4.022996" r="1"/><circle cx="4.899295" cy="8.022996" r="1"/><circle cx="1.899295" cy="11.022996" r="1"/><circle cx=".899295" cy="8.022996" r="1"/></g></g></svg>