<?xml version="1.0" encoding="UTF-8"?>
<svg width="48px" height="48px" viewBox="0 0 48 48" version="1.1" xmlns="http://www.w3.org/2000/svg" xmlns:xlink="http://www.w3.org/1999/xlink">
    <!-- Generator: Sketch 59 (86127) - https://sketch.com -->
    <title>18_mouthexpression-LipstickSmile</title>
    <desc>Created with Sketch.</desc>
    <g id="SVGs" stroke="none" stroke-width="1" fill="none" fill-rule="evenodd">
        <g id="Slices" transform="translate(-994.000000, -889.000000)"></g>
        <g id="Group-191" transform="translate(10.091187, 18.557365)">
            <path d="M9.41359931,6.72718127 L12.1822626,5.2133565 C12.3412575,5.12639222 12.5348606,5.13229061 12.6882808,5.22874998 C13.2182133,5.56193269 13.7197924,5.72852404 14.1930183,5.72852404 C14.6492312,5.72852404 15.0919727,5.57369554 15.5212427,5.26403853 C15.6800261,5.14943459 15.891095,5.13811502 16.0612506,5.23503407 L18.6809333,6.72718127 L18.6809333,6.72718127 C17.3179628,7.17526069 15.8397404,7.39930041 14.246266,7.39930041 C12.6527916,7.39930041 11.0419027,7.17526069 9.41359931,6.72718127 Z" id="Path-507" fill="#C86D57"></path>
            <path d="M1.38029127,3.94066202 C1.10333724,3.94440765 1.00872321,3.89084015 0.999807741,3.74439903 C0.990892275,3.59795792 1.12523392,3.58853317 1.40107523,3.57564198 C2.92739319,3.50431089 4.22768037,2.72049999 5.48336485,1.61426674 C5.68502214,1.43661064 6.01427973,1.17870395 6.18001931,1.36724526 C6.34575888,1.55578656 5.76626503,2.33252181 5.37578177,2.64857378 C3.99303703,3.76774903 2.87764319,3.92041128 1.38029127,3.94066202 Z" id="Path-310" fill="#6E3A0C" fill-rule="nonzero" transform="translate(3.604249, 2.621078) scale(-1, -1) rotate(18.000000) translate(-3.604249, -2.621078) "></path>
            <path d="M22.3802913,3.94066202 C22.1033372,3.94440765 22.0087232,3.89084015 21.9998077,3.74439903 C21.9908923,3.59795792 22.1252339,3.58853317 22.4010752,3.57564198 C23.9273932,3.50431089 25.2276804,2.72049999 26.4833648,1.61426674 C26.6850221,1.43661064 27.0142797,1.17870395 27.1800193,1.36724526 C27.3457589,1.55578656 26.766265,2.33252181 26.3757818,2.64857378 C24.993037,3.76774903 23.8776432,3.92041128 22.3802913,3.94066202 Z" id="Path-310" fill="#6E3A0C" fill-rule="nonzero" transform="translate(24.604249, 2.621078) scale(1, -1) rotate(18.000000) translate(-24.604249, -2.621078) "></path>
            <path d="M14.0857626,11.4224938 C16.2949016,11.4224938 18.1088867,9.68642301 18.1088867,7.75342638 C18.1088867,7.50479587 18.1468511,7.26222043 18.0905151,7.02825581 C17.1784668,7.17969592 15.9598409,7.57190783 14.0348511,7.57190783 C12.1213172,7.57190783 11.0407715,7.42578967 10.0629272,7 C10.0020846,7.24267064 10,7.49477193 10,7.75342638 C10,9.68642301 11.8766236,11.4224938 14.0857626,11.4224938 Z" id="Oval" fill="#C86D57"></path>
            <path d="M3.40158691,2.46451037 C3.31793759,2.36027253 3.60762552,2.25049425 3.76297909,2.44408482 C6.18677051,5.46444134 9.42939453,7.18426444 14.0652588,7.20357287 C18.701123,7.2228813 21.9879801,5.46250574 24.4999169,2.43845682 C24.658936,2.24701829 24.961674,2.33022556 24.8626221,2.44947131 C22.1621566,5.70048453 19.512915,7.84937365 14.0861572,7.84937365 C8.65939941,7.84937365 6.01344003,5.71921599 3.40158691,2.46451037 Z" id="Path-311" fill="#6E3A0C" fill-rule="nonzero"></path>
        </g>
    </g>
</svg>