<?xml version="1.0" encoding="UTF-8"?>
<svg width="48px" height="48px" viewBox="0 0 48 48" version="1.1" xmlns="http://www.w3.org/2000/svg" xmlns:xlink="http://www.w3.org/1999/xlink">
    <!-- Generator: Sketch 59 (86127) - https://sketch.com -->
    <title>19_mouthexpression-Goofy</title>
    <desc>Created with Sketch.</desc>
    <g id="SVGs" stroke="none" stroke-width="1" fill="none" fill-rule="evenodd">
        <g id="Slices" transform="translate(-937.000000, -889.000000)"></g>
        <g id="Group-161" transform="translate(24.500000, 24.000000) scale(-1, 1) translate(-24.500000, -24.000000) translate(11.000000, 18.000000)">
            <g id="Group-153" transform="translate(20.000000, 0.000000)" fill="#6E3A0C" fill-rule="nonzero">
                <path d="M1.42028809,3.08740234 C1.14444678,3.10029354 0.949829102,2.99716187 0.9393879,2.73440114 C0.928946698,2.47164042 1.14157812,2.34211483 1.41741943,2.32922363 C2.94373739,2.25789255 4.16836893,1.53113399 5.38653564,0.545166016 C5.60118028,0.371435498 6.04644775,0.367004395 6.26513672,0.647460938 C6.48382568,0.92791748 6.41300889,1.31308589 6.19836426,1.48681641 C4.81561951,2.60599166 3.16073445,3.00606416 1.42028809,3.08740234 Z" id="Path-310" transform="translate(3.668648, 1.756234) scale(1, -1) rotate(-1.000000) translate(-3.668648, -1.756234) "></path>
            </g>
            <path d="M8.76344185,10.8191374 C10.2452961,10.639177 11.3797816,8.84636279 11.3797816,7.39835614 C11.3797816,5.66698353 9.94914541,3.72051216 7.11043286,3.19655356 C6.40437033,3.8209295 4.24755698,5.14330021 1.07955355,6.12024375 C2.23372321,6.66063878 4.20850736,7.09681266 4.97206471,8.01074356 C5.62885525,8.79688118 5.78530679,9.5920038 6.20477218,10.0603819 C6.72455903,10.6407797 7.53502374,10.9683199 8.76344185,10.8191374 Z" id="Combined-Shape" fill="#DF87AF" fill-rule="nonzero" transform="translate(6.229668, 7.025806) scale(-1, 1) rotate(11.000000) translate(-6.229668, -7.025806) "></path>
            <path d="M7.18404408,4.95983887 C5.4231152,5.78971498 4.33295858,6.55616396 3.91357422,7.25918579 C3.8427187,7.37796222 3.77065511,7.6260398 3.63894653,7.58596802 C3.49591064,7.54244995 3.5614568,7.35002053 3.59423828,7.17169189 C3.74483567,6.35245415 4.39636685,5.29604446 5.65423584,4.43927002 C6.675354,3.74375407 7.18529009,3.91727702 7.18404408,4.95983887 Z" id="Path-506" fill="#CA7B9F"></path>
            <path d="M2.69104004,2.51989746 C2.49108331,2.32944559 1.88205789,1.61707099 2.07250977,1.41711426 C2.26296164,1.21715753 2.43693827,1.40512417 2.636895,1.59557605 C4.54829689,3.41612027 8.18204435,4.68093146 11.8396606,4.50476074 C14.3773561,4.38253151 15.823379,3.82346026 17.2991333,3.30725098 C18.3336792,2.94537354 19.5171295,2.46289591 20.4240112,1.9800415 C22.0166834,1.13204911 23.4341646,1.06063566 24.0758667,1.12420654 C24.3506639,1.15142962 24.8858715,1.54610096 24.8586484,1.82089818 C24.8314253,2.09569541 24.5865895,2.29639391 24.3117922,2.26917084 C23.6885815,2.20743181 22.2111447,2.34479485 20.8377075,3.08007812 C18.5016898,4.33068848 15.4705235,5.42233738 11.8603883,5.54342018 C7.89744999,5.6763359 4.81658476,4.54440532 2.69104004,2.51989746 Z" id="Path-321" fill="#6E3A0C" fill-rule="nonzero"></path>
        </g>
    </g>
</svg>