<?xml version="1.0" encoding="UTF-8"?>
<svg width="49px" height="48px" viewBox="0 0 49 48" version="1.1" xmlns="http://www.w3.org/2000/svg" xmlns:xlink="http://www.w3.org/1999/xlink">
    <!-- Generator: Sketch 59 (86127) - https://sketch.com -->
    <title>19_Misc_Freckles</title>
    <desc>Created with Sketch.</desc>
    <g id="SVGs" stroke="none" stroke-width="1" fill="none" fill-rule="evenodd">
        <g id="Slices" transform="translate(-1071.000000, -532.000000)"></g>
        <g id="Group-192" transform="translate(14.000000, 15.000000)" fill-rule="nonzero">
            <g id="Group-99">
                <g id="Group-3">
                    <path d="M11.0527344,18.6905749 C17.0304046,18.6905749 21.8762638,15.9241227 21.8762638,11.2446289 C21.8762638,9.88300997 21.4659801,8.50945195 20.7369121,7.2461868 C21.246288,5.26889121 21.856191,1.33232737 20.5998911,0.482157939 C18.9162679,-0.657191827 15.9446888,1.95731828 15.1080784,2.50838018 C13.8556153,2.02204509 12.4867422,1.74462891 11.0527344,1.74462891 C9.6440649,1.74462891 8.29824874,2.01232803 7.06389068,2.48279618 C6.15448836,1.960954 3.49530494,-0.367873007 1.81367625,0.362680796 C0.0466862526,1.13031831 1.03440126,5.78021075 1.42795671,7.14469536 C0.661811341,8.43570052 0.229204963,9.84645904 0.229204963,11.2446289 C0.229204963,15.9241227 5.07506414,18.6905749 11.0527344,18.6905749 Z" id="Oval-2" fill="#DDDDDD"></path>
                    <path d="M12.2324568,14.3328395 C12.2324568,13.7059217 11.7207822,13.1977044 11.0895996,13.1977044 C10.458417,13.1977044 9.94674247,13.7059217 9.94674247,14.3328395 C9.94674247,14.9597573 12.2324568,14.9597573 12.2324568,14.3328395 Z" id="Oval-4" fill="#4A4A4A"></path>
                </g>
            </g>
            <g id="19_Misc_Freckles" transform="translate(1.000000, 11.000000)" fill="#8D5548">
                <path d="M4.88558817,1.31481405 C5.08904987,1.31481405 5.25398817,1.20736239 5.25398817,1.07481405 C5.25398817,0.942265715 5.08904987,0.834814055 4.88558817,0.834814055 C4.68212647,0.834814055 4.51718817,0.942265715 4.51718817,1.07481405 C4.51718817,1.20736239 4.68212647,1.31481405 4.88558817,1.31481405 Z" id="Oval" transform="translate(4.885588, 1.074814) rotate(-18.010000) translate(-4.885588, -1.074814) "></path>
                <path d="M7.20214551,2.32116881 C7.47652057,2.32116881 7.69894551,2.17019922 7.69894551,1.98396881 C7.69894551,1.79773839 7.47652057,1.64676881 7.20214551,1.64676881 C6.92777045,1.64676881 6.70534551,1.79773839 6.70534551,1.98396881 C6.70534551,2.17019922 6.92777045,2.32116881 7.20214551,2.32116881 Z" id="Oval" transform="translate(7.202146, 1.983969) rotate(-15.900000) translate(-7.202146, -1.983969) "></path>
                <path d="M3.61053749,2.89605846 C3.88491256,2.89605846 4.10733749,2.74508888 4.10733749,2.55885846 C4.10733749,2.37262805 3.88491256,2.22165846 3.61053749,2.22165846 C3.33616243,2.22165846 3.11373749,2.37262805 3.11373749,2.55885846 C3.11373749,2.74508888 3.33616243,2.89605846 3.61053749,2.89605846 Z" id="Oval" transform="translate(3.610537, 2.558858) rotate(-8.690000) translate(-3.610537, -2.558858) "></path>
                <path d="M5.22081036,3.63092058 C5.42427206,3.63092058 5.58921036,3.52346892 5.58921036,3.39092058 C5.58921036,3.25837224 5.42427206,3.15092058 5.22081036,3.15092058 C5.01734866,3.15092058 4.85241036,3.25837224 4.85241036,3.39092058 C4.85241036,3.52346892 5.01734866,3.63092058 5.22081036,3.63092058 Z" id="Oval" transform="translate(5.220810, 3.390921) rotate(-18.010000) translate(-5.220810, -3.390921) "></path>
                <path d="M14.222899,4.1082878 C14.3508082,4.1082878 14.454499,3.94872209 14.454499,3.7518878 C14.454499,3.55505352 14.3508082,3.3954878 14.222899,3.3954878 C14.0949899,3.3954878 13.991299,3.55505352 13.991299,3.7518878 C13.991299,3.94872209 14.0949899,4.1082878 14.222899,4.1082878 Z" id="Oval" transform="translate(14.222899, 3.751888) rotate(-71.990000) translate(-14.222899, -3.751888) "></path>
                <path d="M13.3377864,3.0366555 C13.5180522,3.0366555 13.6641864,2.82121492 13.6641864,2.5554555 C13.6641864,2.28969608 13.5180522,2.0742555 13.3377864,2.0742555 C13.1575207,2.0742555 13.0113864,2.28969608 13.0113864,2.5554555 C13.0113864,2.82121492 13.1575207,3.0366555 13.3377864,3.0366555 Z" id="Oval" transform="translate(13.337786, 2.555456) rotate(-74.100000) translate(-13.337786, -2.555456) "></path>
                <path d="M17.517699,4.3578878 C17.6979648,4.3578878 17.844099,4.14244723 17.844099,3.8766878 C17.844099,3.61092838 17.6979648,3.3954878 17.517699,3.3954878 C17.3374333,3.3954878 17.191299,3.61092838 17.191299,3.8766878 C17.191299,4.14244723 17.3374333,4.3578878 17.517699,4.3578878 Z" id="Oval" transform="translate(17.517699, 3.876688) rotate(-81.310000) translate(-17.517699, -3.876688) "></path>
                <path d="M15.9684553,3.74825143 C16.0870861,3.74825143 16.1832553,3.60641524 16.1832553,3.43145143 C16.1832553,3.25648762 16.0870861,3.11465143 15.9684553,3.11465143 C15.8498245,3.11465143 15.7536553,3.25648762 15.7536553,3.43145143 C15.7536553,3.60641524 15.8498245,3.74825143 15.9684553,3.74825143 Z" id="Oval" transform="translate(15.968455, 3.431451) rotate(-74.100000) translate(-15.968455, -3.431451) "></path>
                <path d="M15.3318607,2.21610386 C15.4597698,2.21610386 15.5634607,2.05653814 15.5634607,1.85970386 C15.5634607,1.66286958 15.4597698,1.50330386 15.3318607,1.50330386 C15.2039515,1.50330386 15.1002607,1.66286958 15.1002607,1.85970386 C15.1002607,2.05653814 15.2039515,2.21610386 15.3318607,2.21610386 Z" id="Oval" transform="translate(15.331861, 1.859704) rotate(-71.990000) translate(-15.331861, -1.859704) "></path>
                <path d="M2.44483942,4.00207617 C2.57738776,4.00207617 2.68483942,3.83713788 2.68483942,3.63367617 C2.68483942,3.43021447 2.57738776,3.26527617 2.44483942,3.26527617 C2.31229108,3.26527617 2.20483942,3.43021447 2.20483942,3.63367617 C2.20483942,3.83713788 2.31229108,4.00207617 2.44483942,4.00207617 Z" id="Oval" transform="translate(2.444839, 3.633676) rotate(-86.300000) translate(-2.444839, -3.633676) "></path>
                <path d="M1.51388631,2.72052408 C1.63649353,2.72052408 1.73588631,2.57385257 1.73588631,2.39292408 C1.73588631,2.2119956 1.63649353,2.06532408 1.51388631,2.06532408 C1.3912791,2.06532408 1.29188631,2.2119956 1.29188631,2.39292408 C1.29188631,2.57385257 1.3912791,2.72052408 1.51388631,2.72052408 Z" id="Oval" transform="translate(1.513886, 2.392924) rotate(-84.190000) translate(-1.513886, -2.392924) "></path>
                <path d="M18.5055647,2.89815377 C18.6241954,2.89815377 18.7203647,2.75631758 18.7203647,2.58135377 C18.7203647,2.40638996 18.6241954,2.26455377 18.5055647,2.26455377 C18.3869339,2.26455377 18.2907647,2.40638996 18.2907647,2.58135377 C18.2907647,2.75631758 18.3869339,2.89815377 18.5055647,2.89815377 Z" id="Oval" transform="translate(18.505565, 2.581354) rotate(-74.100000) translate(-18.505565, -2.581354) "></path>
            </g>
        </g>
    </g>
</svg>