<?xml version="1.0" encoding="UTF-8"?>
<svg width="48px" height="48px" viewBox="0 0 48 48" version="1.1" xmlns="http://www.w3.org/2000/svg" xmlns:xlink="http://www.w3.org/1999/xlink">
    <!-- Generator: Sketch 59 (86127) - https://sketch.com -->
    <title>28_Hair_BraidedBun</title>
    <desc>Created with Sketch.</desc>
    <g id="SVGs" stroke="none" stroke-width="1" fill="none" fill-rule="evenodd">
        <g id="Slices" transform="translate(-823.000000, -650.000000)"></g>
        <g id="Group-155" transform="translate(13.000000, 10.000000)">
            <g id="Group-63">
                <path d="M11.5,11 C14.0314747,11 15.8968805,9.34341309 16.5527954,7.02410889 C16.6839257,6.56043456 17.0680542,6.04408576 17.0680542,5.53799438 C17.0680542,5.10699463 16.6775166,4.9673817 16.6346436,4.69067383 C16.5994885,4.46377907 17.0525208,3.83627319 16.7978516,3.37869263 C16.5431824,2.92111206 15.9328512,2.86203901 15.8244019,2.69552612 C15.7150122,2.52756958 15.8843437,2.1727568 15.7577747,2.01816488 C15.5651196,1.7828552 15.2156067,1.87350464 14.9879761,1.70019531 C14.7603455,1.52688599 14.9050143,1.16954096 14.6529292,0.992869445 C13.7601595,0.367180107 12.6606304,0.263793945 11.4876709,0.263793945 C10.3136847,0.263793945 9.23793729,0.367823173 8.34472697,0.994513036 C8.15099011,1.13044174 8.16464639,1.44837008 7.99035645,1.60754395 C7.79172134,1.78895154 7.46789551,1.6156311 7.2494812,1.93582153 C7.03106689,2.25601196 7.28222372,2.433627 7.17895508,2.59020996 C7.05866382,2.77260378 6.39285278,2.98828125 6.24008179,3.50180054 C6.08731079,4.01531982 6.3374199,4.53748133 6.30480957,4.77929688 C6.27208357,5.02197014 5.92932129,5.08035278 5.93100024,5.56576538 C5.93284961,6.06739624 6.40713449,6.55423309 6.53686523,7.01300049 C7.19269871,9.3322272 8.96406788,11 11.5,11 Z" id="Oval" fill="#D0A573"></path>
                <g id="Group-3" transform="translate(0.000000, 5.000000)" fill-rule="nonzero">
                    <path d="M11.5559872,18.4928705 C17.5336574,18.4928705 22.3795166,15.7264183 22.3795166,11.0469245 C22.3795166,9.68530558 21.969233,8.31174756 21.2401649,7.04848241 C21.7495408,5.07118682 22.3594438,1.13462298 21.1031439,0.284453549 C19.4195208,-0.854896218 16.4479416,1.75961389 15.6113312,2.31067579 C14.3588681,1.8243407 12.989995,1.54692452 11.5559872,1.54692452 C10.1473177,1.54692452 8.80150155,1.81462364 7.5671435,2.28509179 C6.65774117,1.76324961 3.99855776,-0.565577397 2.31692907,0.164976405 C0.549939067,0.932613916 1.53765408,5.58250636 1.93120952,6.94699097 C1.16506416,8.23799612 0.732457778,9.64875465 0.732457778,11.0469245 C0.732457778,15.7264183 5.57831696,18.4928705 11.5559872,18.4928705 Z" id="Oval-2" fill="#000000"></path>
                    <path d="M11.5559872,18.2159288 C16.9643555,18.2159288 21.3487043,15.227127 21.3487043,11.5402532 C21.3487043,9.22004977 19.6123408,7.16613286 16.9771144,6.7236404 C15.4248858,6.46299886 13.5607906,7.43214506 11.5559872,7.43214506 C9.56341454,7.43214506 7.70983845,6.46229478 6.1633039,6.7188927 C3.51213532,7.15876928 1.7632701,9.21171209 1.7632701,11.5402532 C1.7632701,15.227127 6.14761888,18.2159288 11.5559872,18.2159288 Z" id="Oval-2" fill="#9B9B9B"></path>
                </g>
            </g>
            <g id="Group-153" transform="translate(1.000000, 6.000000)" stroke="#F6D5AE" stroke-linecap="round">
                <line x1="10.2481689" y1="0.181152344" x2="10.2481689" y2="4.53527832" id="Path-306"></line>
                <path d="M7.24816895,0.556762695 C7.22975748,1.50994492 7.23785481,2.23032252 7.27246094,2.71789551 C7.30706707,3.20546849 7.3924756,3.80251439 7.52868652,4.5090332" id="Path-306"></path>
                <path d="M3.74816895,2.10266113 C4.00972493,3.11381022 4.40991211,3.92468262 4.94873047,4.53527832" id="Path-308"></path>
                <path d="M1.96862793,4.1776123 C2.12674967,4.63675944 2.40022786,5.08931478 2.7890625,5.53527832" id="Path-310"></path>
                <path d="M0.301269531,6.19824219 C0.373697917,6.32421875 0.513387044,6.49043783 0.720336914,6.69689941" id="Path-312"></path>
                <path d="M12.9102254,0.556762695 C12.8918139,1.50994492 12.8999113,2.23032252 12.9345174,2.71789551 C12.9691235,3.20546849 13.0545321,3.80251439 13.190743,4.5090332" id="Path-306" transform="translate(13.045689, 2.532898) scale(-1, 1) translate(-13.045689, -2.532898) "></path>
                <path d="M15.4805908,2.10266113 C15.7421468,3.11381022 16.142334,3.92468262 16.6811523,4.53527832" id="Path-308" transform="translate(16.080872, 3.318970) scale(-1, 1) translate(-16.080872, -3.318970) "></path>
                <path d="M17.6402588,4.1776123 C17.7983805,4.63675944 18.0718587,5.08931478 18.4606934,5.53527832" id="Path-310" transform="translate(18.050476, 4.856445) scale(-1, 1) translate(-18.050476, -4.856445) "></path>
                <path d="M19.7089844,6.19824219 C19.7814128,6.32421875 19.9211019,6.49043783 20.1280518,6.69689941" id="Path-312" transform="translate(19.918518, 6.447571) scale(-1, 1) translate(-19.918518, -6.447571) "></path>
            </g>
        </g>
    </g>
</svg>