<?xml version="1.0" encoding="UTF-8"?>
<svg width="48px" height="48px" viewBox="0 0 48 48" version="1.1" xmlns="http://www.w3.org/2000/svg" xmlns:xlink="http://www.w3.org/1999/xlink">
    <!-- Generator: Sketch 59 (86127) - https://sketch.com -->
    <title>29_Hair_AfroBun</title>
    <desc>Created with Sketch.</desc>
    <g id="SVGs" stroke="none" stroke-width="1" fill="none" fill-rule="evenodd">
        <g id="Slices" transform="translate(-768.000000, -709.000000)"></g>
        <g id="Group-63" transform="translate(12.000000, 10.000000)">
            <circle id="Oval" fill="#F6D5AE" cx="11.5" cy="5.5" r="5.5"></circle>
            <g id="Group-3" transform="translate(0.000000, 5.000000)" fill-rule="nonzero">
                <path d="M11.5559872,18.4928705 C17.5336574,18.4928705 22.3795166,15.7264183 22.3795166,11.0469245 C22.3795166,9.68530558 21.969233,8.31174756 21.2401649,7.04848241 C21.7495408,5.07118682 22.3594438,1.13462298 21.1031439,0.284453549 C19.4195208,-0.854896218 16.4479416,1.75961389 15.6113312,2.31067579 C14.3588681,1.8243407 12.989995,1.54692452 11.5559872,1.54692452 C10.1473177,1.54692452 8.80150155,1.81462364 7.5671435,2.28509179 C6.65774117,1.76324961 3.99855776,-0.565577397 2.31692907,0.164976405 C0.549939067,0.932613916 1.53765408,5.58250636 1.93120952,6.94699097 C1.16506416,8.23799612 0.732457778,9.64875465 0.732457778,11.0469245 C0.732457778,15.7264183 5.57831696,18.4928705 11.5559872,18.4928705 Z" id="Oval-2" fill="#000000"></path>
                <path d="M11.5559872,18.2159288 C16.9643555,18.2159288 21.3487043,15.227127 21.3487043,11.5402532 C21.3487043,9.22004977 19.6123408,7.16613286 16.9771144,6.7236404 C15.4248858,6.46299886 13.5607906,7.43214506 11.5559872,7.43214506 C9.56341454,7.43214506 7.70983845,6.46229478 6.1633039,6.7188927 C3.51213532,7.15876928 1.7632701,9.21171209 1.7632701,11.5402532 C1.7632701,15.227127 6.14761888,18.2159288 11.5559872,18.2159288 Z" id="Oval-2" fill="#9B9B9B"></path>
            </g>
            <path d="M0.766727223,15.4941668 C0.849115239,14.791301 0.942454747,14.2600626 1.04674575,13.9004517 C2.44424086,9.08167969 6.09971349,6.37158203 11.4659783,6.37158203 C16.8322431,6.37158203 20.6377821,9.01740381 22.1033792,13.9004517 C22.2055783,14.2409568 22.2912382,14.7721951 22.3603587,15.4941668 C21.4969901,13.1451071 19.8377847,11.6285237 17.3827425,10.9444166 C16.8554078,10.7974727 14.092374,10.3692099 11.4051107,10.3673503 C8.86469019,10.3655923 6.39380668,10.7823405 5.88212316,10.9163154 C3.34332156,11.5810536 1.63818958,13.1070041 0.766727223,15.4941668 Z" id="Path-122" fill="#D0A573" fill-rule="nonzero"></path>
        </g>
    </g>
</svg>