<?xml version="1.0" encoding="UTF-8"?>
<svg width="49px" height="49px" viewBox="0 0 49 49" version="1.1" xmlns="http://www.w3.org/2000/svg" xmlns:xlink="http://www.w3.org/1999/xlink">
    <!-- Generator: Sketch 59 (86127) - https://sketch.com -->
    <title>30_Footwear_French</title>
    <desc>Created with Sketch.</desc>
    <g id="SVGs" stroke="none" stroke-width="1" fill="none" fill-rule="evenodd">
        <g id="Slices" transform="translate(-1384.000000, -470.000000)"></g>
        <g id="Group-171" transform="translate(12.000000, 17.000000)">
            <g id="Group-86" fill-rule="nonzero">
                <path d="M1.05225589,10.0439367 L7.1788507,10.1433058 L11.3773937,10.9432373 L24.4280396,10.8530884 C25.1469854,9.51192628 25.2544276,8.39423015 24.7503662,7.5 C24.6043598,7.24097735 24.2389362,7.00378326 23.750954,6.79051536 C24.0004883,6.52535673 24.0963006,6.01367188 23.750954,5.68536377 C23.4056074,5.35705566 21.8713989,5.9352417 20.9259033,5.80938721 C19.8935352,5.67196915 17.2822266,5.0435791 16.2164307,4.81771375 C15.378942,4.64023166 13.424649,3.90602906 12.6347847,3.50469971 C11.9784871,3.17123541 11.4237342,2.75618584 10.717041,2 C10.3286133,1.58436909 10.2381714,0.914316092 9.92272949,0.782104492 C9.60746427,0.649966953 9.18415533,0.760184164 8.96704102,1.0645752 C8.75571594,1.3608498 8.74633789,1.84765905 8.74633789,2 C8.74633789,2.14205193 8.89395583,2.92541762 9.52203369,3.50469971 C10.2757088,4.19982133 12.121521,4.81771375 12.6347847,5.00457764 C12.747878,5.30286254 10.9077592,5.29347562 10.3286133,5.25634766 C8.92431641,5.1663208 8.43762207,4.12200928 8.10381995,3.85162354 C7.82358742,3.62463013 7.34157292,3.72718408 7.1788507,3.85162354 C6.72675573,4.19735663 5.43622463,4.30761719 4.59874185,4.30761719 C3.57071506,4.30761719 2.81806095,3.99220781 2.34077952,3.36138905 C2.19695164,3.09071855 1.96891622,2.9553833 1.65667325,2.9553833 C0.743041992,2.9553833 0.207580566,5.87237298 0.207580566,7.34832764 C0.207580566,8.33229741 0.489139006,9.23083375 1.05225589,10.0439367 Z" id="Path-165" fill="#055878"></path>
                <path d="M1,10 L1,11.4710693 C1,12.0233541 1.44771525,12.4710693 2,12.4710693 L6.29107666,12.4710693 C6.84336141,12.4710693 7.29107666,12.0233541 7.29107666,11.4710693 L7.29107666,11.2683105 L7.29107666,11.2683105 C8.14862061,11.4884033 9.49818929,11.8758952 11.3397827,12.4307861 C12.4428341,12.4346985 16.6987161,12.4348491 24.1074288,12.431238 C24.6073639,12.4310073 25.0125122,12.0256615 25.0125122,11.5257263 C25.0125122,11.0258756 24.6073031,10.6206665 24.1074524,10.6206665 L11.2988254,10.6206665 L11.2988254,10.6206665 L7.31076279,10.032142 C7.16575361,10.0107428 7.01937108,10 6.87279144,10 L1,10 L1,10 Z" id="Path-174" fill="#9B9B9B"></path>
            </g>
            <path d="M1.92315674,4.25701904 C2.21409098,4.69370524 2.65901693,5.01212565 3.25793457,5.21228027" id="Path-436" stroke="#E67D2E" stroke-linecap="round"></path>
            <path d="M5.4675293,5.34136963 C6.30192057,5.36342367 6.92797852,5.24255371 7.34570312,4.97875977" id="Path-437" stroke="#E67D2E" stroke-linecap="round"></path>
            <path d="M10.8929443,3.57806396 C10.4094238,4.24460111 10.0722046,4.93902674 9.88128662,5.66134085" id="Path-438" stroke="#E67D2E" stroke-linecap="round"></path>
            <path d="M16.8178711,3.03991699 C15.21521,3.10765771 14.0364176,3.38789045 13.2814941,3.88061523" id="Path-439" stroke="#E67D2E" stroke-linecap="round"></path>
            <path d="M14.5569458,3.2711792 C14.409729,2.52581787 14.1160278,2.18819173 13.6758423,2.25830078 C13.2356567,2.32840983 13.0124613,2.76833089 13.0062561,3.57806396 C13.0126241,4.95635986 13.3368327,5.88238525 13.9788818,6.35614014 C14.1740939,6.50018311 14.7446289,6.50894946 14.7446289,5.83514515 C14.7446289,5.38594228 14.5252889,4.63358189 14.0866089,3.57806396" id="Path-440" stroke="#E67D2E"></path>
        </g>
    </g>
</svg>