<?xml version="1.0" encoding="UTF-8"?>
<svg width="48px" height="48px" viewBox="0 0 48 48" version="1.1" xmlns="http://www.w3.org/2000/svg" xmlns:xlink="http://www.w3.org/1999/xlink">
    <!-- Generator: Sketch 59 (86127) - https://sketch.com -->
    <title>30_Hair_CurlyLong</title>
    <desc>Created with Sketch.</desc>
    <g id="SVGs" stroke="none" stroke-width="1" fill="none" fill-rule="evenodd">
        <g id="Slices" transform="translate(-823.000000, -709.000000)"></g>
        <g id="Group-140" transform="translate(10.000000, 12.000000)">
            <g id="Group-59" transform="translate(2.240220, 2.921287)">
                <path d="M3.14190674,15 C2.95269775,16.1913249 2.95269775,16.8966878 3.14190674,17.1160889 C3.42572021,17.4451904 3.68728638,17.6097717 3.8286438,17.8679504 C3.97000122,18.1261292 3.98933995,18.9915612 3.77618408,19.5798645 C3.62615967,19.993927 3.63751221,21.2932129 4.42144775,21.3380127 C5.2053833,21.3828125 5.39361572,20.5459921 5.45928955,20.2322856 C5.52496338,19.9185791 5.82220459,19.7202148 6.05377197,19.6174316 C6.45122159,19.4410202 6.83924242,19.0863605 7.21783447,18.5534526 C7.00209554,19.5773878 7.00209554,20.2010905 7.21783447,20.4245605 C7.54144287,20.7597656 8.26043701,20.7923584 8.43377686,21.0737305 C8.6071167,21.3551025 8.41967773,22.007019 8.92340088,22.4102783 C9.42712402,22.8135376 10.293396,22.9051514 10.5494995,22.2889404 C10.805603,21.6727295 10.8649292,20.5315878 10.8705444,20.2322856 C10.8761597,19.9329834 11.2386475,19.3926392 11.296936,19.0737305 C11.3552246,18.7548218 11.5083618,18.683164 11.5950928,18.8659961 C11.6818237,19.0488281 12.2258911,19.7469482 12.8407593,19.9447632 C12.868042,20.4368286 12.6480713,21.505127 13.3198242,21.8984375 C13.9915771,22.291748 14.7511793,22.0221305 15.0231323,21.5614014 C15.4425049,20.8509216 15.7891846,19.7037964 15.7893066,19.1655273 C15.8952637,19.4005127 16.0753784,19.5990194 16.3296509,19.7610474 C16.1369832,20.6733602 16.2243245,21.3586629 16.5916748,21.8169556 C16.602478,22.3010559 17.098114,22.6737671 17.600708,22.6824951 C18.103302,22.6912231 18.7119141,22.1078491 18.8503418,21.2196045 C19.3419189,20.4981689 19.5626221,19.9824829 19.5675659,19.7610474 C19.5725098,19.5396118 19.8772583,19.4810791 19.8661499,19.7610474 C19.8550415,20.0410156 19.9682617,20.5750122 20.4262695,20.7029419 C20.8842773,20.8308716 21.2592163,20.486084 21.2826538,20.1469116 C21.3060913,19.8077393 21.4368286,18.905184 21.2826538,18.5534526 C21.1798706,18.318965 20.761556,17.4564819 20.02771,15.9660034 L3.14190674,15 Z" id="Path-313" fill="#D0A573"></path>
                <g id="Group-3" transform="translate(0.090909, 0.000000)" fill-rule="nonzero">
                    <path d="M11.6473389,18.5813531 C17.6722634,18.5813531 22.5564298,15.8016643 22.5564298,11.0997806 C22.5564298,9.73164675 22.1429028,8.35151668 21.4080714,7.0822072 C21.9214739,5.09545087 22.5361983,1.14005179 21.2699672,0.28581457 C19.5730348,-0.85898663 16.5779649,1.76803309 15.734741,2.32173165 C14.4723769,1.8330696 13.0926827,1.55432607 11.6473389,1.55432607 C10.2275337,1.55432607 8.87107864,1.82330605 7.62696281,2.29602525 C6.71037154,1.77168621 4.03016691,-0.568283509 2.33524471,0.165765766 C0.554286412,0.937076184 1.54980944,5.60921692 1.946476,6.98023016 C1.17427415,8.27741237 0.738247958,9.69492094 0.738247958,11.0997806 C0.738247958,15.8016643 5.62241432,18.5813531 11.6473389,18.5813531 Z" id="Oval-2" fill="#000000"></path>
                    <path d="M11.6473389,18.3030864 C17.0984611,18.3030864 21.5174687,15.2999841 21.5174687,11.5954697 C21.5174687,9.26416484 19.767379,7.20042057 17.1113209,6.75581093 C15.5468217,6.4939223 13.6679905,7.46770556 11.6473389,7.46770556 C9.63901465,7.46770556 7.77078579,6.49321486 6.21202567,6.75104051 C3.53989924,7.19302176 1.777209,9.25578727 1.777209,11.5954697 C1.777209,15.2999841 6.19621666,18.3030864 11.6473389,18.3030864 Z" id="Oval-2" fill="#9B9B9B"></path>
                </g>
            </g>
            <path d="M9.53471418,6.00704149 C9.98221104,6.37209395 10.039536,6.42745165 10.1630101,7.21095995 C10.2864842,7.99446825 8.91288801,9.17183641 8.14982649,9.44863085 C7.38676496,9.72542528 6.60643049,9.87508348 6.15495344,10.4042583 C5.70347639,10.9334331 6.0387425,11.2602764 6.15495344,11.4186626 C6.27116438,11.5770488 6.60874983,12.2483745 6.15495344,12.8371196 C5.70115705,13.4258647 4.98637434,13.7411113 4.77983137,14.0387187 C4.5732884,14.3363262 4.65654035,14.7791973 4.77983137,15.2120586 C4.90312239,15.6449199 4.44969221,16.4197612 4.6948094,17.0158306 C4.89792088,17.5097516 5.51359602,18.1668315 5.54777571,18.6989971 C5.58195539,19.2311626 5.2104344,20.9639507 4.85258528,21.6862407 C4.49473615,22.4085307 4.10667463,22.4461894 3.83519026,22.2840801 C3.56370588,22.1219707 3.15422102,21.4232402 3.4637303,20.7523418 C3.77323957,20.0814433 4.04612776,19.3993755 4.03984114,19.0985942 C4.03355451,18.797813 3.94682356,18.6094585 3.83519026,18.6062236 C3.72355696,18.6029888 3.66087385,18.8105083 3.67680403,18.9808574 C3.6927342,19.1512065 3.42747541,19.6689067 3.09245344,19.7204204 C2.75743147,19.7719341 2.10655256,19.4926982 2.18864485,18.9808574 C2.27073713,18.4690166 2.12712141,17.9099346 2.0163426,17.763145 C1.90556379,17.6163555 1.76969953,17.9525981 1.73112531,18.094688 C1.6925511,18.2367778 1.56657453,18.3761821 1.35514875,18.2772441 C1.14372297,18.1783061 0.408249338,17.5445171 0.388718088,16.4636455 C0.369186838,15.3827739 0.983810862,14.7749858 1.08140608,14.6706767 C1.17900129,14.5663677 1.1725536,14.1193752 0.869308908,14.0387187 C0.680221994,13.9884258 0.0627903538,13.7066875 0.00462384989,13.0595928 C-0.053542654,12.412498 0.453537424,11.7814556 0.601181467,11.5015483 C0.74882551,11.2216411 0.706650217,10.8458476 0.601181467,10.62252 C0.241400739,9.86069265 0.480759104,8.42287401 1.08140608,7.64339403 C1.88677693,6.59823691 3.37321516,6.57002977 3.83519026,6.58443407 C4.29716535,6.59883837 4.47129865,6.29561571 4.51310774,6.13100389 C4.55491682,5.96639208 4.70311018,5.6513286 5.19371076,5.46419481 C5.68431135,5.27706102 6.79801985,5.849937 7.2472386,5.98885302 C7.69645735,6.12776903 8.01707502,5.93733934 8.31297346,5.84896044 C8.6088719,5.76058153 9.11423008,5.6640251 9.53471418,6.00704149 Z" id="Path-316" fill="#F6D5AE"></path>
            <path d="M10.0215306,5.62056688 C9.99759237,5.43286928 9.82734498,5.21540102 9.5107884,4.9681621 C9.27047265,2.99876106 10.1287897,1.51064257 12.0857396,0.503806629 C13.5830939,-0.266570897 15.1145067,-0.153452407 16.6799779,0.843162097 C16.9479629,1.08160611 17.1724909,1.19728807 17.3535618,1.190208 C17.6251683,1.17958788 20.8014378,-0.363747082 24.4812474,0.503806629 C25.9839565,0.858086064 26.2377,1.95675957 25.2424779,3.79982714 C25.2109023,4.10353807 25.330694,4.29807746 25.6018529,4.3834453 C26.0085911,4.51149706 27.5944066,5.36476854 27.7173314,6.92165331 C27.7992812,7.95957649 27.411769,9.23236294 26.5547947,10.7400127 C26.2794448,11.3296123 26.3420872,11.8017396 26.742722,12.1563945 C27.3436741,12.6883769 27.9322972,13.9841533 27.1363988,15.2680889 C26.9232119,15.6119998 26.7621922,15.8630596 26.9028782,16.0234599 C27.0435643,16.1838603 27.7264866,16.9277568 27.6039891,18.1061016 C27.522324,18.8916647 27.1252293,19.5866924 26.4127049,20.1911846 C26.2481134,20.3926413 26.2105565,20.5479961 26.300034,20.657249 C26.4342503,20.8211284 26.2950902,21.5423198 26.1197362,21.6742778 C25.9443822,21.8062358 25.2855687,21.9674907 24.9800877,21.4048686 C24.6746068,20.8422466 24.2870946,20.8390117 24.1877904,21.0135723 C24.0884862,21.1881328 23.6393895,22.0439678 23.2646336,21.9599224 C22.8898778,21.8758769 22.6650242,21.9363017 22.5514378,20.917564 C22.5071347,20.5202163 22.3063817,20.5277934 22.175034,20.3877788 C22.0436863,20.2477641 22.0450291,19.9918437 22.2435155,19.4154888 C22.4420018,18.8391338 22.8633885,18.5818706 22.980576,18.2767558 C23.0977635,17.9716411 22.952805,17.5466533 22.980576,17.1671367 C23.008347,16.7876201 23.3152318,16.6313701 23.2646336,16.4702373 C23.2140355,16.3091045 23.1013035,16.0874858 22.8762669,15.917564 C22.6512303,15.7476421 21.6928563,15.4521099 21.2102513,14.8544536 C20.7276463,14.2567974 21.0381322,13.6273418 21.0643773,13.2792583 C21.0906224,12.9311748 20.7977147,12.3034892 20.1800999,12.2807231 C19.5624852,12.257957 16.7520604,12.5852886 15.800034,12.0025249 C14.8480076,11.4197612 14.5492405,10.4844585 14.5046849,10.2423931 C14.4601292,10.0003276 14.2081761,9.54640917 13.8748021,9.54079393 C13.541428,9.5351787 11.5629735,9.79000048 10.7123875,9.23549608 C10.1453302,8.86582649 9.74479719,8.41056526 9.5107884,7.86971239 C9.51912987,6.81762906 9.56964664,6.24654345 9.66233869,6.15645555 C9.80137678,6.02132372 10.0613984,5.93316721 10.0215306,5.62056688 Z" id="Path-321" fill="#F6D5AE"></path>
            <path d="M18.4990086,5.04054979 C19.6187596,4.06154589 20.6910863,3.41007697 21.7159886,3.08614305 C22.7123728,2.77122266 24.1668553,3.13606981 24.3049168,4.15773729 C24.4429783,5.17940477 24.508408,6.2808452 24.2807469,7.768333 C24.2523299,7.95400315 23.9752049,8.4457622 23.6367039,8.32363085 C23.298203,8.2014995 23.1215672,8.23915819 23.0492405,7.60915331 C22.9769139,6.97914843 22.5202488,6.62691454 21.9583592,6.57295946 C21.3964696,6.51900438 20.6295018,6.62361864 20.6022191,6.30379442 C20.5343787,5.50852922 19.8333085,5.08744767 18.4990086,5.04054979 Z" id="Path-322" fill="#000000"></path>
        </g>
    </g>
</svg>