<?xml version="1.0" encoding="UTF-8"?>
<svg width="49px" height="49px" viewBox="0 0 49 49" version="1.1" xmlns="http://www.w3.org/2000/svg" xmlns:xlink="http://www.w3.org/1999/xlink">
    <!-- Generator: Sketch 59 (86127) - https://sketch.com -->
    <title>31_footwear_Panda</title>
    <desc>Created with Sketch.</desc>
    <g id="SVGs" stroke="none" stroke-width="1" fill="none" fill-rule="evenodd">
        <g id="Slices" transform="translate(-1327.000000, -470.000000)"></g>
        <g id="Group-48" transform="translate(10.000000, 19.000000)">
            <path d="M1.55688477,10.1604982 C2.26391602,11.4539795 8.84350586,12 13.918457,12 C18.9934082,12 23.3825947,12.0551484 25.1721191,10 C27.348999,7.5 26.3448823,3.1661096 22.8980271,1.3610089 C19.4511719,-0.444091797 13.1305027,1.08262541 12.5755005,1.49365234 C11.9205322,1.97871278 10.2724429,3.10473949 9.14642334,3.31488037 C6.1807251,3.86834717 4.32220917,2.58118884 3.78295898,2.16998291 C3.60436664,2.03379708 3.15715946,2.15621728 2.98278809,2.30761719 C0.349365234,4.59411621 0.830562647,8.83172518 1.55688477,10.1604982 Z" id="Path-123" fill="#343234" fill-rule="nonzero"></path>
            <path d="M20.7097168,8.81494141 C22.1025391,9.49479167 22.8595785,10.374471 22.980835,11.4539795" id="Path-413" stroke="#F6F3E2" stroke-width="2" stroke-linecap="round"></path>
            <path d="M24.1914062,7.5 C25.1347656,7.86930339 25.8790283,8.47587077 26.4241943,9.31970215" id="Path-414" stroke="#F6F3E2" stroke-width="2" stroke-linecap="round"></path>
        </g>
    </g>
</svg>