<?xml version="1.0" encoding="UTF-8"?>
<svg width="48px" height="48px" viewBox="0 0 48 48" version="1.1" xmlns="http://www.w3.org/2000/svg" xmlns:xlink="http://www.w3.org/1999/xlink">
    <!-- Generator: Sketch 59 (86127) - https://sketch.com -->
    <title>31_Hair_AfroSidePart</title>
    <desc>Created with Sketch.</desc>
    <g id="SVGs" stroke="none" stroke-width="1" fill="none" fill-rule="evenodd">
        <g id="Slices" transform="translate(-768.000000, -650.000000)"></g>
        <g id="Group-154" transform="translate(10.000000, 12.000000)">
            <g id="Group-74" transform="translate(1.553552, 2.781980)" fill-rule="nonzero">
                <g id="Group-3" transform="translate(0.000000, 0.333333)">
                    <path d="M11.5559872,18.1684341 C17.5336574,18.1684341 22.3795166,15.4505162 22.3795166,10.8531188 C22.3795166,9.51538794 21.969233,8.16592742 21.2401649,6.92482482 C21.7495408,4.98221863 22.3594438,1.11471731 21.1031439,0.279463135 C19.4195208,-0.839898038 16.4479416,1.72874347 15.6113312,2.27013761 C14.3588681,1.79233472 12.989995,1.51978549 11.5559872,1.51978549 C10.1473177,1.51978549 8.80150155,1.78278814 7.5671435,2.24500246 C6.65774117,1.7323154 3.99855776,-0.555654987 2.31692907,0.162082083 C0.549939067,0.916252268 1.53765408,5.48456765 1.93120952,6.82511394 C1.16506416,8.09346988 0.732457778,9.47947826 0.732457778,10.8531188 C0.732457778,15.4505162 5.57831696,18.1684341 11.5559872,18.1684341 Z" id="Oval-2" fill="#000000"></path>
                    <path d="M11.5559872,17.8963511 C16.9643555,17.8963511 21.3487043,14.9599845 21.3487043,11.3377926 C21.3487043,9.05829451 19.6123408,7.04041123 16.9771144,6.60568179 C15.4248858,6.34961292 13.5607906,7.30175655 11.5559872,7.30175655 C9.56341454,7.30175655 7.70983845,6.34892119 6.1633039,6.60101739 C3.51213532,7.03317683 1.7632701,9.05010311 1.7632701,11.3377926 C1.7632701,14.9599845 6.14761888,17.8963511 11.5559872,17.8963511 Z" id="Oval-2" fill="#9B9B9B"></path>
                </g>
            </g>
            <path d="M7.49707429,6.78653751 C6.93924009,5.93215383 6.16569408,5.62497067 5.17643627,5.86498803 C4.18717846,6.10500539 3.52669669,6.73629879 3.19499096,7.75886824 C1.98861075,7.84361216 1.08377134,8.15898759 0.480472729,8.70499454 C-0.122825882,9.25100148 -0.157982132,10.0035785 0.375003979,10.9627257 C0.268504413,11.5233115 0.303660663,11.9355798 0.480472729,12.1995306 C0.657284795,12.4634814 0.967072121,12.6020757 1.40983471,12.6153135 C0.990129847,13.272933 0.836375507,13.8599556 0.948571687,14.3763813 C1.11686596,15.1510198 2.00146882,15.7521137 3.1792032,15.4585753 C4.35693757,15.1650369 4.4995157,13.3773578 4.25521231,12.2819802 C5.3839558,11.8044412 6.16341544,10.7325934 6.18831778,9.67387211 C6.57362594,9.54195112 7.08257776,9.21899193 7.71517325,8.70499454 C7.90440936,9.04467553 8.08290328,9.2454405 8.25065502,9.30728946 C8.19246817,9.80663842 8.29964591,10.386391 8.90177807,10.8522927 C8.8432657,11.5563129 8.79118236,12.2276182 9.45801179,12.4724913 C10.1248412,12.7173643 10.449711,12.4507628 10.6587768,12.0754372 C10.8678425,11.7001117 10.8023315,10.7779112 10.6587768,10.2477191 C10.5152221,9.71752709 9.70752351,8.34179467 9.32007234,8.05541771 C9.9296101,8.10587344 11.8520548,8.23095482 12.6259805,7.75886824 C13.1237019,8.56420678 13.933435,9.01578555 15.0043171,9.12540469 C15.7182386,9.19848412 16.2372815,9.00794593 16.561446,8.55379011 C16.8704196,8.32988603 17.1314601,8.32988603 17.3445678,8.55379011 C17.6642292,8.88964623 18.3977904,9.74576602 19.3217813,9.92545352 C19.9377752,10.0452452 20.5533623,9.96138472 21.1685424,9.67387211 C21.584992,9.64253706 21.7946817,9.72639753 21.7976114,9.92545352 C21.8020059,10.2240375 22.3432657,11.9344867 23.9684285,13.1880675 C24.2972139,13.4416784 25.0431355,13.3175434 25.2402384,12.8365863 C25.7512247,12.8788227 26.4965046,12.8079405 26.5365437,11.9554014 C26.5632364,11.3870421 26.3591077,10.8804774 25.9241576,10.4357074 C25.7253729,10.2102843 25.6882635,10.0401996 25.8128295,9.92545352 C25.9996785,9.75333438 26.2660359,9.25772891 26.2650593,8.96134219 C26.2640828,8.66495548 25.9196003,8.00976342 25.3451374,7.75886824 C25.1532567,7.67506481 25.1532567,7.55220782 25.3451374,7.39029727 C25.5676852,7.13563147 25.6788234,6.87437388 25.6785522,6.60652449 C25.6781453,6.2047504 25.1442097,5.84570092 24.8393594,5.74487084 C24.5345092,5.64404076 24.4735147,5.55025007 24.5228311,5.43053979 C24.5721475,5.3108295 24.6199991,5.30199975 24.8393594,5.37442813 C25.0587198,5.44685652 25.6729369,5.3712543 25.8128295,4.90510847 C25.9527221,4.43896264 25.7799519,3.62198673 24.5976602,3.37101016 C24.5589232,2.99405704 24.4036498,2.30322045 23.5330443,2.04605899 C23.5157917,1.597003 23.4588256,0.824379304 23.1169473,0.517087637 C22.7750691,0.20979597 21.5891967,-0.156984629 20.1009154,0.517087637 C19.8597523,0.62631524 19.6000409,0.62631524 19.3217813,0.517087637 C18.183869,-0.220108544 17.095897,-0.169056026 16.0578653,0.670245189 C15.6741267,0.980517323 15.3001342,1.15974714 15.0043171,1.10554792 C14.7085001,1.0513487 13.8772826,0.538490632 12.9347371,1.10554792 C11.9921915,1.67260521 11.673588,2.69018334 11.5646199,2.86848738 C11.4556518,3.04679141 11.26864,3.01114688 10.9597208,2.86848738 C10.6508015,2.72582787 9.85058992,2.67122175 9.32007234,3.50032331 C8.96639395,4.05305769 8.82696253,4.8012402 8.90177807,5.74487084 C8.81605758,6.53029836 8.59901657,6.93277774 8.25065502,6.95230899 C7.90229348,6.97184024 7.6510999,6.91658308 7.49707429,6.78653751 Z" id="Path-223" fill="#F6D5AE"></path>
        </g>
    </g>
</svg>