<?xml version="1.0" encoding="UTF-8"?>
<svg width="49px" height="49px" viewBox="0 0 49 49" version="1.1" xmlns="http://www.w3.org/2000/svg" xmlns:xlink="http://www.w3.org/1999/xlink">
    <!-- Generator: Sketch 59 (86127) - https://sketch.com -->
    <title>32_Footwear_Kimono</title>
    <desc>Created with Sketch.</desc>
    <g id="SVGs" stroke="none" stroke-width="1" fill="none" fill-rule="evenodd">
        <g id="Slices" transform="translate(-1448.000000, -470.000000)"></g>
        <g id="Group-173" transform="translate(13.000000, 16.000000)">
            <path d="M0.201660156,0 L7.67333984,0 L7.67333984,6.94750977 C16.7833659,8.37296549 21.7357585,9.69873047 22.5305176,10.9248047 C23.3252767,12.1508789 23.3728841,13.5092773 22.6733398,15 L0.201660156,15 L0.201660156,0 Z" id="Rectangle" fill="#FEF9E9"></path>
            <path d="M6.93225098,15.3382568 C8.07849121,11.4465332 11.2921549,9.07167562 16.5732422,8.21368408 C16.8679184,8.16580954 17.1266029,8.20534968 17.5014038,8.2923584 C18.1643988,8.44627035 18.9810181,8.65563965 19.8144531,8.96380615 C20.3015821,9.14392436 20.4623439,9.4109034 20.3695679,9.63189697 C20.2343471,9.95399422 19.6308893,10.0912504 19.2724609,10.2183228 C14.9967041,11.7341919 12.7748166,13.3488536 12.2498779,15.3382568 C11.4035238,15.3594157 9.63098145,15.3594157 6.93225098,15.3382568 Z" id="Path-445" fill="#371552"></path>
            <line x1="1.42108547e-14" y1="16.1227104" x2="22.2678223" y2="16.1560059" id="Path-119" stroke="#744201" stroke-width="2.5" stroke-linecap="round" fill-rule="nonzero"></line>
            <circle id="Oval" fill="#F3A3F0" cx="17.1733398" cy="9.5" r="1"></circle>
            <circle id="Oval" fill="#C39BEA" cx="13.1733398" cy="12.5" r="1"></circle>
            <circle id="Oval" fill="#C39BEA" cx="14.9233398" cy="9.25" r="1"></circle>
            <circle id="Oval" fill="#F3A3F0" cx="10.9233398" cy="14.25" r="1"></circle>
            <path d="M8.97064209,14 C9.24678446,14 9.47064209,13.7761424 9.47064209,13.5 C9.47064209,13.2238576 9.24678446,13 8.97064209,13 C8.69449971,13 8.47064209,13.2238576 8.47064209,13.5 C8.47064209,13.7761424 8.69449971,14 8.97064209,14 Z" id="Oval" fill="#9BA6F2"></path>
            <circle id="Oval" fill="#F3A3F0" cx="11.4233398" cy="11.75" r="1"></circle>
            <circle id="Oval" fill="#9EB4EE" cx="14.4233398" cy="10.75" r="1"></circle>
        </g>
    </g>
</svg>