<?xml version="1.0" encoding="UTF-8"?>
<svg width="49px" height="49px" viewBox="0 0 49 49" version="1.1" xmlns="http://www.w3.org/2000/svg" xmlns:xlink="http://www.w3.org/1999/xlink">
    <!-- Generator: Sketch 59 (86127) - https://sketch.com -->
    <title>33_Footwear_Hockey</title>
    <desc>Created with Sketch.</desc>
    <g id="SVGs" stroke="none" stroke-width="1" fill="none" fill-rule="evenodd">
        <g id="Slices" transform="translate(-1542.000000, -540.000000)"></g>
        <g id="Group-193" transform="translate(13.000000, 12.000000)">
            <path d="M0.452392578,22.1165771 L23.4332581,22.2198792 C23.3744812,22.6000671 23.2540283,22.9391276 23.0718994,23.2370605 C22.8897705,23.5349935 22.646932,23.7607015 22.3433838,23.9141846 L1.97143555,23.9066162 C1.48060717,23.7705999 1.13006192,23.5787053 0.919799805,23.3309326 C0.70953769,23.0831599 0.553735281,22.6783747 0.452392578,22.1165771 Z" id="Rectangle" fill="#767676"></path>
            <path d="M1.50805664,19.5175781 L5.00769043,19.5175781 L4.7322998,20.9991455 C7.22806803,21.1879476 9.61442057,21.2886556 11.8913574,21.3012695 C14.1682943,21.3138835 16.2972005,21.2100423 18.2780762,20.9897461 L18.0397949,19.5175781 L22.4614868,19.5175781 C22.6974487,19.9301758 22.8890991,20.3478597 23.036438,20.7706299 C23.1837769,21.1934001 23.3259277,21.6875407 23.4628906,22.2530518 C19.6379863,22.5066325 15.8020488,22.6334229 11.9550781,22.6334229 C8.10810742,22.6334229 4.26081738,22.5066325 0.413208008,22.2530518 C0.606357156,21.5979003 0.769402403,21.104248 0.90234375,20.7720947 C1.0352851,20.4399415 1.23718939,20.0217693 1.50805664,19.5175781 Z" id="Rectangle" fill="#D8D8D8"></path>
            <path d="M2.06375326,-4.4408921e-15 L7.25541992,-4.4408921e-15 C7.83531891,-4.54741781e-15 8.30541992,0.470101013 8.30541992,1.05 L8.30541992,12.6315789 L8.30541992,12.6315789 L1.01375326,12.6315789 L1.01375326,1.05 C1.01375326,0.470101013 1.48385427,-3.66823257e-15 2.06375326,-4.4408921e-15 Z" id="Rectangle-39" fill="#8D1514" fill-rule="nonzero"></path>
            <polygon id="Rectangle" fill="#FFFFFF" points="1 2.81046657 8.30541992 2.81046657 8.30541992 3.81046657 1 3.81046657"></polygon>
            <polygon id="Rectangle" fill="#FFFFFF" points="1 4.81046657 8.30541992 4.81046657 8.30541992 5.81046657 1 5.81046657"></polygon>
            <path d="M0.316894531,17.3774977 L23.2721058,17.3765775 L23.2721058,18.4395146 C23.2720621,19.04199 22.7836721,19.5303995 22.1811967,19.5304674 L1.40780362,19.5313002 C0.805311169,19.5313681 0.316874953,19.042971 0.316850801,18.4404785 C0.3168508,18.440464 0.3168508,18.4404494 0.316894531,18.4404348 L0.316894531,17.3774977 L0.316894531,17.3774977 Z" id="Rectangle-41" fill="#343234" fill-rule="nonzero"></path>
            <path d="M20.3261719,14.6153846 L20.8647414,14.6153846 C22.2241519,14.6153846 23.3261719,15.7174046 23.3261719,17.0768151 L23.3261719,18.4473365 C23.3261719,19.0498289 22.8377552,19.5382456 22.2352628,19.5382456 L17.3261719,19.5382456 L17.3261719,19.5382456 L17.3261719,17.6153846 C17.3261719,15.9585304 18.6693176,14.6153846 20.3261719,14.6153846 Z" id="Rectangle-45" fill="#343234" fill-rule="nonzero"></path>
            <path d="M0.329437256,18.4472562 L23.3275757,18.4472562 C23.3200406,18.5583465 23.3093187,18.643336 23.2954102,18.7022247 C23.2815016,18.7611135 23.2547631,18.8347309 23.2151947,18.9230769 L0.436620539,18.9230769 C0.394198379,18.8553417 0.365339847,18.7875246 0.350044944,18.7196256 C0.329612086,18.6289177 0.322742857,18.5381279 0.329437256,18.4472562 Z" id="Rectangle-44" fill="#000000" fill-rule="nonzero"></path>
            <path d="M0.321289062,17.7250131 C0.250970154,15.9906756 0.213372498,14.2256485 0.208496094,12.4299316 C0.202856795,10.3532821 0.313089552,8.56769626 0.532138559,4.50148503 C0.645531935,2.39656143 1.47509766,3.29138184 1.6237793,3.67785645 C1.67120061,3.8011207 1.70524359,4.08289046 1.72590826,4.52316571 L1.98327637,7.04241474 L7.78447654,7.04241474 C8.06605438,7.04243634 8.33458335,7.16115123 8.52408945,7.36941433 C8.53522685,7.3816541 8.54733494,7.39340055 8.56041371,7.4046537 C8.71648615,7.53894043 9.46809526,6.94162222 9.64394309,6.79070575 C9.76117498,6.69009478 9.9037975,6.55997095 10.0718106,6.40033428 C10.4870273,6.04845878 10.8291792,5.97010842 11.0982666,6.1652832 C11.5018976,6.45804537 11.1419456,6.94852389 10.9907338,7.08958083 C10.9059615,7.16866005 10.3467534,7.77128608 9.31310946,8.89745893 C9.18275904,9.03947794 9.22353251,9.40349836 9.43542987,9.98952018 L19.0059814,14.9871826 L18.8134544,17.5727163 L0.321289062,17.7250131 Z" id="Path-178" fill="#343234" fill-rule="nonzero"></path>
            <line x1="9.4407959" y1="9.61633301" x2="7.90540035" y2="10.5418228" id="Path-170" stroke="#DDDDDD" stroke-width="1.09090909" stroke-linecap="round" fill-rule="nonzero"></line>
            <line x1="9.19641113" y1="8.26403809" x2="7.40365781" y2="8.26655048" id="Path-170" stroke="#DDDDDD" stroke-width="1.09090909" stroke-linecap="round" fill-rule="nonzero"></line>
            <line x1="11.0152255" y1="10.5653546" x2="9.86479048" y2="11.9402982" id="Path-170" stroke="#DDDDDD" stroke-width="1.09090909" stroke-linecap="round" fill-rule="nonzero"></line>
            <line x1="12.5910645" y1="11.5189678" x2="11.4406294" y2="12.8939115" id="Path-170" stroke="#DDDDDD" stroke-width="1.09090909" stroke-linecap="round" fill-rule="nonzero"></line>
            <line x1="14.3462136" y1="12.5099816" x2="13.1957786" y2="13.8849253" id="Path-170" stroke="#DDDDDD" stroke-width="1.09090909" stroke-linecap="round" fill-rule="nonzero"></line>
            <line x1="16.1296609" y1="13.6078069" x2="14.9792259" y2="14.9827505" id="Path-170" stroke="#DDDDDD" stroke-width="1.09090909" stroke-linecap="round" fill-rule="nonzero"></line>
            <path d="M17.8047936,18.6548334 C17.5646197,16.6899918 17.9591649,15.4509393 19.022049,14.9160156 C18.742864,14.8115641 18.5567238,14.7418138 18.4636285,14.7067645 C17.4503643,15.429378 17.07188,16.7798328 17.3084876,18.7154997 L17.8047936,18.6548334 Z" id="Path-508" fill="#000000" fill-rule="nonzero"></path>
            <path d="M0.242456806,14.2687554 C0.861198096,14.9138487 2.24989198,16.1651728 2.91693115,16.671875 C3.87091064,17.3965454 5.04827881,18.0050659 6.06894409,18.5595618 C6.21460508,18.6386949 6.51409279,18.6217707 6.96740723,18.5087891 C5.74887149,17.8089576 4.4230957,17.1594849 3.28634729,16.2479774 C2.52586983,15.6381847 0.959540611,14.3198236 0.237360982,13.5323995 C0.233612061,13.771759 0.235229492,14.0442505 0.242456806,14.2687554 Z" id="Path-509" fill="#000000" fill-rule="nonzero"></path>
        </g>
    </g>
</svg>