<?xml version="1.0" encoding="UTF-8"?>
<svg width="48px" height="48px" viewBox="0 0 48 48" version="1.1" xmlns="http://www.w3.org/2000/svg" xmlns:xlink="http://www.w3.org/1999/xlink">
    <!-- Generator: Sketch 59 (86127) - https://sketch.com -->
    <title>34_Headgear_French</title>
    <desc>Created with Sketch.</desc>
    <g id="SVGs" stroke="none" stroke-width="1" fill="none" fill-rule="evenodd">
        <g id="Slices" transform="translate(-886.000000, -769.000000)"></g>
        <path d="M23.1222175,19.5603431 C18.1686856,19.3516843 14.4011482,20.757446 11.8196052,23.7776283 C9.94021687,25.9763503 11.8171638,28.1359047 12.2828621,28.5077308 C12.7485603,28.879557 15.8022712,30.882975 17.5301765,29.881266 C19.2580818,28.879557 21.260157,27.3559974 21.9055427,26.9036049 C22.5509285,26.4512123 25.1627449,25.1739906 27.8509773,25.3404945 C30.5392097,25.5069984 34.3362068,25.4807533 35.0542244,25.0171303 C35.7722419,24.5535072 37.1537117,23.6438392 37.1537117,21.6020912 C37.1537117,19.5603431 34.5256599,18.0604652 31.6008552,18.0604652 C28.6760505,18.0604652 26.3880382,18.9858803 25.2500251,19.5603431 C24.8949849,19.7395655 24.8760017,19.5055336 24.7499031,19.205851 C24.6238044,18.9061683 23.3042854,16.7507118 22.8221077,16.299601 C22.3399299,15.8484901 21.4452156,15.9553322 21.0856575,16.299601 C20.7260994,16.6438698 20.3871711,17.4302772 20.9531501,17.9584755 C21.5191291,18.4866737 21.9495302,18.5614479 22.8221077,19.205851 C22.9634118,19.3102048 23.0634484,19.4283689 23.1222175,19.5603431 Z" id="Path-432" fill="#4C413D"></path>
    </g>
</svg>