<?xml version="1.0" encoding="UTF-8"?>
<svg width="48px" height="48px" viewBox="0 0 48 48" version="1.1" xmlns="http://www.w3.org/2000/svg" xmlns:xlink="http://www.w3.org/1999/xlink">
    <!-- Generator: Sketch 59 (86127) - https://sketch.com -->
    <title>35_Headgear_Panda</title>
    <desc>Created with Sketch.</desc>
    <g id="SVGs" stroke="none" stroke-width="1" fill="none" fill-rule="evenodd">
        <g id="Slices" transform="translate(-590.000000, -829.000000)"></g>
        <circle id="Oval" fill="#585752" cx="14" cy="19" r="4"></circle>
        <circle id="Oval" fill="#585752" cx="34" cy="19" r="4"></circle>
        <path d="M23.8398438,14.2781783 C25.447876,14.2775879 30.6565376,14.354427 33.9170532,18.2417603 C34.8026383,19.2975946 35.3024006,21.281278 35.4661865,22.711792 C35.6695034,24.4875712 35.4891873,26.3288583 34.8803711,27.6588745 C34.4110853,28.6840734 33.6338979,29.3289936 32.9112549,29.8791504 C32.3446484,30.3105147 31.5434969,30.8776232 30.6588745,31.3920288 C29.277453,32.1953218 27.7513253,32.944488 27.0491333,33.4191895 C25.8972778,34.197876 25.5537109,34.7549438 25.2867432,35.1730347 C25.0197754,35.5911255 24.5933838,36.1723022 24.2131348,36.1886597 C23.8328857,36.2050171 23.0931396,36.2931519 22.4581299,35.2006226 C21.8231201,34.1080933 20.3074951,33.1481934 19.8348389,32.8839111 C19.3621826,32.6196289 15.4083252,30.8065186 13.5280762,28.7591553 C11.4527916,26.4994219 11.9553223,20.3894043 14.0233154,17.9838867 C17.0643467,14.4465181 22.2318115,14.2788086 23.8398438,14.2781783 Z" id="Path-400" fill="#F6F3E2"></path>
        <path d="M16.4311523,21.0004883 C15.2494898,22.8537336 14.5793457,24.4180908 15.4438477,25.8869629 C16.5536226,27.7725774 19.5567627,26.4150391 20.5362549,25.6409912 C21.8258388,24.6218921 22.9782715,23.0405273 22.9782715,21.3023682 C22.9782715,19.3648682 21.0219727,18.6097412 19.9498291,18.6097412 C18.9800804,18.6097412 17.5707789,19.2131696 16.4311523,21.0004883 Z" id="Path-402" fill="#585752"></path>
        <path d="M26.3069027,21.0004883 C25.1252401,22.8537336 24.455096,24.4180908 25.319598,25.8869629 C26.4293729,27.7725774 29.432513,26.4150391 30.4120052,25.6409912 C31.7015891,24.6218921 32.8540218,23.0405273 32.8540218,21.3023682 C32.8540218,19.3648682 30.897723,18.6097412 29.8255794,18.6097412 C28.8558307,18.6097412 27.4465292,19.2131696 26.3069027,21.0004883 Z" id="Path-402" fill="#585752" transform="translate(28.890756, 22.725821) scale(-1, 1) translate(-28.890756, -22.725821) "></path>
        <path d="M20.1744385,24.7642822 C21.0028656,24.7642822 21.6744385,24.0927094 21.6744385,23.2642822 C21.6744385,22.4358551 21.0028656,21.7642822 20.1744385,21.7642822 C19.3460114,21.7642822 18.6744385,22.4358551 18.6744385,23.2642822 C18.6744385,24.0927094 19.3460114,24.7642822 20.1744385,24.7642822 Z" id="Oval" fill="#FFFFFF"></path>
        <path d="M27.6932373,24.7642822 C28.5216644,24.7642822 29.1932373,24.0927094 29.1932373,23.2642822 C29.1932373,22.4358551 28.5216644,21.7642822 27.6932373,21.7642822 C26.8648102,21.7642822 26.1932373,22.4358551 26.1932373,23.2642822 C26.1932373,24.0927094 26.8648102,24.7642822 27.6932373,24.7642822 Z" id="Oval" fill="#FFFFFF"></path>
        <path d="M22.8215332,33.4277039 C22.5919549,33.5841114 22.6481018,33.7710266 22.7420349,33.9173279 C22.835968,34.0636292 23.2317302,34.0306857 23.4537659,33.7895508 C24.6621399,32.4772339 27.043457,31.3457642 29.6391602,30.3630981 C32.2348633,29.3804321 30.2327881,28.1430054 30,27.9279785 C29.7672119,27.7129517 28.1268921,26.7878418 26.3717651,26.9455566 C25.7242528,27.0037418 24.7174683,27.4390259 24,27.4390259 C23.2825317,27.4390259 22.3345947,27.0412598 21.6744385,26.9455566 C21.0142822,26.8498535 18.9968262,27.1572876 17.795166,27.9279785 C16.5935059,28.6986694 16.6705322,29.7092896 18.1777954,30.3630981 C19.6850586,31.0169067 22.1511841,32.0627441 22.8215332,32.4765015 C23.4918823,32.8902588 22.9948425,33.3096313 22.8215332,33.4277039 Z" id="Path-401" fill="#DDDDDD"></path>
        <path d="M24,27.055481 C24.3434753,27.055481 24.4805298,26.6566772 24.410614,26.499054 C24.3406982,26.3414307 24.2463837,26.0647278 24.488205,25.8580017 C24.7300262,25.6512756 25.0632629,25.807312 25.1290894,25.9763489 C25.1949158,26.1453857 25.4146428,26.164118 25.5378571,26.0643921 C25.646637,25.9763489 25.8666687,25.5611949 25.7741089,25.1838989 C25.6815491,24.8066029 25.2604675,24.5665588 24.9701538,24.5665588 C24.6798401,24.5665588 24.2112732,24.657196 24,24.657196 C23.7887268,24.657196 23.2899475,24.5665588 23.0326538,24.5665588 C22.7740479,24.5665588 22.2061854,24.8273998 22.2061854,25.3459473 C22.2061854,25.8644948 22.4438934,26.1223602 22.6121368,26.1223602 C22.7803802,26.1223602 22.8463745,26.0542908 22.8733978,25.9763489 C22.9004211,25.898407 23.0154877,25.8043365 23.1283264,25.7775574 C23.2411652,25.7507782 23.37677,25.7507782 23.5142822,25.8580017 C23.5865897,25.9143826 23.6751375,26.0529736 23.6707306,26.2024689 C23.6667566,26.3372791 23.5823994,26.4825365 23.5711365,26.5623779 C23.5448761,26.7485352 23.6565247,27.055481 24,27.055481 Z" id="Path-403" fill="#585752"></path>
    </g>
</svg>