<?xml version="1.0" encoding="UTF-8"?>
<svg width="48px" height="48px" viewBox="0 0 48 48" version="1.1" xmlns="http://www.w3.org/2000/svg" xmlns:xlink="http://www.w3.org/1999/xlink">
    <!-- Generator: Sketch 59 (86127) - https://sketch.com -->
    <title>36_Headgear_kimono</title>
    <desc>Created with Sketch.</desc>
    <g id="SVGs" stroke="none" stroke-width="1" fill="none" fill-rule="evenodd">
        <g id="Slices" transform="translate(-649.000000, -829.000000)"></g>
        <g id="Group-172" transform="translate(6.000000, 9.000000)">
            <line x1="4.07983398" y1="9.1048155" x2="7.76555273" y2="12.8527832" id="Path-441" stroke="#F3A3F0" stroke-linecap="round"></line>
            <line x1="1.41601562" y1="14.579834" x2="9.18481445" y2="16.4873047" id="Path-442" stroke="#C39BEA" stroke-linecap="round"></line>
            <line x1="5.68434189e-14" y1="18.7714822" x2="7.76555273" y2="18.1890326" id="Path-443" stroke="#371552" stroke-linecap="round"></line>
            <polygon id="Path-444" fill="#F3A3F0" points="19.8894043 11.2110596 21.9320068 -1.77635684e-15 24.7304688 2.0234375 27.3509869 1.45239258 29.1645508 3.98352051 31.1945801 4.14074707 31.6901855 7.26672363 33.9272461 8.58996582 33.9272461 11.803833 35.94104 13.7932129 35.0509033 16.1437988 36.7515869 18.7714822 28.3204956 19.1846924"></polygon>
            <circle id="Oval" fill="#FFFFFF" cx="28.1987305" cy="10.739502" r="1"></circle>
            <g id="Group-154" transform="translate(5.448730, 7.989502)" fill="#DDDDDD" fill-rule="nonzero">
                <g id="Group-74" transform="translate(0.553552, 0.781980)">
                    <g id="Group-3" transform="translate(0.000000, 0.333333)">
                        <path d="M11.5559872,18.1684341 C17.5336574,18.1684341 22.3795166,15.4505162 22.3795166,10.8531188 C22.3795166,9.51538794 21.969233,8.16592742 21.2401649,6.92482482 C21.7495408,4.98221863 22.3594438,1.11471731 21.1031439,0.279463135 C19.4195208,-0.839898038 16.4479416,1.72874347 15.6113312,2.27013761 C14.3588681,1.79233472 12.989995,1.51978549 11.5559872,1.51978549 C10.1473177,1.51978549 8.80150155,1.78278814 7.5671435,2.24500246 C6.65774117,1.7323154 3.99855776,-0.555654987 2.31692907,0.162082083 C0.549939067,0.916252268 1.53765408,5.48456765 1.93120952,6.82511394 C1.16506416,8.09346988 0.732457778,9.47947826 0.732457778,10.8531188 C0.732457778,15.4505162 5.57831696,18.1684341 11.5559872,18.1684341 Z" id="Oval-2"></path>
                    </g>
                </g>
            </g>
            <circle id="Oval" fill="#DB65DB" cx="28.9487305" cy="5.48950195" r="1"></circle>
            <circle id="Oval" fill="#DB65DB" cx="30.9487305" cy="7.48950195" r="1"></circle>
            <circle id="Oval" fill="#9EB4EE" cx="33.9487305" cy="14.489502" r="1"></circle>
            <circle id="Oval" fill="#DB65DB" cx="34.9487305" cy="17.489502" r="1"></circle>
            <circle id="Oval" fill="#DB65DB" cx="28.4487305" cy="7.98950195" r="1"></circle>
            <circle id="Oval" fill="#FFFFFF" cx="32.4487305" cy="16.989502" r="1"></circle>
            <circle id="Oval" fill="#DB65DB" cx="25.4487305" cy="6.98950195" r="1"></circle>
        </g>
    </g>
</svg>