<?xml version="1.0" encoding="UTF-8"?>
<svg width="48px" height="48px" viewBox="0 0 48 48" version="1.1" xmlns="http://www.w3.org/2000/svg" xmlns:xlink="http://www.w3.org/1999/xlink">
    <!-- Generator: Sketch 59 (86127) - https://sketch.com -->
    <title>36_Props_Baguette</title>
    <desc>Created with Sketch.</desc>
    <g id="SVGs" stroke="none" stroke-width="1" fill="none" fill-rule="evenodd">
        <g id="Slices" transform="translate(-1870.000000, -413.000000)"></g>
        <g id="Group-169" transform="translate(13.000000, 12.000000)">
            <path d="M23.7134517,0.341511733 C24.668035,1.01612352 24.5718562,2.36459088 23.7134517,4.23482228 C22.0696356,7.81625296 13.676814,17.6052094 5.34602931,23.0951738 C4.24165455,23.8229538 1.34687451,24.9674883 0.462597165,23.8156328 C-0.421680179,22.6637774 -0.0221440461,20.9164629 1.52351025,18.4047442 C3.06916455,15.8930254 11.1570713,5.92996335 19.3987544,1.05403615 C20.84155,0.200452432 22.6444064,-0.413991225 23.7134517,0.341511733 Z" id="Path-434" fill="#FFB04A"></path>
            <path d="M18.6647202,3.29561343 C18.3817561,4.02919484 18.1439936,4.68025685 17.8290524,5.96498585 C17.5141111,7.24971486 17.4574448,7.96754933 17.4574448,8.40437808 C17.4574448,8.72491473 17.5603119,8.94245855 17.8290524,9.00596583 C18.0977928,9.06947311 18.337505,8.82596422 18.4306401,8.63435828 C18.6073115,8.27089406 18.9110225,7.57729054 19.266308,6.09694386 C19.6215935,4.61659718 19.6090815,4.11232472 19.6579097,3.64195729 C19.7067378,3.17158986 19.5350484,2.98751316 19.266308,2.92400588 C18.9975675,2.8604986 18.7729654,3.01498884 18.6647202,3.29561343 Z" id="Path-433" fill="#FEDC99" fill-rule="nonzero"></path>
            <path d="M4.34455517,16.1933573 C4.06159106,16.9269387 3.82382861,17.5780008 3.50888733,18.8627298 C3.19394606,20.1474588 3.13727978,20.8652932 3.13727978,21.302122 C3.13727978,21.6226586 3.24014687,21.8402025 3.50888733,21.9037097 C3.7776278,21.967217 4.01733996,21.7237081 4.11047509,21.5321022 C4.28714648,21.168638 4.59085742,20.4750344 4.94614293,18.9946878 C5.30142844,17.5143411 5.2889165,17.0100686 5.33774462,16.5397012 C5.38657275,16.0693338 5.21488339,15.8852571 4.94614293,15.8217498 C4.67740247,15.7582425 4.4528004,15.9127327 4.34455517,16.1933573 Z" id="Path-433" fill="#FEDC99" fill-rule="nonzero"></path>
            <path d="M9.36580359,11.4502154 C8.98147195,12.4112772 8.65853476,13.2642307 8.23077063,14.9473486 C7.8030065,16.6304665 7.7260404,17.5708984 7.7260404,18.1431858 C7.7260404,18.5631195 7.86575804,18.8481227 8.23077063,18.9313233 C8.59578322,19.014524 8.92136857,18.695504 9.04786793,18.4444819 C9.28782912,17.968309 9.70033982,17.059622 10.1829009,15.1202262 C10.665462,13.1808305 10.6484678,12.5201853 10.7147879,11.9039589 C10.7811079,11.2877326 10.5479135,11.0465745 10.1829009,10.9633739 C9.8178883,10.8801733 9.51282601,11.0825703 9.36580359,11.4502154 Z" id="Path-433" fill="#FEDC99" fill-rule="nonzero" transform="translate(9.226040, 14.944805) rotate(-6.000000) translate(-9.226040, -14.944805) "></path>
            <path d="M13.9869256,7.33989793 C13.602594,8.30095977 13.2796568,9.15391329 12.8518927,10.8370312 C12.4241286,12.5201491 12.3471625,13.460581 12.3471625,14.0328684 C12.3471625,14.4528021 12.4868801,14.7378053 12.8518927,14.8210059 C13.2169053,14.9042065 13.5424906,14.5851866 13.66899,14.3341645 C13.9089512,13.8579916 14.3214619,12.9493046 14.8040229,11.0099088 C15.286584,9.07051304 15.2695899,8.40986787 15.3359099,7.79364153 C15.40223,7.17741519 15.1690355,6.9362571 14.8040229,6.85305649 C14.4390104,6.76985587 14.1339481,6.97225287 13.9869256,7.33989793 Z" id="Path-433" fill="#FEDC99" fill-rule="nonzero" transform="translate(13.847162, 10.834488) rotate(-6.000000) translate(-13.847162, -10.834488) "></path>
        </g>
    </g>
</svg>