<?xml version="1.0" encoding="UTF-8"?>
<svg width="48px" height="48px" viewBox="0 0 48 48" version="1.1" xmlns="http://www.w3.org/2000/svg" xmlns:xlink="http://www.w3.org/1999/xlink">
    <!-- Generator: Sketch 59 (86127) - https://sketch.com -->
    <title>37_Headgear_Dashiki</title>
    <desc>Created with Sketch.</desc>
    <g id="SVGs" stroke="none" stroke-width="1" fill="none" fill-rule="evenodd">
        <g id="Slices" transform="translate(-707.000000, -829.000000)"></g>
        <g id="Group-177" transform="translate(12.000000, 17.000000)">
            <path d="M0.100952148,13.7820638 L2.05700684,1.52197266 C5.46151551,0.507324219 8.8294083,-3.55271368e-15 12.1606852,-3.55271368e-15 C15.4919621,-3.55271368e-15 18.821986,0.507324219 22.1507568,1.52197266 L24.3200277,13.7820638 L0.100952148,13.7820638 Z" id="Path-466" stroke="#132F71" fill="#132F71" stroke-linejoin="round"></path>
            <polygon id="Rectangle" fill="#E87C1E" points="1.06685384 7.39876302 23.170695 7.39876302 23.7915446 11.398763 0.449829102 11.398763"></polygon>
            <rect id="Rectangle" fill="#E85B33" x="9.10323079" y="7.39876302" width="6" height="4"></rect>
            <polygon id="Rectangle" fill="#E85B33" points="1.62463379 7.39876302 5.10323079 7.39876302 4.81522624 11.398763 1.10323079 11.398763"></polygon>
            <polygon id="Rectangle" fill="#E85B33" transform="translate(21.103231, 9.398763) scale(-1, 1) translate(-21.103231, -9.398763) " points="19.6246338 7.39876302 23.1032308 7.39876302 22.8152262 11.398763 19.1032308 11.398763"></polygon>
            <line x1="12.090861" y1="3.10091146" x2="12.090861" y2="5.07568359" id="Path-467" stroke="#9EB4EE" stroke-width="1.5" stroke-linecap="round"></line>
            <line x1="8.090861" y1="3.76220703" x2="8.090861" y2="5.07568359" id="Path-467" stroke="#9EB4EE" stroke-width="1.5" stroke-linecap="round"></line>
            <line x1="16.090861" y1="3.76220703" x2="16.090861" y2="5.07568359" id="Path-467" stroke="#9EB4EE" stroke-width="1.5" stroke-linecap="round"></line>
            <line x1="20.090861" y1="4.76220703" x2="20.090861" y2="5.07568359" id="Path-467" stroke="#9EB4EE" stroke-width="1.5" stroke-linecap="round"></line>
            <line x1="4.090861" y1="4.76220703" x2="4.090861" y2="5.07568359" id="Path-467" stroke="#9EB4EE" stroke-width="1.5" stroke-linecap="round"></line>
            <line x1="6.70137533" y1="7.39876302" x2="6.70137533" y2="11.037028" id="Path-468" stroke="#F5C627" stroke-linecap="round"></line>
            <line x1="0.701375326" y1="7.39876302" x2="0.298624674" y2="11.037028" id="Path-468" stroke="#F5C627" stroke-linecap="round"></line>
            <line x1="17.7013753" y1="7.39876302" x2="17.7013753" y2="11.037028" id="Path-468" stroke="#F5C627" stroke-linecap="round"></line>
            <line x1="23.3920492" y1="7.39876302" x2="24.0107015" y2="11.037028" id="Path-468" stroke="#F5C627" stroke-linecap="round"></line>
            <line x1="0.100952148" y1="12.7096354" x2="24.3200277" y2="12.7096354" id="Path-465" stroke="#E9FFFA" stroke-linecap="round"></line>
            <circle id="Oval" fill="#C71D1C" cx="12.1032308" cy="9.39876302" r="1"></circle>
            <circle id="Oval" fill="#C71D1C" cx="21.1032308" cy="9.39876302" r="1"></circle>
            <circle id="Oval" fill="#C71D1C" cx="3.10323079" cy="9.39876302" r="1"></circle>
        </g>
    </g>
</svg>