<?xml version="1.0" encoding="UTF-8"?>
<svg width="49px" height="49px" viewBox="0 0 49 49" version="1.1" xmlns="http://www.w3.org/2000/svg" xmlns:xlink="http://www.w3.org/1999/xlink">
    <!-- Generator: Sketch 59 (86127) - https://sketch.com -->
    <title>37_Props_PullPanda</title>
    <desc>Created with Sketch.</desc>
    <g id="SVGs" stroke="none" stroke-width="1" fill="none" fill-rule="evenodd">
        <g id="Slices" transform="translate(-1573.000000, -412.000000)"></g>
        <path d="M19.7514648,18.8168945 C20.8560343,18.8168945 21.7514648,17.921464 21.7514648,16.8168945 C21.7514648,15.712325 20.8560343,14.8168945 19.7514648,14.8168945 C18.6468953,14.8168945 17.7514648,15.712325 17.7514648,16.8168945 C17.7514648,17.921464 18.6468953,18.8168945 19.7514648,18.8168945 Z" id="Oval" fill="#5B5A55"></path>
        <path d="M28.038208,18.8168945 C29.1427775,18.8168945 30.038208,17.921464 30.038208,16.8168945 C30.038208,15.712325 29.1427775,14.8168945 28.038208,14.8168945 C26.9336385,14.8168945 26.038208,15.712325 26.038208,16.8168945 C26.038208,17.921464 26.9336385,18.8168945 28.038208,18.8168945 Z" id="Oval" fill="#5B5A55"></path>
        <circle id="Oval" fill="#FFFCEB" cx="24" cy="20" r="5"></circle>
        <path d="M21.5462646,17.2926025 C22.5443115,17.0768636 23.316569,16.9689941 23.8630371,16.9689941 C24.4095052,16.9689941 25.1817627,17.0768636 26.1798096,17.2926025" id="Path-415" stroke="#5B5A55"></path>
        <path d="M24,29.5 C29.5228475,29.5 34,28.909668 34,26 C34,24.5 29.5228475,19.1264648 24,19.1264648 C18.4771525,19.1264648 14,24.0718994 14,26 C14,29.048584 18.4771525,29.5 24,29.5 Z" id="Oval" fill="#5B5A55"></path>
        <path d="M24,35 C29.4372559,35 31,31.6421356 31,27.5 C31,23.3578644 27.8659932,20 24,20 C20.1340068,20 17,23.3578644 17,27.5 C17,31.6421356 18.5627441,35 24,35 Z" id="Oval" fill="#FFFCEB"></path>
        <path d="M23.0401611,28.8287354 L23.0401611,22.8863525 C23.5836382,22.8946884 23.9694154,22.8988563 24.1974927,22.8988563 C25.4876099,22.8988563 26.1798096,23.6268162 26.1798096,24.6787109 C26.1798096,25.7180987 25.538269,26.3403144 24.2443518,26.3403144 C24.0088686,26.3403144 23.6074717,26.3403144 23.0401611,26.3403144" id="Path-416" stroke="#5B5A55" stroke-width="1.2" stroke-linecap="round" stroke-linejoin="round"></path>
        <path d="M15.5,36.0935059 C16.4134282,36.0935059 19.9333934,36.0314652 20.5566406,35.458374 C21.2523091,34.8186897 21.6882629,33.7725258 21.6882629,32.7529574 C21.6882629,31.8292261 21.1412713,30.7749193 20.5566406,30.1494141 C19.9178754,29.4659894 16.5040801,29.0746059 15.5,29 C13.3642578,28.8413086 11.7419434,30.333252 12,32.5 C12.2580566,34.666748 13.5670034,36.0935059 15.5,36.0935059 Z" id="Oval" fill="#5B5A55"></path>
        <path d="M29.5,36.0935059 C30.4134282,36.0935059 33.9333934,36.0314652 34.5566406,35.458374 C35.2523091,34.8186897 35.6882629,33.7725258 35.6882629,32.7529574 C35.6882629,31.8292261 35.1412713,30.7749193 34.5566406,30.1494141 C33.9178754,29.4659894 30.5040801,29.0746059 29.5,29 C27.3642578,28.8413086 25.7419434,30.333252 26,32.5 C26.2580566,34.666748 27.5670034,36.0935059 29.5,36.0935059 Z" id="Oval" fill="#5B5A55" transform="translate(30.830621, 32.540976) scale(-1, 1) translate(-30.830621, -32.540976) "></path>
    </g>
</svg>