<?xml version="1.0" encoding="UTF-8"?>
<svg width="49px" height="49px" viewBox="0 0 49 49" version="1.1" xmlns="http://www.w3.org/2000/svg" xmlns:xlink="http://www.w3.org/1999/xlink">
    <!-- Generator: Sketch 59 (86127) - https://sketch.com -->
    <title>38_Props_hockeystick</title>
    <desc>Created with Sketch.</desc>
    <g id="SVGs" stroke="none" stroke-width="1" fill="none" fill-rule="evenodd">
        <g id="Slices" transform="translate(-1631.000000, -412.000000)"></g>
        <g id="Group-164" transform="translate(8.000000, 12.000000)">
            <path d="M26.55019,2.25395276 L13.8882993,18.9131638 C13.4076981,19.2301884 12.9194499,19.3094445 12.4235546,19.1509322 C11.9276593,18.99242 9.26434895,17.9713577 4.43362366,16.0877456 C3.35270152,15.6340864 2.55467065,15.6340864 2.03953103,16.0877456 C1.52439141,16.5414047 0.875453246,17.2794744 0.0927165272,18.3019546 C-0.136797112,19.195498 0.0597986399,19.8388148 0.682503783,20.231905 C1.6165615,20.8215403 8.70418779,23.3364163 9.75902883,23.6445277 C11.7964236,24.239636 13.7932692,23.2318893 15.075926,21.7452669 C15.9310305,20.7541853 20.3322914,14.6315848 28.2797084,3.37746558 C29.0144108,3.49346176 29.5477439,3.31471763 29.8797077,2.84123319 C30.3603721,2.15565488 30.1867176,1.84328946 29.7591522,1.56225932 C29.4741086,1.3749059 28.7644496,0.899533624 27.6301752,0.136142495 C27.2313623,-0.141481903 26.8513127,0.00549646406 26.4900262,0.577077596 C26.1287397,1.14865873 26.1487943,1.70761712 26.55019,2.25395276 Z" id="Path-417" fill="#BF9242"></path>
            <path d="M26.55019,2.25395276 L24.2507844,5.27927364 C24.0408206,5.74325596 24.1592499,6.17790736 24.6060722,6.58322784 C25.1596144,7.0853558 25.9400013,6.68717688 26.0135647,6.58322784 C26.4937651,5.90467889 27.2491463,4.83609147 28.2797084,3.37746558 C29.0144108,3.49346176 29.5477439,3.31471763 29.8797077,2.84123319 C30.3603721,2.15565488 30.1867176,1.84328946 29.7591522,1.56225932 C29.4741086,1.3749059 28.7644496,0.899533624 27.6301752,0.136142495 C27.2313623,-0.141481903 26.8513127,0.00549646406 26.4900262,0.577077596 C26.1287397,1.14865873 26.1487943,1.70761712 26.55019,2.25395276 Z" id="Path-417" fill="#DFDEE1"></path>
            <line x1="5.64031744" y1="16.170015" x2="2.77091584" y2="21.3917288" id="Path-418" stroke="#DDDDDD" stroke-width="1.2446" stroke-linecap="round"></line>
            <line x1="5.64031744" y1="16.170015" x2="2.77091584" y2="21.3917288" id="Path-418" stroke="#DDDDDD" stroke-width="1.2446" stroke-linecap="round"></line>
            <line x1="6.73260891" y1="16.6825465" x2="3.92956719" y2="21.7834991" id="Path-418" stroke="#DDDDDD" stroke-width="1.2446" stroke-linecap="round"></line>
            <line x1="7.83090156" y1="17.1675029" x2="5.05217663" y2="22.2242041" id="Path-418" stroke="#DDDDDD" stroke-width="1.2446" stroke-linecap="round"></line>
            <line x1="8.96003574" y1="17.6865674" x2="6.23154802" y2="22.6105769" id="Path-418" stroke="#DDDDDD" stroke-width="1.2446" stroke-linecap="round"></line>
            <line x1="10.0957029" y1="18.1404544" x2="7.46459138" y2="22.8887323" id="Path-418" stroke="#DDDDDD" stroke-width="1.2446" stroke-linecap="round"></line>
            <polygon id="Path-419" fill="#FFFFFF" fill-rule="nonzero" points="15.2616588 17.126862 15.2616588 21.5134997 16.5062588 19.850564 16.5062588 15.4371488"></polygon>
            <polygon id="Path-419" fill="#FFFFFF" fill-rule="nonzero" points="22.0205874 8.21236891 22.0205874 12.2137154 23.2651874 10.4628889 23.2651874 6.56261302"></polygon>
            <polygon id="Path-420" fill="#C71D1C" points="16.5062588 15.4371488 16.5062588 19.850564 22.0205874 12.2137154 22.0205874 8.21236891"></polygon>
            <path d="M17.8057811,16.6129631 C18.1494679,16.6129631 18.4280811,16.3343499 18.4280811,15.9906631 C18.4280811,15.6469763 18.1494679,15.3683631 17.8057811,15.3683631 C17.4620943,15.3683631 17.1834811,15.6469763 17.1834811,15.9906631 C17.1834811,16.3343499 17.4620943,16.6129631 17.8057811,16.6129631 Z" id="Oval" fill="#FFFFFF"></path>
            <path d="M19.3174718,14.5951979 C19.6611586,14.5951979 19.9397718,14.3165847 19.9397718,13.9728979 C19.9397718,13.6292111 19.6611586,13.3505979 19.3174718,13.3505979 C18.973785,13.3505979 18.6951718,13.6292111 18.6951718,13.9728979 C18.6951718,14.3165847 18.973785,14.5951979 19.3174718,14.5951979 Z" id="Oval" fill="#FFFFFF"></path>
            <path d="M20.7761393,12.5314213 C21.1198261,12.5314213 21.3984393,12.2528081 21.3984393,11.9091213 C21.3984393,11.5654345 21.1198261,11.2868213 20.7761393,11.2868213 C20.4324525,11.2868213 20.1538393,11.5654345 20.1538393,11.9091213 C20.1538393,12.2528081 20.4324525,12.5314213 20.7761393,12.5314213 Z" id="Oval" fill="#FFFFFF"></path>
        </g>
    </g>
</svg>