<?xml version="1.0" encoding="UTF-8"?>
<svg width="48px" height="48px" viewBox="0 0 48 48" version="1.1" xmlns="http://www.w3.org/2000/svg" xmlns:xlink="http://www.w3.org/1999/xlink">
    <!-- Generator: Sketch 59 (86127) - https://sketch.com -->
    <title>39_Headgear_Aussie</title>
    <desc>Created with Sketch.</desc>
    <g id="SVGs" stroke="none" stroke-width="1" fill="none" fill-rule="evenodd">
        <g id="Slices" transform="translate(-766.000000, -829.000000)"></g>
        <g id="Group-181" transform="translate(9.000000, 16.000000)">
            <path d="M0,1.5218099 C0,9.80608114 6.71572875,16.0029297 15,16.0029297 C23.2842712,16.0029297 30,9.80608114 30,1.5218099 C30,1.24566752 29.6177572,0.611246745 28.9966634,0.502929687 C28.3755697,0.39461263 28,0.921448771 28,1.19759115 C28,8.92957764 22.7319865,11.0029297 15,11.0029297 C7.2680135,11.0029297 2,8.92957764 2,1.19759115 C2,0.921448771 1.65812174,0.36726888 0.995117188,0.502929687 C0.33211263,0.638590495 0,1.24566752 0,1.5218099 Z" id="Path" fill="#744201" fill-rule="nonzero"></path>
            <path d="M9.92517703,0.284678521 C11.4301802,0.0948928404 13.1227644,-3.55271368e-15 15.0029297,-3.55271368e-15 C16.8821952,-3.55271368e-15 18.5729546,0.0948020398 20.0752081,0.284406119 C20.9226614,0.391341096 21.6086517,1.02469004 21.7827898,1.86092454 L22.9645182,7.53574469 L22.9645182,7.53574469 L23.5,10.5029297 L6.5,10.5029297 L7.04036458,7.51862355 L8.21733025,1.86157335 C8.3913661,1.02511545 9.0775189,0.391570902 9.92517703,0.284678521 Z" id="Rectangle" fill="#744201"></path>
            <line x1="15" y1="6.28857422" x2="15" y2="12.0652669" id="Path-479" stroke="#FBE6D9" stroke-width="1.5" stroke-linecap="round"></line>
            <line x1="11" y1="6.50292969" x2="10.7548828" y2="11.5366211" id="Path-479" stroke="#FBE6D9" stroke-width="1.5" stroke-linecap="round"></line>
            <line x1="8" y1="6.50292969" x2="7.5" y2="10.5857747" id="Path-479" stroke="#FBE6D9" stroke-width="1.5" stroke-linecap="round"></line>
            <line x1="19" y1="6.50292969" x2="19.3642578" y2="11.5366211" id="Path-479" stroke="#FBE6D9" stroke-width="1.5" stroke-linecap="round"></line>
            <line x1="22" y1="6.50292969" x2="22.4874674" y2="10.5857747" id="Path-479" stroke="#FBE6D9" stroke-width="1.5" stroke-linecap="round"></line>
            <path d="M6.90234375,7.50292969 L23.1634928,7.50292969 L23.5,10.5029297 C20.6382596,11.1695964 17.7947808,11.5029297 14.9695638,11.5029297 C12.1443468,11.5029297 9.32115884,11.1695964 6.5,10.5029297 L6.90234375,7.50292969 Z" id="Rectangle" fill="#533A25"></path>
        </g>
    </g>
</svg>