<?xml version="1.0" encoding="UTF-8"?>
<svg width="49px" height="49px" viewBox="0 0 49 49" version="1.1" xmlns="http://www.w3.org/2000/svg" xmlns:xlink="http://www.w3.org/1999/xlink">
    <!-- Generator: Sketch 59 (86127) - https://sketch.com -->
    <title>39_Props_football</title>
    <desc>Created with Sketch.</desc>
    <g id="SVGs" stroke="none" stroke-width="1" fill="none" fill-rule="evenodd">
        <g id="Slices" transform="translate(-1691.000000, -412.000000)"></g>
        <g id="Group-165" transform="translate(12.000000, 12.000000)">
            <path d="M8.67399019,24.0523783 C12.9150211,23.7361409 16.4485765,21.3076641 19.1957759,18.511011 C21.8794808,15.7789953 23.7695756,12.0658413 24.0219961,8.54423331 C24.2744165,5.02262534 24.4129044,2.62832797 22.6804185,1.22694583 C20.9479326,-0.174436308 18.8384003,-0.243350249 14.8227771,0.361561006 C10.8071539,0.966472261 7.60772713,3.2018505 4.88029097,5.85553348 C2.05307987,8.60629337 0.343060504,13.277116 0.0886598081,16.9682364 C-0.165740888,20.6593568 0.0886598081,21.9099732 1.35987117,23.0960323 C2.63108254,24.2820914 4.16276747,24.3887628 8.67399019,24.0523783 Z" id="Oval" fill="#E67D2E"></path>
            <path d="M0.247726252,15.5294929 C0.185091844,15.9223307 0.094510469,16.6869699 0.094510469,17.0512883 C2.11805713,18.1661731 3.54506328,19.190524 4.36140293,20.0904698 C5.19631818,21.0108936 6.09367818,22.3699313 7.03794071,24.1602841 C7.39777861,24.1602841 8.37152735,24.0674281 8.70831514,24.0447377 C9.33122809,24.00277 9.92369105,23.9143118 10.485704,23.7793629 C9.21818842,21.2028087 7.99260667,19.2644676 6.76451996,17.9106054 C5.51877095,16.5372719 3.48513225,15.1395231 0.642108381,13.665817 C0.598616366,13.8383785 0.314362864,15.1115536 0.247726252,15.5294929 Z" id="Path-421" fill="#FFFFFF" fill-rule="nonzero"></path>
            <path d="M13.5468416,1.84017962 C13.4916301,2.2175432 13.4103219,3.28126648 13.4103219,3.50397243 C15.5466207,4.66389021 17.0448904,5.72815318 17.8894868,6.65924961 C18.7721225,7.63228125 19.7245452,9.09549856 20.7283924,11.0402784 C21.1220943,11.0116415 21.9965108,10.8960609 22.2967502,10.8503803 C22.9214973,10.7553266 23.5315573,10.6398594 24.0816807,10.4996222 C24.0546731,10.4575081 24.0350744,10.4139165 24.0228846,10.3688474 C22.755369,7.79229322 21.5206905,5.83324747 20.2926038,4.47938522 C19.0254083,3.08240882 16.9429614,1.66016916 14.0226381,0.15841625 C13.9532858,0.114671055 13.9158695,0.103038804 13.910389,0.123519498 C13.7629072,0.674665997 13.6843559,0.900286542 13.5468416,1.84017962 Z" id="Path-421" fill="#FFFFFF" fill-rule="nonzero" transform="translate(18.746001, 5.577001) scale(-1, -1) translate(-18.746001, -5.577001) "></path>
            <line x1="16.1228346" y1="8.22468122" x2="7.88709069" y2="16.5537626" id="Path-422" stroke="#FFFFFF" stroke-width="2.163"></line>
            <line x1="7.126661" y1="14.7592938" x2="9.64782866" y2="17.2504931" id="Path-423" stroke="#FFFFFF" stroke-width="1.62225" stroke-linecap="round"></line>
            <line x1="14.3141077" y1="7.52702658" x2="16.8352754" y2="10.0182259" id="Path-423" stroke="#FFFFFF" stroke-width="1.62225" stroke-linecap="round"></line>
            <line x1="11.9405374" y1="9.77689511" x2="14.461705" y2="12.2680945" id="Path-423" stroke="#FFFFFF" stroke-width="1.62225" stroke-linecap="round"></line>
            <line x1="9.483795" y1="12.2680945" x2="12.0049627" y2="14.7592938" id="Path-423" stroke="#FFFFFF" stroke-width="1.62225" stroke-linecap="round"></line>
        </g>
    </g>
</svg>