<?xml version="1.0" encoding="UTF-8"?>
<svg width="48px" height="48px" viewBox="0 0 48 48" version="1.1" xmlns="http://www.w3.org/2000/svg" xmlns:xlink="http://www.w3.org/1999/xlink">
    <!-- Generator: Sketch 59 (86127) - https://sketch.com -->
    <title>40_Bottom_Panda</title>
    <desc>Created with Sketch.</desc>
    <g id="SVGs" stroke="none" stroke-width="1" fill="none" fill-rule="evenodd">
        <g id="Slices" transform="translate(-649.000000, -295.000000)"></g>
        <path d="M29.6674564,18.6828613 C31.5504317,21.9627279 32.6895918,25.2685954 33.0849369,28.6004639 C33.4802819,31.9323324 33.4802819,34.0321045 33.0849369,34.8997803 C33.2582534,34.9332812 33.3826837,35.027194 33.4582279,35.1815186 C33.5315571,35.3313184 33.5315571,35.6116571 33.2648685,35.7830811 C32.3046939,36.4002686 31.5724552,36.8340149 29.6674564,36.7565918 C29.1740439,36.7365385 28.905402,36.6703491 28.8049991,36.5091553 C28.7380639,36.4016927 28.7380639,36.2328796 28.8049991,36.0027161 C28.0059103,35.4504659 27.4547324,34.9195313 27.1514652,34.4099121 C25.9816849,32.4441785 25.6008662,29.6153806 25.1353519,27.7883301 C24.8685314,26.7411127 24.5533967,25.0771881 24.3545119,24.3544498 C24.1558077,25.0771881 23.8406731,26.7411127 23.5738525,27.7883301 C23.1083383,29.6153806 22.7275196,32.4441785 21.5577393,34.4099121 C21.2544721,34.9195313 20.7032941,35.4504659 19.9042053,36.0027161 C19.9711405,36.2328796 19.9711405,36.4016927 19.9042053,36.5091553 C19.8038025,36.6703491 19.5351606,36.7365385 19.041748,36.7565918 C17.1367493,36.8340149 16.4045105,36.4002686 15.4443359,35.7830811 C15.1776473,35.6116571 15.1776473,35.3313184 15.2509766,35.1815186 C15.3265207,35.027194 15.4509511,34.9332812 15.6242676,34.8997803 C15.2289225,34.0321045 15.2289225,31.9323324 15.6242676,28.6004639 C16.0196126,25.2685954 17.1587728,21.9627279 19.041748,18.6828613 L19.041748,18.6828613 L24.3542044,19.9708613 L29.6674564,18.6828613 Z" id="Combined-Shape" fill="#5B5A55"></path>
        <path d="M20.0047849,10.7165244 L28.6997395,10.7165244 C29.2382849,10.7165244 29.6801044,11.1430125 29.6991162,11.6812223 L29.9401482,18.5046622 C29.9570845,18.9846782 29.6303643,19.4089431 29.1619453,19.5151783 C28.1192971,19.7516458 27.3593827,20.0006554 26.8822021,20.262207 C26.4440531,20.5023647 25.8959795,21.0408316 25.2379811,21.8776076 L25.2379745,21.8776025 C24.8965935,22.3117365 24.2679143,22.3869276 23.8337803,22.0455466 C23.7856751,22.0077191 23.7411439,21.9655557 23.7007472,21.919587 C22.9398298,21.0537168 22.3289281,20.5012568 21.868042,20.262207 C21.3734657,20.005683 20.5932279,19.7570301 19.5273286,19.5162484 C19.0576504,19.410125 18.7302784,18.9843581 18.7484055,18.5031812 L19.0054938,11.6788786 C19.0257335,11.1416233 19.4671486,10.7165244 20.0047849,10.7165244 Z" id="Path-406" fill="#F6F3E2"></path>
        <line x1="19.041748" y1="12.8658447" x2="29.6650391" y2="12.8658447" id="Path-409" stroke="#939393"></line>
        <line x1="23.8112793" y1="10.7165244" x2="23.8112793" y2="18.4978027" id="Path-410" stroke="#939393"></line>
        <path d="M25.7501221,10.7165244 L25.7501221,16.4520874 C25.7779541,17.4885864 25.1945801,18.0068359 24,18.0068359" id="Path-411" stroke="#939393"></path>
    </g>
</svg>