<?xml version="1.0" encoding="UTF-8"?>
<svg width="48px" height="48px" viewBox="0 0 48 48" version="1.1" xmlns="http://www.w3.org/2000/svg" xmlns:xlink="http://www.w3.org/1999/xlink">
    <!-- Generator: Sketch 59 (86127) - https://sketch.com -->
    <title>40_Headgear_Hockey</title>
    <desc>Created with Sketch.</desc>
    <g id="SVGs" stroke="none" stroke-width="1" fill="none" fill-rule="evenodd">
        <g id="Slices" transform="translate(-944.000000, -828.000000)"></g>
        <g id="Group-196" transform="translate(12.000000, 13.000000)">
            <circle id="Oval" fill="#050505" cx="11.2922532" cy="10.5" r="1"></circle>
            <path d="M24.8117647,12.3051381 C24.8117647,10.8335934 24.3604527,9.34918683 23.5584779,7.98397397 C24.1187913,5.84710715 24.7896846,1.59285571 23.4077548,0.674076116 C21.5557693,-0.557221175 18.2870322,2.26828448 17.3667608,2.86381804 C15.9890513,2.33823486 14.483291,2.0384307 12.9058824,2.0384307 C11.3563459,2.0384307 9.87594815,2.32773362 8.51815429,2.83616938 C7.51781173,2.27221361 4.59270998,-0.244553819 2.74291842,0.544956957 C0.799229418,1.37454416 1.88571593,6.39969109 2.31862692,7.874292 C1.47586702,9.26948353 1,10.7940927 1,12.3051381 C1.40374449,12.3119564 2.02926838,10.9787875 2.80909876,11.0212402 C5.15236062,11.1488037 8.9551478,11.3593598 12.8156907,11.3602295 C16.5670911,11.3610746 20.3126389,11.2408447 22.7984569,11.0248082 C23.6585924,10.9500559 24.3643308,12.3137217 24.8117647,12.3051381 Z" id="Oval-2" fill="#343234" fill-rule="nonzero"></path>
            <path d="M11.8607957,10.7008057 C12.1369381,10.7008057 12.3607957,10.476948 12.3607957,10.2008057 C12.3607957,9.92466329 12.1369381,9.70080566 11.8607957,9.70080566 C11.5846533,9.70080566 11.3607957,9.92466329 11.3607957,10.2008057 C11.3607957,10.476948 11.5846533,10.7008057 11.8607957,10.7008057 Z" id="Oval" fill="#050505"></path>
            <path d="M13.8607957,10.7008057 C14.1369381,10.7008057 14.3607957,10.476948 14.3607957,10.2008057 C14.3607957,9.92466329 14.1369381,9.70080566 13.8607957,9.70080566 C13.5846533,9.70080566 13.3607957,9.92466329 13.3607957,10.2008057 C13.3607957,10.476948 13.5846533,10.7008057 13.8607957,10.7008057 Z" id="Oval" fill="#050505"></path>
            <path d="M9.76924295,8.56921387 L16.1209886,8.56921387 C16.6732733,8.56921387 17.1209886,9.01692912 17.1209886,9.56921387 L17.1209886,11 C17.1209886,11.5522847 16.6732733,12 16.1209886,12 L9.76924295,12 C9.2169582,12 8.76924295,11.5522847 8.76924295,11 L8.76924295,9.56921387 C8.76924295,9.01692912 9.2169582,8.56921387 9.76924295,8.56921387 Z" id="Rectangle" stroke="#050505" stroke-width="0.5"></path>
            <path d="M2.31862692,7.874292 C0.785500822,10.5110758 0.477474557,13.9418132 1.39454812,18.1665039 C1.54183968,18.8450332 2.10814421,19.2048151 3.0934617,19.2458496 C2.13045631,16.2666829 1.90033343,13.5179036 2.40309305,10.9995117 C2.41817494,10.9239644 2.39001957,9.88222452 2.31862692,7.874292 Z" id="Path-516" fill="#343234"></path>
            <path d="M24.1087051,7.874292 C22.575579,10.5110758 22.2675527,13.9418132 23.1846263,18.1665039 C23.3319179,18.8450332 23.9186081,19.1319391 24.9446971,19.0272217 C23.9732282,16.1374105 23.7388735,13.4333089 24.2416331,10.914917 C24.256715,10.8393697 24.2124057,9.82582804 24.1087051,7.874292 Z" id="Path-516" fill="#343234" transform="translate(23.807226, 13.461257) scale(-1, 1) translate(-23.807226, -13.461257) "></path>
            <path d="M8.53047342,2.86471558 C9.57252664,5.00047811 11.0489569,6.06237793 12.9597642,6.05041504 C14.8705715,6.03845215 16.3345913,4.98439535 17.3518235,2.88824463" id="Path-517" stroke="#050505" stroke-width="0.5"></path>
            <path d="M3.33143777,18.2993164 C3.87273636,18.0226665 4.22637405,17.7654237 4.39235086,17.5275879 C4.55832767,17.2897521 4.7016789,16.8348368 4.82240457,16.1628418 L5.79410233,18.161923 L7.30281162,17.8649427 C7.60916033,17.8046399 7.92537262,17.8168993 8.22613296,17.9007395 L10.3619274,18.4961157 C10.6004867,18.5626663 10.8552498,18.5382778 11.0768716,18.4277187 C11.6474836,18.1430612 12.219481,18.0007324 12.7928636,18.0007324 C13.3670642,18.0007324 13.9416634,18.1434676 14.5166611,18.4289379 C14.7379144,18.5387671 14.9919867,18.5628358 15.2299237,18.4964923 L17.3476467,17.9060122 C17.642872,17.8236952 17.9530666,17.8103298 18.2542782,17.8669479 L19.8024716,18.157959 L19.8024716,18.157959 L20.7642736,16.1540626 C20.8986954,16.849618 21.087628,17.3337049 21.3310716,17.6063232 C21.5745151,17.8789416 22.0241407,18.1099393 22.6799485,18.2993164 L23.7010667,11.5147705 L2.18470926,11.5147705 L3.33143777,18.2993164 Z" id="Path-519" fill="#000000"></path>
            <path d="M3.0934617,13.5600708 C3.17341775,15.4882853 3.32191629,16.9745483 3.5389573,18.0188599" id="Path-523" stroke="#D0A573" stroke-linecap="round"></path>
            <path d="M22.2165696,13.5712891 C22.2965257,15.4995036 22.4450242,16.9857666 22.6620652,18.0300781" id="Path-523" stroke="#D0A573" stroke-linecap="round" transform="translate(22.439317, 15.800684) scale(-1, 1) translate(-22.439317, -15.800684) "></path>
            <path d="M9.84790777,13.6703427 C10.8478201,13.7492451 11.8645413,13.7886963 12.8980713,13.7886963 C13.9465364,13.7886963 14.9951079,13.7480967 16.0437857,13.6668974 C16.5944241,13.6242576 17.0753682,14.0360751 17.1180042,14.5867137 C17.119993,14.6123988 17.1209886,14.6381511 17.1209886,14.6639131 L17.1209886,16.215874 C17.1209886,16.6762913 16.8066215,17.0772053 16.3594909,17.1870159 L15.3399161,17.4374129 C15.1379623,17.4870093 14.9255702,17.4724129 14.7323004,17.395654 C14.0681611,17.1318847 13.4190577,17 12.78499,17 C12.1620847,17 11.540774,17.1272821 10.921058,17.3818462 C10.7149722,17.4664859 10.4865243,17.4798953 10.2719553,17.4199339 L9.50010371,17.2042395 C9.06802594,17.0834951 8.76924295,16.6897699 8.76924295,16.2411382 L8.76924295,14.6672441 C8.76924264,14.1149592 9.21695803,13.6672438 9.76924295,13.6672438 C9.79549507,13.6672438 9.821737,13.6682776 9.84790777,13.6703427 Z" id="Rectangle" fill="#D0A573"></path>
            <path d="M2.97535867,18.7785645 C2.26482807,15.0367839 2.24330301,12.4955241 2.91078348,11.1547852 C3.85837588,11.3157583 7.48968153,11.6987537 12.8111741,11.6787109 C18.1326667,11.6586681 21.7365891,11.3432617 23.1433274,11.1826172 C23.3349778,12.1412354 23.7475755,16.0020752 22.7309739,18.5474854" id="Path-518" stroke="#979797" stroke-linecap="round" stroke-linejoin="round"></path>
            <path d="M6.4752366,5.07275391 C4.93438374,5.54321289 3.60133523,6.52514648 2.47609109,8.01855469" id="Path-520" stroke="#050505" stroke-width="0.5" stroke-linecap="round" stroke-linejoin="round"></path>
            <path d="M23.3285081,5.07275391 C21.7876552,5.54321289 20.4546067,6.52514648 19.3293626,8.01855469" id="Path-520" stroke="#050505" stroke-width="0.5" stroke-linecap="round" stroke-linejoin="round" transform="translate(21.328935, 6.545654) scale(-1, 1) translate(-21.328935, -6.545654) "></path>
            <path d="M1.26719827,10.3080576 C3.30188829,10.7224455 5.82741219,10.9885212 8.74887693,11.1076173 L8.78960897,10.1084472 C5.91786081,9.99137786 3.55721528,9.7308423 1.58006448,9.32817291 L1.26719827,10.3080576 Z" id="Path-521" fill="#050505" fill-rule="nonzero"></path>
            <path d="M16.9438223,10.3079721 C18.9699672,10.722423 21.5759712,10.9885164 24.4975539,11.1076173 L24.5382859,10.1084472 C21.6666557,9.99138267 19.2456625,9.73086471 17.2774226,9.32825835 L16.9438223,10.3079721 Z" id="Path-521" fill="#050505" fill-rule="nonzero" transform="translate(20.741054, 10.217938) scale(-1, 1) translate(-20.741054, -10.217938) "></path>
            <path d="M4.85920877,8.96118164 C5.78140929,9.11153158 6.75984353,9.21323649 7.7945115,9.26629639" id="Path-522" stroke="#050505" stroke-width="0.5" stroke-linecap="round"></path>
            <path d="M18.1264817,8.96118164 C19.0486822,9.11153158 20.0271165,9.21323649 21.0617845,9.26629639" id="Path-522" stroke="#050505" stroke-width="0.5" stroke-linecap="round" transform="translate(19.594133, 9.113739) scale(-1, 1) translate(-19.594133, -9.113739) "></path>
            <path d="M1.49211707,18.7697103 C1.4258933,20.6383921 1.67393528,21.6656272 2.36056221,21.8486235 C2.78942017,21.9629205 3.08200615,21.6659461 3.22433243,21.1029609 C3.34411973,20.6291308 3.38501924,19.9056011 3.35106392,18.9233696 C3.3462937,18.7853808 3.23056469,18.6773859 3.09257593,18.6821561 C2.95458717,18.6869263 2.8465922,18.8026553 2.85136241,18.9406441 L2.86234325,19.4732393 C2.86570005,20.1422032 2.82409166,20.6461309 2.73958296,20.9804131 C2.65648606,21.3091109 2.57772934,21.3890489 2.48932506,21.3654878 C2.15590893,21.2766275 1.95164719,20.4844805 1.98597167,18.9865889 C1.98649645,18.9636881 1.71194379,18.7669354 1.56928519,18.597779 C1.52376633,18.641249 1.49452233,18.7018397 1.49211707,18.7697103 Z" id="Path-524" fill="#000000" fill-rule="nonzero"></path>
            <path d="M22.3242129,18.7697103 C22.2579891,20.6383921 22.5060311,21.6656272 23.1926581,21.8486235 C23.621516,21.9629205 23.914102,21.6659461 24.0564283,21.1029609 C24.1762156,20.6291308 24.2171151,19.9056011 24.1831598,18.9233696 C24.1783896,18.7853808 24.0626605,18.6773859 23.9246718,18.6821561 C23.786683,18.6869263 23.678688,18.8026553 23.6834583,18.9406441 L23.6944391,19.4732393 C23.6977959,20.1422032 23.6561875,20.6461309 23.5716788,20.9804131 C23.4885819,21.3091109 23.4098252,21.3890489 23.3214209,21.3654878 C22.9858752,21.2760599 22.781139,20.4743327 22.8187545,18.9578009 C22.6486422,18.8989868 22.466971,18.8207703 22.3416578,18.6862331 C22.3313603,18.7121498 22.3252572,18.7402439 22.3242129,18.7697103 Z" id="Path-524" fill="#000000" fill-rule="nonzero" transform="translate(23.254276, 20.277428) scale(-1, 1) translate(-23.254276, -20.277428) "></path>
        </g>
    </g>
</svg>