<?xml version="1.0" encoding="UTF-8"?>
<svg width="49px" height="49px" viewBox="0 0 49 49" version="1.1" xmlns="http://www.w3.org/2000/svg" xmlns:xlink="http://www.w3.org/1999/xlink">
    <!-- Generator: Sketch 59 (86127) - https://sketch.com -->
    <title>40_Props_Githawk</title>
    <desc>Created with Sketch.</desc>
    <g id="SVGs" stroke="none" stroke-width="1" fill="none" fill-rule="evenodd">
        <g id="Slices" transform="translate(-1750.000000, -412.000000)"></g>
        <path d="M11.0050349,17.1127208 C11.9433487,22.6938569 15.293487,26.2901296 21.0554499,27.9015391 C22.2967943,28.2486976 22.3792911,28.668629 22.3380427,29.19463 C22.2967943,29.7206309 21.0012507,31.7507823 20.7035212,32.0542491 C20.4057917,32.3577159 20.8491511,32.7524913 21.3918757,32.9443858 C21.9346003,33.1362804 25.6242976,34.2975352 29.0340876,32.0542491 C29.6634872,31.6401698 29.8462214,31.274464 29.3044734,30.9913829 C28.7627253,30.7083018 27.5403132,29.5295909 27.3222956,29.0009044 C27.104278,28.4722179 27.2784724,27.9015391 27.6534724,27.9015391 C28.0284724,27.9015391 36.0404353,26.4664806 37.8197321,17.1127208 C37.2416071,17.1127208 37.3513484,17.1093028 36.8811335,17.4211925 C36.4109187,17.7330821 31.2671198,20.6329845 26.616363,20.9951671 C25.9321226,21.048453 25.4405818,20.5543712 25.2658991,19.9905284 C25.0912165,19.4266856 24.5992121,17.6736339 22.9657282,17.9237559 C21.3322443,18.173878 20.4840388,19.3389171 20.2615046,19.5403331 C20.0389704,19.7417491 19.9880671,19.9905284 20.2615046,19.9905284 C20.5349421,19.9905284 21.2857356,19.8560069 21.3918757,20.4833263 C21.4980158,21.1106456 21.0542902,21.3393443 20.7901301,21.418568 C20.5259699,21.4977916 17.2618708,21.7795909 11.7970271,17.6545909 C11.4878183,17.4211925 11.3779749,17.2985881 11.2928462,17.1905406 C11.2516884,17.1383023 11.1680598,17 11.0743556,17 C11.0118861,17 10.9887792,17.0375736 11.0050349,17.1127208 Z" id="Path-428" fill="#9EB4EE"></path>
    </g>
</svg>