<?xml version="1.0" encoding="UTF-8"?>
<svg width="48px" height="48px" viewBox="0 0 48 48" version="1.1" xmlns="http://www.w3.org/2000/svg" xmlns:xlink="http://www.w3.org/1999/xlink">
    <!-- Generator: Sketch 59 (86127) - https://sketch.com -->
    <title>41_Bottom_French</title>
    <desc>Created with Sketch.</desc>
    <g id="SVGs" stroke="none" stroke-width="1" fill="none" fill-rule="evenodd">
        <g id="Slices" transform="translate(-708.000000, -295.000000)"></g>
        <g id="Group-13" transform="translate(14.000000, 10.000000)">
            <path d="M9.72791478,10.0215635 L6.06713512,28.2827539 L6.06713512,28.2827539 L0.577500157,27.2454766 L3.23444141,0.332559056 L17.2365163,0.332559056 L19.8557,27.2454766 L14.366065,28.2827539 L10.7185591,10.0216202 C10.6714023,9.78553083 10.4641316,9.61556645 10.2233787,9.61556645 C9.98258695,9.61556645 9.77524411,9.78546898 9.72791478,10.0215635 Z" id="Combined-Shape" stroke="#D42F2E" stroke-width="0.771552" fill="#D42F2E" fill-rule="nonzero" stroke-linejoin="round"></path>
            <line x1="4.41081164" y1="19.2570047" x2="3.32451001" y2="26.3922137" id="Line-6" stroke="#951718" stroke-width="0.5400864" stroke-linecap="round" fill-rule="nonzero"></line>
            <line x1="6.03991699" y1="8.2969226" x2="4.9757706" y2="15.2463694" id="Line-6" stroke="#951718" stroke-width="0.5400864" stroke-linecap="round" fill-rule="nonzero"></line>
            <line x1="16.8522012" y1="19.2570047" x2="15.745831" y2="26.524031" id="Line-6" stroke="#951718" stroke-width="0.5400864" stroke-linecap="round" fill-rule="nonzero" transform="translate(16.299016, 22.890518) scale(-1, 1) translate(-16.299016, -22.890518) "></line>
            <line x1="15.1130371" y1="8.41473647" x2="13.962616" y2="15.2463694" id="Line-6" stroke="#951718" stroke-width="0.5400864" stroke-linecap="round" fill-rule="nonzero" transform="translate(14.537827, 11.830553) scale(-1, 1) translate(-14.537827, -11.830553) "></line>
            <line x1="2.76489223" y1="2.17927206" x2="17.6683079" y2="2.17927206" id="Line-4" stroke="#951718" stroke-width="0.5400864" stroke-linecap="round" fill-rule="nonzero"></line>
            <path d="M9.79101351,2.32433784 L9.79101351,9.44451295 C10.9270278,8.91180569 11.4950349,8.1384344 11.4950349,7.12439907 C11.4950349,6.11036374 11.4950349,3.81668392 11.4950349,0.243359597" id="Path-10" stroke="#951718" stroke-width="0.5400864" stroke-linecap="round" stroke-linejoin="round" fill-rule="nonzero"></path>
            <line x1="0.34362793" y1="25.833252" x2="6.67053223" y2="27.105957" id="Path-427" stroke="#951718" stroke-width="0.5"></line>
            <line x1="13.7382813" y1="25.833252" x2="20.0651855" y2="27.105957" id="Path-427" stroke="#951718" stroke-width="0.5" transform="translate(16.901733, 26.469604) scale(-1, 1) translate(-16.901733, -26.469604) "></line>
        </g>
        <path d="M24,11.2956308 C24.169677,11.2956308 24.3072275,11.1580804 24.3072275,10.9884033 C24.3072275,10.8187263 24.169677,10.6811759 24,10.6811759 C23.830323,10.6811759 23.6927725,10.8187263 23.6927725,10.9884033 C23.6927725,11.1580804 23.830323,11.2956308 24,11.2956308 Z" id="Oval-34" stroke="#F5CD2E" stroke-width="0.9" fill="#F5CD2E" fill-rule="nonzero"></path>
    </g>
</svg>