<?xml version="1.0" encoding="UTF-8"?>
<svg width="49px" height="49px" viewBox="0 0 49 49" version="1.1" xmlns="http://www.w3.org/2000/svg" xmlns:xlink="http://www.w3.org/1999/xlink">
    <!-- Generator: Sketch 59 (86127) - https://sketch.com -->
    <title>41_Props_Semmle</title>
    <desc>Created with Sketch.</desc>
    <g id="SVGs" stroke="none" stroke-width="1" fill="none" fill-rule="evenodd">
        <g id="Slices" transform="translate(-1815.000000, -412.000000)"></g>
        <g id="Group-168" transform="translate(11.000000, 18.000000)">
            <path d="M13.379206,-1.24344979e-14 C18.1391907,-1.24344979e-14 20.921651,1.59222674 22.1403234,3.7964482 C22.8299353,3.22899703 23.4370729,2.09379716 24.059748,1.2010498 C24.5534004,0.493286133 25.108332,0.365804036 25.724543,0.818603516 C26.5472071,1.52979229 26.9019027,2.47441306 26.7886299,3.65246582 C26.5654257,5.97381917 25.2620725,6.98680964 22.8785703,6.69143723 L22.879206,6.76489258 C22.879206,9.79305144 20.3400499,12.7656287 16.2438301,13.4877584 C15.4840238,13.621706 14.5513252,14.2648926 13.379206,14.2648926 C12.2070869,14.2648926 11.1556927,13.5920997 10.2688545,13.4047852 C6.39182482,12.5858939 3.87920604,9.68645941 3.87920604,6.76489258 C3.87920604,6.74218891 3.87931717,6.71950183 3.87953972,6.69683204 C1.52870903,6.97239183 0.242186472,5.95737458 0.0205634669,3.65246582 C-0.0927093871,2.47441306 0.261986251,1.52979229 1.08465038,0.818603516 C1.70086132,0.365804036 2.25579296,0.493286133 2.7494453,1.2010498 C3.36160226,2.07871697 3.95874221,3.19071486 4.63425072,3.76930505 C5.86046657,1.57871086 8.63946741,-1.24344979e-14 13.379206,-1.24344979e-14 Z" id="Combined-Shape" fill="#7A62D1"></path>
            <circle id="Oval" fill="#FFFFFF" cx="8.74383007" cy="6.76489258" r="3.5"></circle>
            <path d="M18.0513252,10.2648926 C19.9843218,10.2648926 21.5513252,8.6978892 21.5513252,6.76489258 C21.5513252,4.83189595 19.9843218,3.26489258 18.0513252,3.26489258 C16.1183286,3.26489258 14.5513252,4.83189595 14.5513252,6.76489258 C14.5513252,8.6978892 16.1183286,10.2648926 18.0513252,10.2648926 Z" id="Oval" fill="#FFFFFF"></path>
            <path d="M9.04595409,5.26489258 C9.87438122,5.26489258 10.5459541,5.93646545 10.5459541,6.76489258 C10.5459541,7.5933197 9.87438122,8.26489258 9.04595409,8.26489258 C8.21752697,8.26489258 7.54595409,7.5933197 7.54595409,6.76489258 C7.54595409,6.61088772 7.56916293,6.46230357 7.61227379,6.32244695 C7.72966071,6.58365307 7.99164202,6.76489258 8.29595409,6.76489258 C8.71016765,6.76489258 9.04595409,6.42910614 9.04595409,6.01489258 C9.04595409,5.71058051 8.86471458,5.44859919 8.60428826,5.33100133 C8.74336508,5.28810142 8.89194923,5.26489258 9.04595409,5.26489258 Z" id="Combined-Shape" fill="#380D16"></path>
            <path d="M17.7438301,5.26489258 C18.5722572,5.26489258 19.2438301,5.93646545 19.2438301,6.76489258 C19.2438301,7.5933197 18.5722572,8.26489258 17.7438301,8.26489258 C16.9154029,8.26489258 16.2438301,7.5933197 16.2438301,6.76489258 C16.2438301,6.61088772 16.2670389,6.46230357 16.3101498,6.32244695 C16.4275367,6.58365307 16.689518,6.76489258 16.9938301,6.76489258 C17.4080436,6.76489258 17.7438301,6.42910614 17.7438301,6.01489258 C17.7438301,5.71058051 17.5625906,5.44859919 17.3021642,5.33100133 C17.4412411,5.28810142 17.5898252,5.26489258 17.7438301,5.26489258 Z" id="Combined-Shape" fill="#380D16"></path>
            <path d="M12.6272529,10.7173462 C12.4194486,11.0137329 12.4194486,11.3145345 12.6272529,11.619751" id="Path-429" stroke="#380D16" stroke-width="0.7" stroke-linecap="round"></path>
            <path d="M14.3583625,10.7173462 C14.1505582,11.0137329 14.1505582,11.3145345 14.3583625,11.619751" id="Path-429" stroke="#380D16" stroke-width="0.7" stroke-linecap="round" transform="translate(14.280436, 11.168549) scale(-1, 1) translate(-14.280436, -11.168549) "></path>
            <path d="M1.91919933,3.28788757 C1.79624401,3.52830505 1.62406383,4.01538086 1.8608955,4.53985596 C2.09772716,5.06433105 2.7368568,4.95800781 2.93749462,4.82055664 C3.01592428,4.76682675 3.30077587,4.53845215 3.11913524,4.22839355 C2.93749462,3.91833496 2.42664562,3.35426331 2.34430919,3.28788757 C2.26197277,3.22151184 2.02585289,3.07934532 1.91919933,3.28788757 Z" id="Path-430" fill="#380D16"></path>
            <path d="M23.9191993,3.28788757 C23.796244,3.52830505 23.6240638,4.01538086 23.8608955,4.53985596 C24.0977272,5.06433105 24.7368568,4.95800781 24.9374946,4.82055664 C25.0159243,4.76682675 25.3007759,4.53845215 25.1191352,4.22839355 C24.9374946,3.91833496 24.4266456,3.35426331 24.3443092,3.28788757 C24.2619728,3.22151184 24.0258529,3.07934532 23.9191993,3.28788757 Z" id="Path-430" fill="#380D16" transform="translate(24.460696, 4.055773) scale(-1, 1) translate(-24.460696, -4.055773) "></path>
        </g>
    </g>
</svg>