<?xml version="1.0" encoding="UTF-8"?>
<svg width="48px" height="48px" viewBox="0 0 48 48" version="1.1" xmlns="http://www.w3.org/2000/svg" xmlns:xlink="http://www.w3.org/1999/xlink">
    <!-- Generator: Sketch 59 (86127) - https://sketch.com -->
    <title>42_Bottom_Hockey</title>
    <desc>Created with Sketch.</desc>
    <g id="SVGs" stroke="none" stroke-width="1" fill="none" fill-rule="evenodd">
        <g id="Slices" transform="translate(-766.000000, -294.000000)"></g>
        <g id="Group-194" transform="translate(9.087409, 10.968628)">
            <path d="M6.94575653,0.370361328 C6.93506746,0.391975762 9.58855063,1.15249477 14.666253,1.14428711 C18.0513878,1.13881533 20.8083052,0.880840073 22.9370049,0.370361328 L22.9370049,3.14526367 L6.94575653,2.96337891 C6.96136175,1.20336914 6.96136175,0.339029948 6.94575653,0.370361328 Z" id="Path-513" fill="#171717"></path>
            <path d="M14.5406426,0 C16.1974969,-3.04359188e-16 17.5406426,1.34314575 17.5406426,3 L17.5406426,5 L17.5406426,5 L11.5406426,5 L11.5406426,3 C11.5406426,1.34314575 12.8837884,3.04359188e-16 14.5406426,0 Z" id="Rectangle" fill="#8D1514"></path>
            <path d="M14.8105128,13.8260341 C14.6485175,13.8260341 14.5027198,13.9243153 14.4419494,14.07448 L10.8349541,22.9874268 L10.8349541,22.9874268 L2.36425101,21.5172119 L6.51171194,6.59118652 L6.69507532,4.19468274 L22.9259504,4.19468274 L23.1325616,6.54089355 L27.3334893,21.2991943 L18.7558526,23.1400146 L15.1769575,14.075327 C15.1175615,13.9248878 14.9722529,13.8260341 14.8105128,13.8260341 Z" id="Combined-Shape" stroke="#3D3D3D" stroke-width="0.8208" fill="#3D3D3D" fill-rule="nonzero" stroke-linecap="round" stroke-linejoin="round"></path>
            <path d="M13.5161007,5.40705957 C14.2228301,8.54023537 13.758916,11.8775288 12.1180641,15.4251321 C12.1863237,15.5770745 12.2694036,15.7882182 12.367304,16.0585632 C14.2218434,12.2517621 14.765848,8.67525756 14.0038467,5.29704199 L13.5161007,5.40705957 Z" id="Path-514" fill="#000000" fill-rule="nonzero" transform="translate(13.227623, 10.677803) scale(-1, 1) translate(-13.227623, -10.677803) "></path>
            <path d="M16.6635909,5.40705957 C17.3703203,8.54023537 16.9064062,11.8775288 15.265542,15.4251321 C15.3338098,15.5770745 15.4168938,15.7882182 15.5147942,16.0585632 C17.3693336,12.2517621 17.9133382,8.67525756 17.1513369,5.29704199 L16.6635909,5.40705957 Z" id="Path-514" fill="#000000" fill-rule="nonzero"></path>
            <path d="M6.23995991,5.53242831 L6.23995991,0.682891524 C6.24000641,0.462003307 6.41907169,0.282938027 6.63995991,0.282938027 C6.70206332,0.282938027 6.76331349,0.297400244 6.81885788,0.32517891 C10.121212,1.97674067 12.6586322,2.81562724 14.4311185,2.84183864 C16.2185069,2.8682704 19.0161991,2.01790271 22.8241952,0.290735565 C23.0253827,0.199478076 23.2624539,0.288600042 23.3537062,0.489789879 C23.3772471,0.541692072 23.3894254,0.598025478 23.3894254,0.65501682 L23.3894254,5.53242831 L23.3894254,5.53242831 L6.23995991,5.53242831 Z" id="Path-512" fill="#3D3D3D"></path>
            <path d="M6.65035991,3.94282831 L6.65035991,5.12202831 L22.9790254,5.12202831 L22.9790254,3.94282831 L6.65035991,3.94282831 Z" id="Rectangle-6" stroke="#000000" stroke-width="0.8208" fill="#000000" fill-rule="nonzero"></path>
            <path d="M13.0215593,6.61820478 C13.6196756,6.01276782 13.9641752,5.18369005 14.055058,4.13097147 C13.0856875,4.16556195 12.2000975,4.4056445 11.3982879,4.85121911 C10.1955735,5.51958103 9.81990624,6.58190528 10.4990448,7.2502672 C11.1781833,7.91862912 12.1243848,7.52636022 13.0215593,6.61820478 Z" id="Oval-5" stroke="#D7D6D9" stroke-width="0.8208" stroke-linejoin="round" fill-rule="nonzero"></path>
            <line x1="11.9454042" y1="11.6782073" x2="14.4311185" y2="4.28535018" id="Line-2" stroke="#D7D6D9" stroke-width="0.8208" stroke-linecap="round" stroke-linejoin="round" fill-rule="nonzero"></line>
            <line x1="17.7454042" y1="11.6782073" x2="14.4311185" y2="4.28535018" id="Line-3" stroke="#D7D6D9" stroke-width="0.8208" stroke-linecap="round" stroke-linejoin="round" fill-rule="nonzero"></line>
            <path d="M17.6851289,6.61820478 C18.2832452,6.01276782 18.6277448,5.18369005 18.7186276,4.13097147 C17.7492571,4.16556195 16.8636671,4.4056445 16.0618575,4.85121911 C14.8591431,5.51958103 14.4834758,6.58190528 15.1626144,7.2502672 C15.8417529,7.91862912 16.7879544,7.52636022 17.6851289,6.61820478 Z" id="Oval-5" stroke="#D7D6D9" stroke-width="0.8208" stroke-linejoin="round" fill-rule="nonzero" transform="translate(16.772634, 5.858320) scale(-1, 1) translate(-16.772634, -5.858320) "></path>
            <path d="M3.84447561,12.1878662 L13.1882613,19.1068726 C13.0215708,20.3543905 12.7917412,21.4626058 12.4987725,22.4315186 C12.2058037,23.4004313 11.7822198,24.4286834 11.2280205,25.5162748 L0.725090849,24.1585693 C0.629608558,21.6857442 0.84909098,19.5010925 1.38353811,17.6046143 C1.91798525,15.708136 2.73829775,13.9025533 3.84447561,12.1878662 Z" id="Path-510" fill="#3D3D3D"></path>
            <path d="M19.5802605,12.1878662 L28.9240462,19.1068726 C28.7573557,20.3543905 28.5275261,21.4626058 28.2345574,22.4315186 C27.9415886,23.4004313 27.5180046,24.4286834 26.9638054,25.5162748 L16.4608757,24.1585693 C16.3653934,21.6857442 16.5848759,19.5010925 17.119323,17.6046143 C17.6537701,15.708136 18.4740826,13.9025533 19.5802605,12.1878662 Z" id="Path-510" fill="#3D3D3D" transform="translate(22.681606, 18.852071) scale(-1, 1) translate(-22.681606, -18.852071) "></path>
            <path d="M0.767083037,24.0123291 L11.2280205,25.5162748 C11.9847413,23.9855682 12.6381549,21.8491007 13.1882613,19.1068726 C11.7271373,18.0256144 8.61707897,15.7232666 3.85808645,12.1998291" id="Path-511" stroke="#000000" stroke-width="0.5"></path>
            <path d="M16.5479311,24.0275269 L26.983417,25.5162748 C27.7401377,23.9855682 28.3935513,21.8491007 28.9436577,19.1068726 C27.4825337,18.0256144 24.3930849,15.7462972 19.6753115,12.2689209" id="Path-511" stroke="#000000" stroke-width="0.5" transform="translate(22.745794, 18.892598) scale(-1, 1) translate(-22.745794, -18.892598) "></path>
        </g>
        <g id="Group-9" transform="translate(9.000000, 10.000000)">
            <g id="Group-8" transform="translate(0.703382, 0.316349)"></g>
        </g>
    </g>
</svg>