<?xml version="1.0" encoding="UTF-8"?>
<svg width="48px" height="48px" viewBox="0 0 48 48" version="1.1" xmlns="http://www.w3.org/2000/svg" xmlns:xlink="http://www.w3.org/1999/xlink">
    <!-- Generator: Sketch 59 (86127) - https://sketch.com -->
    <title>42_Props_Kimono</title>
    <desc>Created with Sketch.</desc>
    <g id="SVGs" stroke="none" stroke-width="1" fill="none" fill-rule="evenodd">
        <g id="Slices" transform="translate(-1927.000000, -413.000000)"></g>
        <g id="Group-176" transform="translate(11.000000, 11.000000)">
            <line x1="1.44921875" y1="11.6611328" x2="1.44921875" y2="24.8974609" id="Path-452" stroke="#D0A573"></line>
            <line x1="12.6046143" y1="23.5310059" x2="-2.93098879e-14" y2="23.5310059" id="Path-453" stroke="#D0A573"></line>
            <line x1="9.63012695" y1="15.276123" x2="0.427246094" y2="24.5559082" id="Path-454" stroke="#D0A573"></line>
            <line x1="5.02868652" y1="12.8029785" x2="0.834960938" y2="24.8974609" id="Path-455" stroke="#D0A573"></line>
            <line x1="12.6046143" y1="19.9160156" x2="0" y2="24.1860352" id="Path-456" stroke="#D0A573"></line>
            <path d="M-1.77635684e-15,0.5859375 L0.695068359,6.71484375 L-1.77635684e-15,12.4138184 C4.04182943,12.509847 7.2430013,13.621582 9.60351562,15.7490234 C11.9640299,17.8764648 13.0004883,20.925944 12.7128906,24.8974609 L18.3579102,24.2148438 L24.645752,24.8974609 L23.6713867,21.578125 L25.2092285,18.2653809 L22.9746094,15.0866699 L23.9885254,11.1999512 L20.605957,9.29785156 L20.1098633,5.12695312 L15.8642578,4.5222168 L14.2182617,1.53295898 L10.2880859,2.41894531 L6.87768555,0 L3.82104492,1.53295898 L-1.77635684e-15,0.5859375 Z" id="Path-451" stroke="#C39BEA" fill="#C39BEA"></path>
            <circle id="Oval" fill="#F3A3F0" cx="8.79296875" cy="12.2983398" r="1"></circle>
            <circle id="Oval" fill="#F3A3F0" cx="10.7929688" cy="9.29833984" r="1"></circle>
            <circle id="Oval" fill="#9EB4EE" cx="11.7929688" cy="13.2983398" r="1"></circle>
            <circle id="Oval" fill="#DB65DB" cx="16.7929688" cy="10.2983398" r="1"></circle>
            <circle id="Oval" fill="#F3A3F0" cx="14.7929688" cy="9.29833984" r="1"></circle>
            <circle id="Oval" fill="#F3A3F0" cx="21.7929688" cy="11.2983398" r="1"></circle>
            <circle id="Oval" fill="#9EB4EE" cx="5.79296875" cy="11.2983398" r="1"></circle>
            <circle id="Oval" fill="#F3A3F0" cx="1.79296875" cy="6.29833984" r="1"></circle>
            <circle id="Oval" fill="#DB65DB" cx="2.79296875" cy="4.29833984" r="1"></circle>
            <circle id="Oval" fill="#9EB4EE" cx="6.79296875" cy="4.29833984" r="1"></circle>
            <circle id="Oval" fill="#F3A3F0" cx="14.7929688" cy="21.2983398" r="1"></circle>
            <circle id="Oval" fill="#DB65DB" cx="15.7929688" cy="23.2983398" r="1"></circle>
            <circle id="Oval" fill="#F3A3F0" cx="20.7929688" cy="22.2983398" r="1"></circle>
            <circle id="Oval" fill="#9EB4EE" cx="22.7929688" cy="23.2983398" r="1"></circle>
            <circle id="Oval" fill="#DB65DB" cx="6.79296875" cy="1.29833984" r="1"></circle>
            <circle id="Oval" fill="#FFFFFF" cx="5.29296875" cy="6.79833984" r="1"></circle>
            <circle id="Oval" fill="#F3A3F0" cx="21.2929688" cy="19.7983398" r="1"></circle>
            <circle id="Oval" fill="#F3A3F0" cx="18.2929688" cy="11.7983398" r="1"></circle>
            <circle id="Oval" fill="#FFFFFF" cx="14.0429688" cy="11.5483398" r="1"></circle>
            <circle id="Oval" fill="#FFFFFF" cx="18.0429688" cy="21.5483398" r="1"></circle>
        </g>
    </g>
</svg>