<?xml version="1.0" encoding="UTF-8"?>
<svg width="49px" height="48px" viewBox="0 0 49 48" version="1.1" xmlns="http://www.w3.org/2000/svg" xmlns:xlink="http://www.w3.org/1999/xlink">
    <!-- Generator: Sketch 59 (86127) - https://sketch.com -->
    <title>43_Props_Aussie</title>
    <desc>Created with Sketch.</desc>
    <g id="SVGs" stroke="none" stroke-width="1" fill="none" fill-rule="evenodd">
        <g id="Slices" transform="translate(-1011.000000, -532.000000)"></g>
        <g id="Group-178" transform="translate(11.000000, 12.000000)">
            <path d="M1,22.4496305 C1.55228475,22.4496305 2,22.0019152 2,21.4496305 C2,20.8973457 1.55228475,20.4496305 1,20.4496305 C0.44771525,20.4496305 0,20.8973457 0,21.4496305 C0,22.0019152 0.44771525,22.4496305 1,22.4496305 Z" id="Oval" fill="#2A4613"></path>
            <path d="M1,19.4496305 C1.55228475,19.4496305 2,19.0019152 2,18.4496305 C2,17.8973457 1.55228475,17.4496305 1,17.4496305 C0.44771525,17.4496305 0,17.8973457 0,18.4496305 C0,19.0019152 0.44771525,19.4496305 1,19.4496305 Z" id="Oval" fill="#2A4613"></path>
            <path d="M1,16.4496305 C1.55228475,16.4496305 2,16.0019152 2,15.4496305 C2,14.8973457 1.55228475,14.4496305 1,14.4496305 C0.44771525,14.4496305 0,14.8973457 0,15.4496305 C0,16.0019152 0.44771525,16.4496305 1,16.4496305 Z" id="Oval" fill="#2A4613"></path>
            <path d="M1,13.4496305 C1.55228475,13.4496305 2,13.0019152 2,12.4496305 C2,11.8973457 1.55228475,11.4496305 1,11.4496305 C0.44771525,11.4496305 0,11.8973457 0,12.4496305 C0,13.0019152 0.44771525,13.4496305 1,13.4496305 Z" id="Oval" fill="#2A4613"></path>
            <path d="M1,10.4496305 C1.55228475,10.4496305 2,10.0019152 2,9.44963046 C2,8.89734571 1.55228475,8.44963046 1,8.44963046 C0.44771525,8.44963046 0,8.89734571 0,9.44963046 C0,10.0019152 0.44771525,10.4496305 1,10.4496305 Z" id="Oval" fill="#2A4613"></path>
            <path d="M1,7.44963046 C1.55228475,7.44963046 2,7.00191521 2,6.44963046 C2,5.89734571 1.55228475,5.44963046 1,5.44963046 C0.44771525,5.44963046 0,5.89734571 0,6.44963046 C0,7.00191521 0.44771525,7.44963046 1,7.44963046 Z" id="Oval" fill="#2A4613"></path>
            <polygon id="Path-470" fill="#851A20" points="11.3780924 9.44963046 18.7362467 17.7124885 18.1302897 18.4631396 10.4765625 10.1313525"></polygon>
            <line x1="16.6371257" y1="9.27425611" x2="16.6371257" y2="10.4496305" id="Path-473" stroke="#FBE6D9" stroke-linecap="round"></line>
            <line x1="20.6371257" y1="9.27425611" x2="20.6371257" y2="10.4496305" id="Path-473" stroke="#FBE6D9" stroke-linecap="round"></line>
            <line x1="24.6371257" y1="9.27425611" x2="24.6371257" y2="10.4496305" id="Path-473" stroke="#FBE6D9" stroke-linecap="round"></line>
            <line x1="12.9750977" y1="12.8275601" x2="14.1270345" y2="11.6928759" id="Path-474" stroke="#FBE6D9" stroke-linecap="round"></line>
            <line x1="15.7787272" y1="15.8389534" x2="16.9306641" y2="14.7042691" id="Path-474" stroke="#FBE6D9" stroke-linecap="round"></line>
            <line x1="18.3991292" y1="18.5843147" x2="19.5510661" y2="17.4496305" id="Path-474" stroke="#FBE6D9" stroke-linecap="round"></line>
            <path d="M1.25406901,23.4006396 L1.25406901,7.06481431 C1.25406901,6.3524577 1.441435,5.65263117 1.79736328,5.03556796 L1.79736328,5.03556796 L1.79736328,5.03556796 C1.70068359,2.78893168 2.35525174,1.27471727 3.76106771,0.492924731 C5.16688368,-0.288867803 6.60611979,-0.140701571 8.07877604,0.937423429 C10.0492622,-0.15849671 11.7940538,-0.15849671 13.313151,0.937423429 C14.8322483,2.03334357 15.0780707,3.62259053 14.0506185,5.70516431 L20.9690755,7.02856926 C20.6901042,5.72811353 20.9236111,4.89700459 21.6695964,4.53524244 C22.9755907,3.90190641 23.9419536,4.4618565 24.5686849,6.2150927 C25.0256076,4.95359096 25.7605794,4.47214565 26.7736003,4.77075676 C27.5674537,5.00476326 27.9023061,5.75736743 27.7781576,7.02856926 C27.5386827,8.48408142 27.0058051,9.21183749 26.1795247,9.21183749 C25.3532444,9.21183749 20.4425456,9.21183749 11.4474284,9.21183749 C10.9446615,9.29622877 10.6584744,9.47586201 10.5888672,9.75073723 C10.4844564,10.1630501 10.5861095,10.4029552 10.9547526,10.7951708 C11.5219184,11.3986035 13.76199,13.95009 17.6749674,18.4496305 C17.9602322,18.7958761 18.48801,18.968999 19.2583008,18.968999 C19.5760091,19.7131396 19.3610026,20.2217659 18.8601888,20.4496305 C18.359375,20.677495 17.3562826,20.4496305 16.5867513,19.7338101 C16.3347883,19.4994334 13.270932,16.8216033 7.39518229,11.7003198 C6.88758681,11.8090182 6.76068793,12.2944113 7.01448568,13.156499 C7.26828342,14.0185866 7.84825304,16.36863 8.75439453,20.2066292 C9.0882704,21.7331049 8.94520399,22.6936083 8.32519531,23.0881396 C6.60895509,24.1802378 4.25191299,24.2844045 1.25406901,23.4006396 Z" id="Path-469" stroke="#A3A81E" fill="#A3A81E" stroke-linejoin="round"></path>
            <circle id="Oval" fill="#EAED75" cx="2.75406901" cy="10.9496305" r="1"></circle>
            <circle id="Oval" fill="#EAED75" cx="2.75406901" cy="13.9496305" r="1"></circle>
            <circle id="Oval" fill="#EAED75" cx="3.75406901" cy="15.9496305" r="1"></circle>
            <circle id="Oval" fill="#EAED75" cx="3.75406901" cy="19.9496305" r="1"></circle>
            <circle id="Oval" fill="#EAED75" cx="1.75406901" cy="20.9496305" r="1"></circle>
            <circle id="Oval" fill="#EAED75" cx="1.75406901" cy="16.9496305" r="1"></circle>
            <circle id="Oval" fill="#FFFFFF" cx="5.75406901" cy="3.94963046" r="2.5"></circle>
            <circle id="Oval" fill="#000000" cx="4.00406901" cy="3.19963046" r="1"></circle>
            <circle id="Oval" fill="#FFFFFF" cx="10.754069" cy="3.94963046" r="2.5"></circle>
            <circle id="Oval" fill="#000000" cx="12.004069" cy="3.19963046" r="1"></circle>
            <path d="M22.7090658,7.09245273 C23.1232793,7.09245273 23.4590658,6.75666629 23.4590658,6.34245273 C23.4590658,5.92823916 23.1232793,5.59245273 22.7090658,5.59245273 C22.2948522,5.59245273 21.9590658,5.92823916 21.9590658,6.34245273 C21.9590658,6.75666629 22.2948522,7.09245273 22.7090658,7.09245273 Z" id="Oval" fill="#656573"></path>
            <path d="M26.1883952,7.19963046 C26.6026087,7.19963046 26.9383952,6.86384402 26.9383952,6.44963046 C26.9383952,6.0354169 26.6026087,5.69963046 26.1883952,5.69963046 C25.7741816,5.69963046 25.4383952,6.0354169 25.4383952,6.44963046 C25.4383952,6.86384402 25.7741816,7.19963046 26.1883952,7.19963046 Z" id="Oval" fill="#656573"></path>
        </g>
    </g>
</svg>