<?xml version="1.0" encoding="UTF-8"?>
<svg width="48px" height="48px" viewBox="0 0 48 48" version="1.1" xmlns="http://www.w3.org/2000/svg" xmlns:xlink="http://www.w3.org/1999/xlink">
    <!-- Generator: Sketch 59 (86127) - https://sketch.com -->
    <title>43_Top_French</title>
    <desc>Created with Sketch.</desc>
    <g id="SVGs" stroke="none" stroke-width="1" fill="none" fill-rule="evenodd">
        <g id="Slices" transform="translate(-946.000000, -176.000000)"></g>
        <g id="Group-10" transform="translate(10.000000, 14.000000)" fill="#F4F4F4" fill-rule="nonzero">
            <path d="M14,1.93710977 C15.832633,1.83990561 17.0609995,1.21395922 17.6850998,0.0592706159 C18.7831511,0.0543140559 19.7498779,0.21887207 20.6153632,0.21887207 C20.9782745,0.337512682 21.2571411,0.602539062 21.4740325,0.86907959 C22.0472344,1.57349478 24.7998499,6.40325675 28,17.4497061 L25.1115578,19 L21.1360474,8.86340138 C21.0216685,8.61265574 20.8864771,8.51516004 20.7304731,8.5709143 C20.5744691,8.62666856 20.4737036,8.82165995 20.4281766,9.15588846 L19.5093994,19.7040028 L8.22973633,19.7040028 L7.37224512,9.15588846 C7.28750935,8.80764712 7.18674387,8.61265574 7.06994867,8.5709143 C6.95315347,8.52917287 6.82375814,8.62666856 6.6817627,8.86340138 L3.11777362,18.8273046 L0,17.4497061 C3.20015008,6.40325675 5.9575042,1.56139917 6.48605448,0.86907959 C6.6817627,0.612731934 6.90746523,0.353604457 7.2322548,0.239442315 C8.08217765,0.21887207 9.1547877,0.0541749951 10.3149002,0.0592706159 C10.9390005,1.21395922 12.167367,1.83990561 14,1.93710977 Z" id="Combined-Shape"></path>
        </g>
        <polygon id="Path-425" fill="#055878" fill-rule="nonzero" points="18.222168 33.7076416 29.6014404 33.7076416 29.6014404 32.7076416 18.222168 32.7076416"></polygon>
        <polygon id="Path-425" fill="#055878" fill-rule="nonzero" points="17.9929199 30.7076416 29.7673035 30.7076416 29.8499146 29.7076416 17.9163818 29.7076416"></polygon>
        <polygon id="Path-425" fill="#055878" fill-rule="nonzero" points="17.7643433 27.7076416 30.0298462 27.7076416 30.1089172 26.7076416 17.6770935 26.7076416"></polygon>
        <polygon id="Path-425" fill="#055878" fill-rule="nonzero" points="17.5029907 24.7076416 30.2764893 24.7076416 30.3771973 23.7076416 17.414917 23.7076416"></polygon>
        <polygon id="Path-425" fill="#055878" fill-rule="nonzero" points="17.222168 21.7076416 30.7072144 21.7076416 30.4495239 20.7076416 17.5692139 20.7076416"></polygon>
        <polygon id="Path-425" fill="#055878" fill-rule="nonzero" points="18.074646 18.4953613 29.8695679 18.4953613 29.8695679 17.4953613 18.074646 17.4953613"></polygon>
        <path d="M24.0044556,16.7941895 C25.4142757,16.7941895 26.6642998,16.1488388 27.7311035,15.052063 L30.3771973,15.052063 L30.6014404,14.2148962 L27.2948062,14.052063 L27.1461064,14.2148962 C26.2300145,15.2180595 25.1917937,15.7941895 24.0044556,15.7941895 C22.8176763,15.7941895 21.7840836,15.2185755 20.8760979,14.2163588 L20.7272497,14.052063 L17.222168,14.2148962 L17.414917,15.052063 L20.2886723,15.052063 C21.3481101,16.1488225 22.594674,16.7941895 24.0044556,16.7941895 Z" id="Path-425" fill="#055878" fill-rule="nonzero"></path>
        <g id="Group-167" transform="translate(10.000000, 16.254578)" fill="#055878" fill-rule="nonzero">
            <polygon id="Path-426" points="-2.08721929e-14 15.1951285 3.11777362 16.5727269 3.45053101 15.6493683 0.27923584 14.2384644"></polygon>
            <polygon id="Path-426" points="0.794716083 12.5479094 4.0291748 14.0234222 4.3686671 13.0838024 1.1051068 11.590212"></polygon>
            <polygon id="Path-426" points="1.65450187 9.87651281 4.97007688 11.387871 5.30818736 10.4427673 1.97909546 8.91882324"></polygon>
            <polygon id="Path-426" points="2.63200588 7.09529216 5.90492249 8.7749939 6.24728362 7.8234607 2.98086558 6.15043625"></polygon>
            <polygon id="Path-426" points="3.71611697 4.27957736 6.89409678 6.07417242 7.2322548 5.11670308 4.10453554 3.35049"></polygon>
            <polygon id="Path-426" points="5.20454224 0.913729645 7.91822587 2.99125112 7.94255307 1.74982578 5.66020203 2.44249065e-14"></polygon>
        </g>
        <g id="Group-167" transform="translate(33.500000, 24.754578) scale(-1, 1) translate(-33.500000, -24.754578) translate(29.000000, 16.254578)" fill="#055878" fill-rule="nonzero">
            <polygon id="Path-426" points="0.0595568798 15.1951285 3.1773305 16.5727269 3.51008789 15.6493683 0.33879272 14.2384644"></polygon>
            <polygon id="Path-426" points="0.854272963 12.5479094 4.08873168 14.0234222 4.42822398 13.0838024 1.16466368 11.590212"></polygon>
            <polygon id="Path-426" points="1.71405875 9.87651281 5.02963376 11.387871 5.36774424 10.4427673 2.03865234 8.91882324"></polygon>
            <polygon id="Path-426" points="2.69156276 7.09529216 5.96447937 8.7749939 6.3068405 7.8234607 3.04042246 6.15043625"></polygon>
            <polygon id="Path-426" points="3.77567385 4.27957736 6.95365366 6.07417242 7.29181168 5.11670308 4.16409242 3.35049"></polygon>
            <polygon id="Path-426" points="5.26409912 0.913729645 7.97778274 2.99125112 8.00210995 1.74982578 5.71975891 2.44249065e-14"></polygon>
        </g>
    </g>
</svg>