<?xml version="1.0" encoding="UTF-8"?>
<svg width="48px" height="48px" viewBox="0 0 48 48" version="1.1" xmlns="http://www.w3.org/2000/svg" xmlns:xlink="http://www.w3.org/1999/xlink">
    <!-- Generator: Sketch 59 (86127) - https://sketch.com -->
    <title>44_Top_Panda</title>
    <desc>Created with Sketch.</desc>
    <g id="SVGs" stroke="none" stroke-width="1" fill="none" fill-rule="evenodd">
        <g id="Slices" transform="translate(-882.000000, -177.000000)"></g>
        <path d="M20.6781006,14.0435791 C20.8434652,14.9184977 21.7992147,15.570638 23.5453491,16 L23.5036086,15.98814 L23.7202415,15.9339249 C25.314698,15.504867 26.1845215,14.8747518 26.3297119,14.0435791 L28.9274902,14.0435791 C31.142985,14.0029704 32.8184001,14.8217773 33.9537354,16.5 C35.6567383,19.017334 37.2164307,22.5412598 36.6257324,29.4122314 C35.9797363,29.6427002 35.0890706,30.0052897 33.9537354,30.5 C32.7472738,28.6049805 32.0205892,27.0478923 31.7736816,25.8287354 C31.4735107,27.2271729 31.2391357,29.6442871 28.696167,31 C27.0008545,31.9038086 25.271403,32.9038086 23.5078125,34 L23.5036086,32.41714 L23.5,34 C22.0303413,33.0865072 20.5843901,32.2398139 19.1621467,31.4599202 L18.3116455,31 C15.7686768,29.6442871 15.5343018,27.2271729 15.2341309,25.8287354 C14.9872233,27.0478923 14.2605387,28.6049805 13.0540771,30.5 C11.9187419,30.0052897 11.0280762,29.6427002 10.3820801,29.4122314 C9.79138184,22.5412598 11.3510742,19.017334 13.0540771,16.5 C14.1894124,14.8217773 15.8648275,14.0029704 18.0803223,14.0435791 Z" id="Combined-Shape" fill="#5B5A55"></path>
        <path d="M10.196182,29.3874834 L13.2339108,29.4284652 C13.5006781,29.4320642 13.7150464,29.649344 13.7150464,29.9161356 C13.7150464,30.1783226 13.5025018,30.3908672 13.2403147,30.3908672 C13.23818,30.3908672 13.2360453,30.3908528 13.2339108,30.390824 L10.196182,30.3498422 C9.92941465,30.3462432 9.71504636,30.1289634 9.71504636,29.8621718 C9.71504636,29.5999847 9.92759095,29.3874402 10.189778,29.3874402 C10.1919127,29.3874402 10.1940474,29.3874546 10.196182,29.3874834 Z" id="Rectangle-6" fill="#5B5A55" fill-rule="nonzero" transform="translate(11.715046, 29.889154) scale(-1, 1) rotate(-20.000000) translate(-11.715046, -29.889154) "></path>
        <path d="M33.8509226,29.4033409 L36.8886514,29.4443227 C37.1554187,29.4479217 37.369787,29.6652015 37.369787,29.9319931 C37.369787,30.1941801 37.1572424,30.4067247 36.8950554,30.4067247 C36.8929206,30.4067247 36.8907859,30.4067103 36.8886514,30.4066815 L33.8509226,30.3656997 C33.5841553,30.3621007 33.369787,30.1448209 33.369787,29.8780293 C33.369787,29.6158423 33.5823316,29.4032977 33.8445186,29.4032977 C33.8466533,29.4032977 33.8487881,29.4033121 33.8509226,29.4033409 Z" id="Rectangle-6" fill="#5B5A55" fill-rule="nonzero" transform="translate(35.369787, 29.905011) rotate(-20.000000) translate(-35.369787, -29.905011) "></path>
        <rect id="Rectangle" fill="#D8D8D8" x="22" y="33" width="3" height="2"></rect>
        <path d="M16.5586548,19.5029297 C18.3982631,17.5303824 20.7155442,16.6960725 23.510498,17 L23.5002671,16.9981349 L23.8108533,16.9699828 C26.4629781,16.761934 28.6734676,17.6062496 30.4423218,19.5029297 C31.1119995,20.2210015 31.5527954,22.3866917 31.7647095,26 C31.4740194,28.5556084 30.4526978,30.244464 28.7007446,31.0665669 C26.9487915,31.8886698 25.2170207,33.0009616 23.5054321,34.4034424 L23.5002671,28.2661349 L23.4955444,34.4034424 C21.9395549,33.1284598 20.3668857,32.0933029 18.7775369,31.2979715 L18.3002319,31.0665669 C16.5482788,30.244464 15.5269572,28.5556084 15.2362671,26 C15.4481812,22.3866917 15.8889771,20.2210015 16.5586548,19.5029297 Z" id="Combined-Shape" fill="#F6F3E2"></path>
        <polygon id="Rectangle" fill="#D8D8D8" points="22.6627197 17 24.4279785 17 24.4279785 35 22.6627197 35"></polygon>
        <polygon id="Rectangle" fill="#939393" opacity="0.491420201" points="22.6627197 17.3458252 24.4279785 17.3458252 24.4279785 20.3458252 22.6627197 20.3458252"></polygon>
        <path d="M22.7289695,16.0610039 L21.2488914,18.1262195 C20.927174,18.5751252 21.0302806,19.1998387 21.4791864,19.5215561 C21.6490337,19.6432805 21.8527456,19.7087402 22.0617072,19.7087402 L25.0089606,19.7087402 C25.5612453,19.7087402 26.0089606,19.261025 26.0089606,18.7087402 C26.0089606,18.5011923 25.9443825,18.2987867 25.824181,18.1295895 L24.3570058,16.0643739 C24.0371497,15.6141401 23.4128684,15.5084481 22.9626346,15.8283042 C22.8724052,15.8924052 22.7934435,15.9710407 22.7289695,16.0610039 Z" id="Path-404" fill="#D8D8D8"></path>
        <circle id="Oval" fill="#939393" cx="23.5" cy="21.5" r="1"></circle>
        <circle id="Oval" fill="#939393" cx="23.5" cy="16.5" r="1"></circle>
        <circle id="Oval" fill="#939393" cx="23.5" cy="24.5" r="1"></circle>
        <circle id="Oval" fill="#939393" cx="23.5" cy="27.5" r="1"></circle>
        <circle id="Oval" fill="#939393" cx="23.5" cy="30.5" r="1"></circle>
        <circle id="Oval" fill="#939393" cx="23.5" cy="33.5" r="1"></circle>
        <path d="M22.9625006,19.0152588 L24.08996,19.0152588 C24.3661024,19.0152588 24.58996,18.7914012 24.58996,18.5152588 C24.58996,18.4001611 24.5502509,18.2885877 24.4775347,18.1993698 L23.89833,17.4887243 C23.7238693,17.2746727 23.4089179,17.2425779 23.1948663,17.4170386 C23.1651403,17.4412665 23.1383003,17.4688337 23.1148756,17.4991967 L22.5666209,18.2098422 C22.397944,18.4284806 22.4384457,18.7424616 22.657084,18.9111385 C22.7445851,18.9786445 22.8519859,19.0152588 22.9625006,19.0152588 Z" id="Path-405" fill="#939393"></path>
    </g>
</svg>