<?xml version="1.0" encoding="UTF-8"?>
<svg width="48px" height="48px" viewBox="0 0 48 48" version="1.1" xmlns="http://www.w3.org/2000/svg" xmlns:xlink="http://www.w3.org/1999/xlink">
    <!-- Generator: Sketch 59 (86127) - https://sketch.com -->
    <title>45_Top_Sari    </title>
    <desc>Created with Sketch.</desc>
    <g id="SVGs" stroke="none" stroke-width="1" fill="none" fill-rule="evenodd">
        <g id="Slices" transform="translate(-1138.000000, -117.000000)"></g>
        <g id="Group-183" transform="translate(11.000000, 12.000000)">
            <path d="M0.509033203,2.17199707 L0.509033203,21.1552734 L5.52539062,21.1552734 C5.56583659,14.84139 5.89086914,10.5356445 6.50048828,8.23803711 C6.9570572,6.51726413 8.27212068,5.56788262 10.4456787,5.38989258 C10.5525309,5.94938151 10.5525309,6.53133138 10.4456787,7.13574219 C10.2946188,7.99021419 8.28307713,18.6288601 8.05218839,23.3549133 C8.03809839,23.643321 21.3371259,23.5415847 21.3149276,23.1881848 C21.0132186,18.3849299 18.804146,7.9305366 18.5744629,7.13574219 C18.4137881,6.57974392 18.4137881,5.99779405 18.5744629,5.38989258 L24.3022461,6.50268555 L24.8339844,2.17199707 L20.5281828,1.12366392 C19.8249493,0.952447724 19.1376339,0.721447615 18.4737387,0.433184931 L18.1752122,0.303565013 C17.9219162,0.193584169 17.6274222,0.309763996 17.5174414,0.56305992 C17.4901545,0.625904009 17.4760742,0.693685437 17.4760742,0.762197854 L17.4760742,1.40398541 C17.4760841,1.87341979 17.1495548,2.27966363 16.6911012,2.38060368 C16.1148349,2.50748313 15.556587,2.57092285 15.0163574,2.57092285 C14.4939395,2.57092285 13.9717541,2.51159743 13.4498013,2.3929466 C12.9945626,2.28941857 12.6715088,1.88468613 12.6715088,1.41782392 L12.6715088,0.650008977 C12.6715088,0.373866602 12.4476512,0.150008977 12.1715088,0.150008977 C12.1282117,0.150008977 12.0850979,0.155632801 12.0432495,0.166739314 L11.0741013,0.423950195 C10.0100107,0.706358678 8.93083218,0.928498177 7.84171184,1.08930942 L0.509033203,2.17199707 L0.509033203,2.17199707 Z" id="Path-485" stroke="#D869DA" fill="#D865E2" stroke-linejoin="round"></path>
            <path d="M6.72644043,0.771484375 L6.72644043,9.52844238 C6.88487664,8.64075695 7.0515433,8.02396439 7.22644043,7.67806471 C7.35451253,7.42477238 7.5211792,7.19392904 7.72644043,6.98553467 L7.72644043,0.603240967 L6.72644043,0.771484375 Z" id="Path-486" fill="#AA4AAC" fill-rule="nonzero"></path>
            <path d="M0.880069449,1.55027113 L3.46069336,1.23852539 L3.46069336,1.23852539 L3.46069336,21.6444092 L4.28546088e-14,21.6444092 L4.28546088e-14,2.54305341 C4.27926539e-14,2.03715398 0.377821448,1.61094393 0.880069449,1.55027113 Z" id="Rectangle" fill="#FFE48F"></path>
            <polygon id="Path-487" stroke="#F1C52D" fill="#F1C729" stroke-linejoin="round" points="0.509033203 2.17199707 2.5925293 3.68454516 0.509033203 5.17199707"></polygon>
            <polygon id="Path-487" stroke="#F1C52D" fill="#F1C729" stroke-linejoin="round" points="0.509033203 7.67806471 2.5925293 9.19061279 0.509033203 10.6780647"></polygon>
            <polygon id="Path-487" stroke="#F1C52D" fill="#F1C729" stroke-linejoin="round" points="0.509033203 12.9333748 2.5925293 14.4459229 0.509033203 15.9333748"></polygon>
            <polygon id="Path-487" stroke="#F1C52D" fill="#F1C729" stroke-linejoin="round" points="0.509033203 18.1702881 2.5925293 19.6828362 0.509033203 21.1702881"></polygon>
            <polygon id="Path-488" stroke="#FFE48F" fill="#FFE48F" stroke-linejoin="round" points="22.6148682 1.65658569 21.6905518 6.00796509 24.3022461 6.50268555 24.8339844 2.17199707"></polygon>
            <path d="M8.12994385,22.0091553 C14.7797241,21.7659912 19.0436198,21.0136515 20.9216309,19.7521362 C21.0995584,20.7908308 21.2557689,22.0756796 21.3902623,23.6066827 C21.414506,23.8818005 21.2110662,24.1244255 20.9359418,24.1485942 C20.9213897,24.1498726 20.9067886,24.1505127 20.8921804,24.1505127 L8.4802196,24.1505127 C8.20407722,24.1505127 7.9802196,23.9266551 7.9802196,23.6505127 C7.9802196,23.6351336 7.98092915,23.6197627 7.98234598,23.604449 L8.12994385,22.0091553 L8.12994385,22.0091553 Z" id="Path-489" stroke="#FFE48F" fill="#FFE48F"></path>
            <path d="M9.80072308,22.3465836 C9.9928021,22.0113439 10.4763141,22.0113439 10.6683931,22.3465836 L11.8034029,24.3275406 C11.8636676,24.4327219 11.8809543,24.5460588 11.8643155,24.6519315 C11.2563782,24.6535778 9.14086914,24.6535778 8.60506227,24.6535778 C8.5879838,24.5472344 8.60513613,24.4332673 8.66571331,24.3275406 L9.80072308,22.3465836 Z" id="Path-490" fill="#F1C52D" fill-rule="nonzero"></path>
            <path d="M14.2474676,21.9364785 C14.4289021,21.5921382 14.9168529,21.5779946 15.1179279,21.9112476 L16.4312824,24.0879444 C16.5461439,24.2783109 16.5170765,24.4986446 16.398482,24.6525836 C16.0936584,24.6535778 13.4623718,24.6535778 13.14426,24.6481317 C13.0340013,24.5019538 13.003541,24.2972978 13.100556,24.1131753 L14.2474676,21.9364785 Z" id="Path-490" fill="#F1C52D" fill-rule="nonzero"></path>
            <path d="M18.8007231,22.3465836 C18.9928021,22.0113439 19.4763141,22.0113439 19.6683931,22.3465836 L20.8034029,24.3275406 C20.8617056,24.4292975 20.8797832,24.5386878 20.8658324,24.6415679 C20.2369385,24.6535778 18.2541199,24.6415679 17.6045077,24.6500433 C17.5883689,24.5447121 17.6058067,24.4320968 17.6657133,24.3275406 L18.8007231,22.3465836 Z" id="Path-490" fill="#F1C52D" fill-rule="nonzero"></path>
            <path d="M9.18121338,14.3321228 C13.8391724,12.3137512 17.0425008,10.210083 18.7911987,8.02111816 C19.113383,9.44844564 19.4713338,11.2154134 19.8650513,13.3220215 C15.590922,15.9073079 11.7883301,17.857015 8.45727539,19.1711426 C8.62339274,18.0785116 8.8647054,16.465505 9.18121338,14.3321228 Z" id="Path-491" stroke="#FFE48F" fill="#FFE48F"></path>
            <path d="M10.013916,9.52844238 C15.31073,6.96358236 18.6454773,4.10807292 20.018158,0.961914063 C19.4650777,0.797017415 18.9988701,0.638394869 18.619535,0.486046424 L18.4058838,2.02990723 C18.3458344,2.31816193 18.2047367,2.58332682 17.9825909,2.82540189 C17.7514836,3.07724234 17.5833271,3.24384953 17.0672138,3.45393254 C16.7625423,3.57794856 13.9906672,4.2898277 11.9407349,3.13342285 C11.5770753,2.92827573 11.5426443,2.81257466 11.3650208,2.98156738 C10.926525,3.39875631 10.8413086,3.61047363 10.6148682,4.33721924 C10.4639079,4.82171631 10.3862101,5.36360677 10.3817749,5.96289063 C10.4372895,6.41065988 10.4372895,6.87080392 10.3817749,7.34332275 C10.3262603,7.81584159 10.2036406,8.5442148 10.013916,9.52844238 Z" id="Path-492" stroke="#FFE48F" fill="#FFE48F"></path>
            <path d="M14.4804623,3.78108063 C15.1571312,3.8051119 15.6102145,3.77160841 15.8397123,3.68057016 C16.2634277,3.51248873 15.9136306,4.08223783 15.7577937,4.43075796 C15.9885367,4.53204338 16.2717588,4.66638852 16.6074602,4.83379337 L16.607483,4.83374763 C16.7063565,4.88305303 16.7465393,5.00317568 16.6972339,5.1020491 C16.6872062,5.12215796 16.6738622,5.14043367 16.6577623,5.15610894 C16.07539,5.72312064 15.4267427,6.24500886 14.7118202,6.72177359 C14.3604079,6.94007287 14.0417679,6.68720928 14.1506723,6.46230844 C14.3817671,5.98506986 14.6573079,5.42695187 14.9772949,4.78795448 L14.3297728,4.12005153 C14.2530159,4.04071111 14.2549766,3.91416718 14.3342358,3.83732653 C14.3732933,3.79946082 14.426097,3.7791499 14.4804623,3.78108063 Z" id="Path-496" fill="#F1C52D"></path>
            <path d="M9.96722882,4.88358248 C10.0437917,4.74912798 10.2261773,4.59233962 10.5143855,4.4132174 C10.7804005,4.24788835 11.1516279,4.13622795 11.6280677,4.07823619 C11.7925182,4.058269 11.9420531,4.17535147 11.9620691,4.33979604 C11.9693358,4.39949679 11.9584881,4.46000341 11.9309342,4.51346149 L10.9121516,6.49002779 L10.9121516,6.49002779 L12.086831,7.60331382 C12.1670457,7.67928193 12.1704431,7.80589425 12.0944464,7.88608182 C12.0840123,7.89709134 12.0723598,7.90687836 12.0597137,7.9152542 C11.0937235,8.55505038 10.2590747,9.01461721 9.55576735,9.2939547 C9.7145151,8.44539701 9.83978741,7.64471905 9.93158428,6.89192082 C9.88939178,6.48153087 9.86829552,6.17098399 9.86829552,5.9602802 C9.86829552,5.74957641 9.90127329,5.39067717 9.96722882,4.88358248 Z" id="Path-495" fill="#F1C52D"></path>
            <path d="M9.27247641,14.6954396 L10.6120585,15.9882968 C10.7023744,16.0754624 10.728878,16.2096396 10.6784873,16.3245987 L9.90443626,18.0904813 C9.83791988,18.2422286 9.90701316,18.4191662 10.0587604,18.4856826 C10.1377086,18.5202885 10.2277279,18.5192627 10.305867,18.4828669 L12.5734418,17.4266713 C12.7236341,17.3567145 12.7886777,17.1782484 12.7187209,17.0280562 C12.6999221,16.9876967 12.6723758,16.9520275 12.6380801,16.9236358 L11.5762164,16.044573 C11.4931732,15.9758258 11.4534027,15.8678068 11.4720395,15.7616229 L11.8557695,13.5753074 C11.8844118,13.4121165 11.7753387,13.2566049 11.6121478,13.2279625 C11.5521289,13.2174283 11.4903252,13.2254212 11.4349608,13.2508774 L9.35548503,14.2070078 C9.20494963,14.2762231 9.13902664,14.4543662 9.20824191,14.6049016 C9.22383468,14.6388141 9.24561906,14.669519 9.27247641,14.6954396 Z" id="Path-493" fill="#F1C52D"></path>
            <path d="M13.9065494,12.5386355 L15.0472763,13.3935249 C15.1480597,13.4690545 15.1909373,13.5994921 15.1546246,13.7200881 L14.5395654,15.7627242 C14.4917945,15.9213735 14.5816791,16.0887102 14.7403284,16.1364811 C14.8163165,16.159362 14.8982748,16.1512025 14.9682602,16.1137891 L17.1458966,14.9496511 C17.2920134,14.8715388 17.347142,14.6897652 17.2690297,14.5436484 C17.2518807,14.5115694 17.2290406,14.4828766 17.2016243,14.4589705 L16.0222368,13.4305844 C15.9430492,13.3615355 15.9057535,13.2560924 15.9239161,13.1526102 L16.2807451,11.1195644 C16.3094638,10.9563472 16.200365,10.800799 16.0371356,10.7721498 C15.9581542,10.7582875 15.8769101,10.7766142 15.8115285,10.8230414 C15.3458946,11.1536864 15.0323349,11.3716692 14.8708496,11.4769897 C14.6954491,11.5913858 14.3837452,11.778776 13.9357381,12.0391605 C13.7924468,12.1223912 13.743807,12.3060364 13.8270759,12.4493055 C13.8473058,12.4841124 13.8743335,12.5144921 13.9065494,12.5386355 Z" id="Path-493" fill="#F1C52D"></path>
            <path d="M17.7719218,9.88327509 L18.9794663,10.7882393 C19.0802497,10.8637689 19.1231273,10.9942064 19.0868145,11.1148025 L18.4700551,13.1630853 C18.4222841,13.3217346 18.5121688,13.4890713 18.6708181,13.5368423 C18.7462265,13.5595485 18.8275395,13.5516925 18.8972062,13.5149697 L20.2676086,12.7926025 L20.2676086,12.7926025 C19.6591695,9.62641398 19.3189901,7.98271688 19.2470703,7.86151123 C18.9917908,8.16351318 18.7716589,8.44555664 18.5693512,8.6574707 C18.3995128,8.83537376 18.1275992,9.08889559 17.7536105,9.41803619 C17.6292766,9.52751389 17.6171872,9.7170527 17.7266346,9.84141323 C17.740252,9.85688608 17.7554279,9.87091415 17.7719218,9.88327509 Z" id="Path-493" fill="#F1C52D"></path>
            <path d="M25.2092133,1.84449768 L23.2651877,2.48388151 C23.1077965,2.53564699 23.0221699,2.70520199 23.0739354,2.8625932 C23.0933239,2.92154343 23.1305166,2.97303038 23.1803888,3.00996008 L25.0532532,4.39678955 L25.0532532,4.39678955 L22.7010728,5.03125366 C22.5411046,5.0744026 22.4464038,5.23906159 22.4895528,5.3990298 C22.5072118,5.4644978 22.5465288,5.52205243 22.6010932,5.5623094 L24.4925995,6.95783997 L24.4925995,6.95783997 C24.5733287,6.92581685 24.64033,6.87746684 24.6936035,6.81278992 C24.746877,6.748113 24.7803955,6.65479024 24.7941589,6.53282166 L25.088623,4.39678955 L25.324467,2.29620361 C25.3246059,2.15813869 25.3174177,2.06066045 25.3029022,2.00376892 C25.2883867,1.94687739 25.2571571,1.89378697 25.2092133,1.84449768 Z" id="Path-494" fill="#F1C52D"></path>
            <path d="M18.6824482,0.541560246 C19.0877466,0.711782602 19.4903408,0.84773763 19.8902306,0.949425331 C19.7630897,1.33340219 19.4128418,2.09842623 18.9324482,2.5793457 C18.7078764,2.23931415 18.5563214,1.91021259 18.4624211,1.78427359 C18.5464305,1.43243565 18.6197729,1.01819787 18.6824482,0.541560246 Z" id="Path-497" fill="#F1C52D"></path>
        </g>
    </g>
</svg>