<?xml version="1.0" encoding="UTF-8"?>
<svg width="48px" height="48px" viewBox="0 0 48 48" version="1.1" xmlns="http://www.w3.org/2000/svg" xmlns:xlink="http://www.w3.org/1999/xlink">
    <!-- Generator: Sketch 59 (86127) - https://sketch.com -->
    <title>46_Top_Kimono</title>
    <desc>Created with Sketch.</desc>
    <g id="SVGs" stroke="none" stroke-width="1" fill="none" fill-rule="evenodd">
        <g id="Slices" transform="translate(-1011.000000, -176.000000)"></g>
        <g id="Group-174" transform="translate(10.000000, 11.000000)">
            <path d="M19.5150146,12.5292969 L9.4888916,12.5292969 C8.62438965,10.3738607 8.10860189,9.01786296 7.94152832,8.46130371 C7.09189592,10.5171712 5.11187239,12.446541 2.00145771,14.2494131 C1.52363589,14.5263504 0.911777658,14.3635204 0.634825482,13.8857072 C0.546509999,13.7333404 0.5,13.5603524 0.5,13.3842409 L0.5,5.04626465 L0.5,5.04626465 L4.50001519,2.64984671 C5.1211537,2.27772126 5.83165361,2.08117676 6.55573261,2.08117676 L7.94152832,2.08117676 L7.94152832,2.08117676 L8.4397438,1.83851224 C8.91347208,1.60777464 9.48496463,1.78422906 9.74614623,2.24187794 L14.4395752,10.4658203 L14.4395752,10.4658203 L18.895712,2.24565005 C19.1257658,1.82127323 19.6261384,1.6218142 20.0850478,1.77155581 L21.0339355,2.08117676 L21.0339355,2.08117676 L22.3924451,2.08117676 C23.1088614,2.08117676 23.8121296,2.2735859 24.4287631,2.63829874 L28.5,5.04626465 L28.5,5.04626465 L28.5,13.6123414 C28.499982,14.1646162 28.0522748,14.6123234 27.5,14.6123234 C27.3545829,14.6123234 27.2109154,14.580608 27.0790129,14.5193881 C24.6484657,13.3912995 22.5670336,11.371938 20.8347168,8.46130371 C20.4519043,9.79764811 20.0120036,11.1536458 19.5150146,12.5292969 Z" id="Path-447" stroke="#371552" fill="#371552"></path>
            <path d="M9.17785645,13.7382813 L7.46960449,24.0598145 C10.5953369,24.2902018 12.9388021,24.4053955 14.5,24.4053955 C16.0611979,24.4053955 18.3910319,24.2902018 21.489502,24.0598145 L19.7938232,13.7382813 L9.17785645,13.7382813 Z" id="Path-448" stroke="#371552" fill="#371552"></path>
            <path d="M14.4795532,5.85125732 L12.1484929,1.27585577 C11.7860295,0.564413284 10.9247488,0.268495383 10.2015686,0.606933594 C9.56957665,0.902696963 9.29700954,1.65479125 9.5927729,2.2867832 C9.61506567,2.33441874 9.64031112,2.38061581 9.66836189,2.42510475 L14.4795532,10.0557251 L14.4795532,10.0557251 L18.8031289,2.73517179 C19.2112163,2.04421011 18.9819013,1.15325484 18.2909396,0.7451675 C18.2727698,0.734436237 18.2543683,0.724102073 18.2357483,0.714172363 C17.5654066,0.356691411 16.7321917,0.610315164 16.3747107,1.28065687 C16.3535206,1.32039229 16.3342944,1.36114431 16.3171018,1.4027657 L14.4795532,5.85125732 L14.4795532,5.85125732 Z" id="Path-449" stroke="#C39BEA" fill="#C39BEA" stroke-linejoin="round"></path>
            <line x1="9.17785645" y1="11.2664795" x2="19.7938232" y2="11.2664795" id="Path-450" stroke="#C71D1C" stroke-width="1.5" stroke-linecap="round"></line>
            <line x1="0.5" y1="4.52587891" x2="0.5" y2="15.5258789" id="Path-446" stroke="#C39BEA" stroke-linecap="round"></line>
            <line x1="28.5" y1="4.52587891" x2="28.5" y2="15.5258789" id="Path-446" stroke="#C39BEA" stroke-linecap="round"></line>
            <line x1="9.17785645" y1="14.0148926" x2="19.7938232" y2="14.0148926" id="Path-450" stroke="#C71D1C" stroke-width="1.5" stroke-linecap="round"></line>
            <line x1="9.45593262" y1="12.6424561" x2="19.5749512" y2="12.6424561" id="Path-450" stroke="#F2C924" stroke-width="2.5" stroke-linecap="round"></line>
            <path d="M14.9903564,16.2435303 C15.2664988,16.2435303 15.4903564,16.0196726 15.4903564,15.7435303 C15.4903564,15.4673879 15.2664988,15.2435303 14.9903564,15.2435303 C14.7142141,15.2435303 14.4903564,15.4673879 14.4903564,15.7435303 C14.4903564,16.0196726 14.7142141,16.2435303 14.9903564,16.2435303 Z" id="Oval" fill="#DB65DB"></path>
            <circle id="Oval" fill="#9EB4EE" cx="12.9903564" cy="16.5258789" r="1"></circle>
            <circle id="Oval" fill="#9EB4EE" cx="3.99035645" cy="10.5258789" r="1"></circle>
            <circle id="Oval" fill="#DB65DB" cx="5.99035645" cy="8.52587891" r="1"></circle>
            <path d="M22.7403564,6.75366211 C23.0164988,6.75366211 23.2403564,6.52980448 23.2403564,6.25366211 C23.2403564,5.97751973 23.0164988,5.75366211 22.7403564,5.75366211 C22.4642141,5.75366211 22.2403564,5.97751973 22.2403564,6.25366211 C22.2403564,6.52980448 22.4642141,6.75366211 22.7403564,6.75366211 Z" id="Oval" fill="#F3A3F0"></path>
            <path d="M23.4903564,4.52587891 C23.7664988,4.52587891 23.9903564,4.30202128 23.9903564,4.02587891 C23.9903564,3.74973653 23.7664988,3.52587891 23.4903564,3.52587891 C23.2142141,3.52587891 22.9903564,3.74973653 22.9903564,4.02587891 C22.9903564,4.30202128 23.2142141,4.52587891 23.4903564,4.52587891 Z" id="Oval" fill="#9EB4EE"></path>
            <path d="M24.1871338,7.52587891 C24.4632762,7.52587891 24.6871338,7.30202128 24.6871338,7.02587891 C24.6871338,6.74973653 24.4632762,6.52587891 24.1871338,6.52587891 C23.9109914,6.52587891 23.6871338,6.74973653 23.6871338,7.02587891 C23.6871338,7.30202128 23.9109914,7.52587891 24.1871338,7.52587891 Z" id="Oval" fill="#9EB4EE"></path>
            <circle id="Oval" fill="#9EB4EE" cx="5.99035645" cy="5.52587891" r="1"></circle>
            <circle id="Oval" fill="#DB65DB" cx="2.99035645" cy="6.52587891" r="1"></circle>
            <circle id="Oval" fill="#F3A3F0" cx="11.9903564" cy="18.5258789" r="1"></circle>
            <circle id="Oval" fill="#9EB4EE" cx="10.9903564" cy="20.5258789" r="1"></circle>
            <circle id="Oval" fill="#9EB4EE" cx="13.9903564" cy="22.5258789" r="1"></circle>
            <circle id="Oval" fill="#F3A3F0" cx="10.9903564" cy="23.5258789" r="1"></circle>
            <circle id="Oval" fill="#F3A3F0" cx="14.9903564" cy="17.5258789" r="1"></circle>
            <path d="M13.7295532,20.5258789 C14.1437668,20.5258789 14.4795532,20.1900925 14.4795532,19.7758789 C14.4795532,19.3616653 14.1437668,19.0258789 13.7295532,19.0258789 C13.3153397,19.0258789 12.9795532,19.3616653 12.9795532,19.7758789 C12.9795532,20.1900925 13.3153397,20.5258789 13.7295532,20.5258789 Z" id="Oval" fill="#F3A3F0"></path>
            <circle id="Oval" fill="#F3A3F0" cx="4.24035645" cy="4.77587891" r="1"></circle>
            <circle id="Oval" fill="#F3A3F0" cx="4.24035645" cy="7.77587891" r="1"></circle>
            <circle id="Oval" fill="#DB65DB" cx="23.2403564" cy="8.77587891" r="1"></circle>
            <circle id="Oval" fill="#F3A3F0" cx="25.2403564" cy="4.77587891" r="1"></circle>
            <circle id="Oval" fill="#DB65DB" cx="12.2403564" cy="21.7758789" r="1"></circle>
        </g>
    </g>
</svg>