<?xml version="1.0" encoding="UTF-8"?>
<svg width="48px" height="48px" viewBox="0 0 48 48" version="1.1" xmlns="http://www.w3.org/2000/svg" xmlns:xlink="http://www.w3.org/1999/xlink">
    <!-- Generator: Sketch 59 (86127) - https://sketch.com -->
    <title>47_Top_Dashiki</title>
    <desc>Created with Sketch.</desc>
    <g id="SVGs" stroke="none" stroke-width="1" fill="none" fill-rule="evenodd">
        <g id="Slices" transform="translate(-1137.000000, -176.000000)"></g>
        <g id="Group-182" transform="translate(10.000000, 10.000000)">
            <polygon id="Path-484" fill="#E1FEFC" points="13.1325684 2.80004883 14.9613037 2.80004883 14.9613037 13.7531738 13.1325684 13.7531738"></polygon>
            <path d="M13.1325684,2.80004883 L13.1325684,11.4126629 C13.1325684,12.2845518 13.468752,13.1228671 14.071167,13.7531738 L14.071167,13.7531738 L14.071167,13.7531738 C14.6440187,13.1211672 14.9613037,12.2986733 14.9613037,11.4456836 L14.9613037,2.80004883 L14.9613037,2.80004883" id="Path-481" stroke="#88EDD8" stroke-linecap="round"></path>
            <path d="M2.25633275,4.31254251 L8.04323176,2.85864258 L8.04323176,2.85864258 L9.63897843,2.68176272 C10.1455259,2.62561469 10.5288086,2.19749975 10.5288086,1.68784995 L10.5288086,0.989624023 C10.5288086,0.443069767 10.9718784,-1.67595645e-15 11.5184326,-1.77635684e-15 C12.0649869,-1.87675723e-15 12.5080566,0.443069767 12.5080566,0.989624023 L12.5080566,12.7711182 L12.5080566,12.7711182 C13.1069336,14.171346 13.6096598,14.87146 14.0162354,14.87146 C14.4228109,14.87146 14.9361165,14.171346 15.5561523,12.7711182 L15.5561523,1.00427246 C15.5561523,0.449628096 16.0057804,-1.67447032e-15 16.5604248,-1.77635684e-15 C17.1150692,-2.86348967e-15 17.5646973,0.449628096 17.5646973,1.00427246 L17.5646973,1.69325016 C17.5646973,2.20060477 17.9446337,2.6275573 18.4485548,2.68648273 L20.042099,2.87282196 L20.042099,2.87282196 L25.5426733,4.30756107 C25.9830195,4.42241852 26.2902832,4.82010752 26.2902832,5.27518665 L26.2902832,8.45190749 C26.2902832,9.00419224 25.842568,9.45190749 25.2902832,9.45190749 C25.2189654,9.45190749 25.1478522,9.44427821 25.0781574,9.42914987 L22.2707195,8.8197515 C21.7310034,8.70259768 21.1985052,9.04515206 21.0813514,9.58486812 C21.066223,9.65456289 21.0585938,9.72567608 21.0585938,9.79699388 L21.0585938,21.5671251 C21.0585937,21.6693935 21.042906,21.7710568 21.0120779,21.8685681 L19.8047104,25.6875514 C19.6732332,26.1034224 19.2873854,26.3861084 18.8512262,26.3861084 L9.23887476,26.3861084 C8.81079027,26.3861084 8.43018643,26.1136244 8.29222726,25.7083793 L6.98828903,21.8781547 C6.95296112,21.7743815 6.93493652,21.6655056 6.93493652,21.5558838 L6.93493652,9.78718528 C6.93493652,9.23490053 6.48722127,8.78718528 5.93493652,8.78718528 C5.86621424,8.78718528 5.79767499,8.79426936 5.73040549,8.8083252 L2.70453104,9.44057617 C2.16392154,9.55353554 1.63409929,9.20685662 1.52113992,8.66624713 C1.50708408,8.59897762 1.5,8.53043838 1.5,8.46171609 L1.5,5.2824014 C1.5,4.82396865 1.81171767,4.42424756 2.25633275,4.31254251 Z" id="Path-480" stroke="#132F71" fill="#132F71"></path>
            <circle id="Oval" fill="#96AEF4" cx="9.52416992" cy="4.27111816" r="1"></circle>
            <circle id="Oval" fill="#96AEF4" cx="9.52416992" cy="6.27111816" r="1"></circle>
            <circle id="Oval" fill="#96AEF4" cx="9.52416992" cy="8.27111816" r="1"></circle>
            <circle id="Oval" fill="#96AEF4" cx="9.52416992" cy="11.2711182" r="1"></circle>
            <circle id="Oval" fill="#96AEF4" cx="9.52416992" cy="14.2711182" r="1"></circle>
            <circle id="Oval" fill="#96AEF4" cx="18.5241699" cy="14.2711182" r="1"></circle>
            <circle id="Oval" fill="#96AEF4" cx="18.5241699" cy="11.2711182" r="1"></circle>
            <circle id="Oval" fill="#96AEF4" cx="18.5241699" cy="8.27111816" r="1"></circle>
            <circle id="Oval" fill="#96AEF4" cx="18.5241699" cy="6.27111816" r="1"></circle>
            <circle id="Oval" fill="#96AEF4" cx="18.5241699" cy="4.27111816" r="1"></circle>
            <circle id="Oval" fill="#96AEF4" cx="10.5241699" cy="17.2711182" r="1"></circle>
            <circle id="Oval" fill="#96AEF4" cx="17.5241699" cy="17.2711182" r="1"></circle>
            <path d="M11.758667,20.1922607 C12.0348094,20.1922607 12.258667,19.9684031 12.258667,19.6922607 C12.258667,19.4161184 12.0348094,19.1922607 11.758667,19.1922607 C11.4825246,19.1922607 11.258667,19.4161184 11.258667,19.6922607 C11.258667,19.9684031 11.4825246,20.1922607 11.758667,20.1922607 Z" id="Oval" fill="#96AEF4"></path>
            <path d="M16.0443115,20.1922607 C16.3204539,20.1922607 16.5443115,19.9684031 16.5443115,19.6922607 C16.5443115,19.4161184 16.3204539,19.1922607 16.0443115,19.1922607 C15.7681691,19.1922607 15.5443115,19.4161184 15.5443115,19.6922607 C15.5443115,19.9684031 15.7681691,20.1922607 16.0443115,20.1922607 Z" id="Oval" fill="#96AEF4"></path>
            <path d="M14.0241699,21.7711182 C14.3003123,21.7711182 14.5241699,21.5472605 14.5241699,21.2711182 C14.5241699,20.9949758 14.3003123,20.7711182 14.0241699,20.7711182 C13.7480275,20.7711182 13.5241699,20.9949758 13.5241699,21.2711182 C13.5241699,21.5472605 13.7480275,21.7711182 14.0241699,21.7711182 Z" id="Oval" fill="#96AEF4"></path>
            <path d="M6.91955566,20.8129883 L8.78132332,24.2709847 C9.13013343,24.918855 9.80651254,25.322876 10.5423145,25.322876 L17.5212469,25.322876 C18.2669768,25.322876 18.9507718,24.9079853 19.2951771,24.2465489 L21.0830078,20.8129883 L21.0830078,20.8129883" id="Path-482" stroke="#E9FFFA" stroke-linecap="round" stroke-linejoin="round"></path>
            <line x1="1.5" y1="4.27111816" x2="1.5" y2="9.57299805" id="Path-483" stroke="#E9FFFA" stroke-linecap="round"></line>
            <line x1="0.5" y1="4.77111816" x2="0.5" y2="9.78015137" id="Path-483" stroke="#132F71" stroke-linecap="round"></line>
            <line x1="27.2772217" y1="4.77111816" x2="27.2772217" y2="9.78015137" id="Path-483" stroke="#132F71" stroke-linecap="round"></line>
            <line x1="3.5" y1="3.94140625" x2="3.5" y2="9.44140625" id="Path-483" stroke="#E87C1E" stroke-linecap="round"></line>
            <path d="M11.5,3.27111816 L11.5,14.2711182 L13.1094327,17.8970506 C13.3334934,18.4018428 13.9243455,18.6294207 14.4291378,18.4053599 C14.6559092,18.3047035 14.837165,18.1233405 14.9376871,17.8965095 L16.5443115,14.2711182 L16.5443115,14.2711182 L16.5443115,3.27111816" id="Path-483" stroke="#E87C1E" stroke-width="1.5" stroke-linecap="round" stroke-linejoin="round"></path>
            <circle id="Oval" fill="#F5C627" cx="11.5241699" cy="8.27111816" r="1"></circle>
            <circle id="Oval" fill="#C71D1C" cx="11.5241699" cy="11.2711182" r="1"></circle>
            <circle id="Oval" fill="#F5C627" cx="11.5241699" cy="14.2711182" r="1"></circle>
            <path d="M12.5241699,16.9168091 C12.8003123,16.9168091 13.0241699,16.6929515 13.0241699,16.4168091 C13.0241699,16.1406667 12.8003123,15.9168091 12.5241699,15.9168091 C12.2480275,15.9168091 12.0241699,16.1406667 12.0241699,16.4168091 C12.0241699,16.6929515 12.2480275,16.9168091 12.5241699,16.9168091 Z" id="Oval" fill="#C71D1C"></path>
            <path d="M15.5241699,16.9168091 C15.8003123,16.9168091 16.0241699,16.6929515 16.0241699,16.4168091 C16.0241699,16.1406667 15.8003123,15.9168091 15.5241699,15.9168091 C15.2480275,15.9168091 15.0241699,16.1406667 15.0241699,16.4168091 C15.0241699,16.6929515 15.2480275,16.9168091 15.5241699,16.9168091 Z" id="Oval" fill="#C71D1C"></path>
            <path d="M14.0241699,18.9959717 C14.3003123,18.9959717 14.5241699,18.7721141 14.5241699,18.4959717 C14.5241699,18.2198293 14.3003123,17.9959717 14.0241699,17.9959717 C13.7480275,17.9959717 13.5241699,18.2198293 13.5241699,18.4959717 C13.5241699,18.7721141 13.7480275,18.9959717 14.0241699,18.9959717 Z" id="Oval" fill="#F5C627"></path>
            <circle id="Oval" fill="#C71D1C" cx="11.5241699" cy="6.27111816" r="1"></circle>
            <circle id="Oval" fill="#F5C627" cx="11.5241699" cy="4.27111816" r="1"></circle>
            <circle id="Oval" fill="#F5C627" cx="16.5241699" cy="8.27111816" r="1"></circle>
            <circle id="Oval" fill="#C71D1C" cx="16.5241699" cy="11.2711182" r="1"></circle>
            <circle id="Oval" fill="#F5C627" cx="16.5241699" cy="14.2711182" r="1"></circle>
            <circle id="Oval" fill="#C71D1C" cx="16.5241699" cy="6.27111816" r="1"></circle>
            <circle id="Oval" fill="#F5C627" cx="16.5241699" cy="4.27111816" r="1"></circle>
            <line x1="26.2902832" y1="4.27111816" x2="26.2902832" y2="9.57299805" id="Path-483" stroke="#E9FFFA" stroke-linecap="round"></line>
            <line x1="24.2902832" y1="3.94140625" x2="24.2902832" y2="9.44140625" id="Path-483" stroke="#E87C1E" stroke-linecap="round"></line>
        </g>
    </g>
</svg>