<?xml version="1.0" encoding="UTF-8"?>
<svg width="48px" height="48px" viewBox="0 0 48 48" version="1.1" xmlns="http://www.w3.org/2000/svg" xmlns:xlink="http://www.w3.org/1999/xlink">
    <!-- Generator: Sketch 59 (86127) - https://sketch.com -->
    <title>48_Top_Aussie</title>
    <desc>Created with Sketch.</desc>
    <g id="SVGs" stroke="none" stroke-width="1" fill="none" fill-rule="evenodd">
        <g id="Slices" transform="translate(-1194.000000, -176.000000)"></g>
        <g id="Group-180" transform="translate(13.000000, 11.000000)">
            <path d="M7.49572541,22.1704102 C8.45654065,22.3503147 9.54182711,22.4402669 10.7515848,22.4402669 C11.9613425,22.4402669 13.1711406,22.3503147 14.3809793,22.1704102 L14.3809793,1.25472005 L7.49572541,1.25472005 L7.49572541,22.1704102 Z" id="Path-475" fill="#533A25"></path>
            <g id="Group-179">
                <path d="M0.0526352785,2.97293872 C0.559863791,9.71842006 0.543172481,15.9999557 0.00256134984,21.8175456 C-0.0747864612,22.6498959 1.61226187,24.0385742 3.3572163,24.0385742 C5.10217072,24.0385742 7.42085562,23.5405273 7.75532828,21.8175456 C8.08980093,20.0945638 8.05301708,7.51969401 7.75532828,2.85042318 C7.72629568,2.39504471 7.76516215,1.98367041 7.87192769,1.61630029 C8.00353849,1.16347842 7.80091625,0.68025476 7.38570678,0.45671474 L7.11288578,0.309833671 C6.73104542,0.104255102 6.29273004,0.0283597982 5.8639987,0.0935828355 C4.77585722,0.259122147 3.90271969,0.466914413 3.24458609,0.716959635 C2.69899877,0.924245059 1.81021748,1.35730194 0.578242224,2.01613029 L0.578242601,2.016131 C0.229052014,2.20286905 0.0229427945,2.57806719 0.0526352785,2.97293872 Z" id="Path-471" stroke="#744201" fill="#744201"></path>
                <line x1="1.76135041" y1="3.59977214" x2="1.76135041" y2="5.23681641" id="Path-476" stroke="#FBE6D9" stroke-linecap="round"></line>
                <line x1="3.95633739" y1="3.15039063" x2="3.95633739" y2="4.95524089" id="Path-476" stroke="#FBE6D9" stroke-linecap="round"></line>
                <line x1="6.1479064" y1="3.15039063" x2="6.1479064" y2="4.95524089" id="Path-476" stroke="#FBE6D9" stroke-linecap="round"></line>
                <polyline id="Path-477" stroke="#533A25" stroke-linejoin="round" points="1.76135041 7.26448568 3.60135692 9.65332031 5.92362255 7.70328776"></polyline>
                <path d="M3.81538687,10.4116211 C4.36767162,10.4116211 4.81538687,9.96390584 4.81538687,9.41162109 C4.81538687,8.85933634 4.36767162,8.41162109 3.81538687,8.41162109 C3.26310212,8.41162109 2.81538687,8.85933634 2.81538687,9.41162109 C2.81538687,9.96390584 3.26310212,10.4116211 3.81538687,10.4116211 Z" id="Oval" fill="#D8D8D8"></path>
                <polygon id="Path-478" stroke="#533A25" stroke-linejoin="round" points="1.76135041 7.26448568 1.4517801 13.9383138 5.52453401 14.9765625 6.1479064 7.26448568"></polygon>
            </g>
            <g id="Group-179" transform="translate(17.500000, 12.500000) scale(-1, 1) translate(-17.500000, -12.500000) translate(13.000000, 0.000000)">
                <path d="M0.663149601,2.97293872 C1.17037811,9.71842006 1.1536868,15.9999557 0.613075673,21.8175456 C0.535727862,22.6498959 2.22277619,24.0385742 3.96773062,24.0385742 C5.71268505,24.0385742 8.03136994,23.5405273 8.3658426,21.8175456 C8.70031526,20.0945638 8.6635314,7.51969401 8.3658426,2.85042318 C8.33681,2.39504471 8.37567647,1.98367041 8.48244202,1.61630029 C8.61405281,1.16347842 8.41143057,0.68025476 7.9962211,0.45671474 L7.72340011,0.309833671 C7.34155974,0.104255102 6.90324437,0.0283597982 6.47451302,0.0935828355 C5.38637155,0.259122147 4.51323401,0.466914413 3.85510041,0.716959635 C3.3095131,0.924245059 2.42073181,1.35730194 1.18875655,2.01613029 L1.18875692,2.016131 C0.839566337,2.20286905 0.633457117,2.57806719 0.663149601,2.97293872 Z" id="Path-471" stroke="#744201" fill="#744201"></path>
                <line x1="2.37186474" y1="3.59977214" x2="2.37186474" y2="5.23681641" id="Path-476" stroke="#FBE6D9" stroke-linecap="round"></line>
                <line x1="4.56685171" y1="3.15039063" x2="4.56685171" y2="4.95524089" id="Path-476" stroke="#FBE6D9" stroke-linecap="round"></line>
                <line x1="6.75842072" y1="3.15039063" x2="6.75842072" y2="4.95524089" id="Path-476" stroke="#FBE6D9" stroke-linecap="round"></line>
                <polyline id="Path-477" stroke="#533A25" stroke-linejoin="round" points="2.37186474 7.26448568 4.21187125 9.65332031 6.53413687 7.70328776"></polyline>
                <path d="M4.42590119,10.4116211 C4.97818594,10.4116211 5.42590119,9.96390584 5.42590119,9.41162109 C5.42590119,8.85933634 4.97818594,8.41162109 4.42590119,8.41162109 C3.87361644,8.41162109 3.42590119,8.85933634 3.42590119,9.41162109 C3.42590119,9.96390584 3.87361644,10.4116211 4.42590119,10.4116211 Z" id="Oval" fill="#D8D8D8"></path>
                <polygon id="Path-478" stroke="#533A25" stroke-linejoin="round" points="2.37186474 7.26448568 2.06229442 13.9383138 6.13504833 14.9765625 6.75842072 7.26448568"></polygon>
            </g>
            <line x1="10.7515848" y1="0.716959635" x2="10.7515848" y2="3.15039063" id="Path-472" stroke="#FBE6D9" stroke-linecap="round"></line>
            <line x1="8.75158479" y1="0.716959635" x2="8.75158479" y2="3.59977214" id="Path-472" stroke="#FBE6D9" stroke-linecap="round"></line>
            <line x1="12.7515848" y1="0.716959635" x2="12.7515848" y2="3.59977214" id="Path-472" stroke="#FBE6D9" stroke-linecap="round"></line>
        </g>
    </g>
</svg>