<?xml version="1.0" encoding="UTF-8"?>
<svg width="48px" height="48px" viewBox="0 0 48 48" version="1.1" xmlns="http://www.w3.org/2000/svg" xmlns:xlink="http://www.w3.org/1999/xlink">
    <!-- Generator: Sketch 59 (86127) - https://sketch.com -->
    <title>49_Top_ChineseDress</title>
    <desc>Created with Sketch.</desc>
    <g id="SVGs" stroke="none" stroke-width="1" fill="none" fill-rule="evenodd">
        <g id="Slices" transform="translate(-1078.000000, -176.000000)"></g>
        <g id="Group-175" transform="translate(13.000000, 9.000000)">
            <circle id="Oval" fill="#F5C627" cx="10.0028076" cy="19.5068359" r="1"></circle>
            <circle id="Oval" fill="#F5C627" cx="8.00280762" cy="20.5068359" r="1"></circle>
            <path d="M0.33371788,7.11786944 L0.785543714,8.87163862 C0.902719488,9.32645826 1.32062437,9.63844319 1.78999001,9.6215033 L5.10340917,9.50191858 C5.65533458,9.48199902 6.11890652,9.91327497 6.13882608,10.4652004 C6.13999638,10.4976267 6.13958776,10.5300908 6.13760167,10.5624774 L5.51098097,20.780601 C5.50104297,20.942657 5.53071323,21.1046958 5.59742806,21.2527162 L8.66075666,28.0493334 C8.82236403,28.4078923 9.17913899,28.6384277 9.5724345,28.6384277 L12.1481217,28.6384277 C12.5719625,28.6384277 12.949766,28.3712357 13.0909833,27.9716125 L15.4777848,21.2173315 C15.5220975,21.0919332 15.540951,20.9589553 15.5332418,20.8261814 L14.9368027,10.5538983 C14.9047894,10.0025422 15.3257999,9.52962777 15.877156,9.49761441 C15.9068898,9.49588798 15.9366858,9.49549079 15.966455,9.49642402 L20.0488255,9.62440244 C20.5313058,9.63952774 20.9557216,9.30783303 21.0576235,8.83599406 L21.4297033,7.11314357 C21.5418381,6.59392315 21.2284594,6.07763659 20.7160921,5.93748011 L14.8734131,4.3392334 L14.8734131,4.3392334 L14.0254167,4.17730357 C13.50726,4.07835853 13.1550756,3.59393438 13.2207676,3.07052149 L13.3873403,1.74332483 C13.4217284,1.469332 13.2274904,1.21933989 12.9534975,1.18495182 C12.7817199,1.16339249 12.6110132,1.23222839 12.5022411,1.36691687 L11.6414651,2.43278355 C11.2944725,2.86245152 10.6648647,2.92947314 10.2351967,2.58248052 C10.1795978,2.53757975 10.1289723,2.48684829 10.0841878,2.4311556 L9.15892442,1.28052312 C8.98587766,1.06532687 8.6711445,1.03115795 8.45594825,1.20420471 C8.3260506,1.30865991 8.25674792,1.47097771 8.2711459,1.63704091 L8.39508098,3.06648064 C8.44065562,3.59212851 8.0700014,4.06274649 7.54831042,4.14162139 L6.24127344,4.3392334 L6.24127344,4.3392334 L1.01418271,5.91072847 C0.500144858,6.06527103 0.199802854,6.59807614 0.33371788,7.11786944 Z" id="Path-457" stroke="#C71D1C" fill="#C71D1C"></path>
            <circle id="Oval" fill="#F5C627" cx="7.00280762" cy="6.50683594" r="1"></circle>
            <circle id="Oval" fill="#F5C627" cx="10.0028076" cy="10.5068359" r="1"></circle>
            <circle id="Oval" fill="#F5C627" cx="13.0028076" cy="11.5068359" r="1"></circle>
            <circle id="Oval" fill="#F5C627" cx="13.0028076" cy="13.5068359" r="1"></circle>
            <circle id="Oval" fill="#F5C627" cx="12.0028076" cy="16.5068359" r="1"></circle>
            <circle id="Oval" fill="#F5C627" cx="8.00280762" cy="4.50683594" r="1"></circle>
            <circle id="Oval" fill="#F5C627" cx="5.00280762" cy="5.50683594" r="1"></circle>
            <circle id="Oval" fill="#F5C627" cx="10.2528076" cy="15.7568359" r="1"></circle>
            <circle id="Oval" fill="#F5C627" cx="12.2528076" cy="18.7568359" r="1"></circle>
            <line x1="0.013671875" y1="6.07299805" x2="0.986328125" y2="9.91552734" id="Path-458" stroke="#F5C627" stroke-linecap="round"></line>
            <line x1="20.8182373" y1="6.07299805" x2="21.7908936" y2="9.91552734" id="Path-458" stroke="#F5C627" stroke-linecap="round" transform="translate(21.304565, 7.994263) scale(-1, 1) translate(-21.304565, -7.994263) "></line>
            <polyline id="Path-459" stroke="#F5C627" stroke-linecap="round" stroke-linejoin="round" points="5.44580078 21.0294189 8.79147949 28.6384277 12.8553467 28.6384277 15.5449219 21.0294189"></polyline>
            <path d="M8.63342285,0.911621094 L9.24812922,1.76621616 C9.89311827,2.66291171 11.1429006,2.86696013 12.0395961,2.22197108 C12.2119863,2.0979716 12.3635285,1.9473086 12.4885288,1.77564277 L13.1176758,0.911621094 L13.1176758,0.911621094" id="Path-460" stroke="#F5C627" stroke-width="1.5" stroke-linecap="round" stroke-linejoin="round"></path>
            <path d="M10.8755493,2.46063232 L10.8755493,5.18782508 C10.8755493,5.75156733 10.6376315,6.28912957 10.2203587,6.6681925 L6.16113281,10.3557129 L6.16113281,10.3557129" id="Path-461" stroke="#F5C627" stroke-linecap="round"></path>
            <line x1="6.79372559" y1="8.15839844" x2="8.26501465" y2="10.0542969" id="Path-462" stroke="#F5C627" stroke-linecap="round"></line>
            <line x1="8.63342285" y1="6.40817261" x2="10.3732178" y2="8.42470703" id="Path-463" stroke="#F5C627" stroke-linecap="round"></line>
            <line x1="9.7923584" y1="4.83623047" x2="12.0065186" y2="4.83623047" id="Path-464" stroke="#F5C627" stroke-linecap="round"></line>
        </g>
    </g>
</svg>