<?xml version="1.0" encoding="UTF-8"?>
<svg width="48px" height="48px" viewBox="0 0 48 48" version="1.1" xmlns="http://www.w3.org/2000/svg" xmlns:xlink="http://www.w3.org/1999/xlink">
    <!-- Generator: Sketch 59 (86127) - https://sketch.com -->
    <title>50_Top_HockeyJersey</title>
    <desc>Created with Sketch.</desc>
    <g id="SVGs" stroke="none" stroke-width="1" fill="none" fill-rule="evenodd">
        <g id="Slices" transform="translate(-1251.000000, -232.000000)"></g>
        <path d="M19.3798523,12.5001221 C19.6716214,12.3742115 19.891198,12.3250235 20.038582,12.3525582 C21.3082901,12.5897688 22.6274607,12.708374 23.9960937,12.708374 C25.4157509,12.708374 26.748747,12.5868819 27.9950821,12.3438977 C28.1046904,12.3225286 28.2675947,12.3824464 28.4837952,12.5236511 C28.3348982,16.093984 28.2604496,17.8791504 28.2604496,17.8791504 C28.2604496,17.8791504 26.8207265,18.6868083 23.9412801,20.302124 L19.1604741,17.8791504 L19.3798523,12.5001221 Z" id="Path-18" fill="#B71D1B" fill-rule="nonzero"></path>
        <g id="Group-195" transform="translate(9.000000, 12.000000)">
            <path d="M18.9868177,0.326751709 C20.2312024,0.431976318 22.0663452,0.697479248 23.0774536,1.44039917 C24.2150512,2.27625802 25.6504471,6.02193535 27.237915,10.8557129 C28.0108243,13.2091913 28.7001953,14.1549072 29.5255737,17.5030518 C29.5915445,17.7706619 29.7018109,18.4352122 29.6877747,19.2610779 C29.6834332,19.5165231 29.6455303,19.9172087 29.5740662,20.4631348 C28.3111877,21.1849772 27.3820903,21.4375305 26.7867737,21.2207947 C26.2261956,21.016706 25.3803763,19.6705869 25.2581177,19.3415527 C23.3218994,14.1306152 21.7314602,10.8945538 21.5345459,10.1737061 C21.5666488,10.9678427 22.0054169,14.5702121 22.8508502,20.9808142 C22.9881561,22.0219538 22.2968363,22.9919646 21.2678838,23.2019199 L21.2678838,23.2019199 L20.5401551,23.3423946 C18.6036075,23.6947275 16.6996058,23.8691588 14.8281499,23.8656887 L15.1995166,23.8607517 L15.2000105,23.8656797 L15.0135166,23.8627517 L14.8281499,23.8656887 L14.8275166,23.8607517 L14.4968408,23.8582546 C12.8536587,23.8205629 11.1933063,23.6403051 9.51578372,23.3174813 L8.79579542,23.1703942 C7.7787994,22.9506309 7.10017925,21.987813 7.23512292,20.9561314 C8.06746704,14.5926306 8.48477958,10.9881332 8.48706055,10.1426392 C8.26448568,11.1343384 7.0559082,14.1927897 4.86132813,19.3179932 C4.16810469,20.6681029 3.5149268,21.3289102 2.90179443,21.300415 C2.28866207,21.2719199 1.50136959,21.001168 0.539916992,20.4881592 L0.528648783,20.4203228 C0.338675891,19.2766254 0.399552502,18.105302 0.707068285,16.9874614 C3.21751435,7.86182066 5.31573809,2.67959882 7.0017395,1.4407959 C8.0128479,0.697875977 9.79695799,0.431976318 11.0413428,0.326751709 C11.0442024,0.709315359 11.2110223,1.14550378 11.4863807,1.58706701 C13.0525259,2.41122909 14.213657,2.82250977 14.9715576,2.82250977 C15.7354517,2.82250977 16.9255939,2.41002788 18.5419841,1.58506409 C18.8183501,1.14313293 18.9839684,0.707923196 18.9868177,0.326751709 Z" id="Combined-Shape" fill="#D42F2E" fill-rule="nonzero"></path>
            <polygon id="Rectangle-73" fill="#FFFFFF" fill-rule="nonzero" points="8.74206543 7.56396484 21.2247314 7.56396484 21.9971924 14 8.08776855 14"></polygon>
            <path d="M3.63891602,7.56396484 L5.05365847,7.56396484 C5.60594322,7.56396484 6.05365847,8.01168009 6.05365847,8.56396484 C6.05365847,8.66856383 6.03724766,8.7725152 6.00502465,8.87202714 L4.57397726,13.2914258 C4.441314,13.7011201 4.06126647,13.9798726 3.63064259,13.9833313 L1.55529785,14 L1.55529785,14 C1.93373953,12.5995815 2.24269949,11.5295132 2.48217773,10.7897949 C2.72165598,10.0500767 3.10723541,8.97479997 3.63891602,7.56396484 Z" id="Rectangle-73" fill="#FFFFFF" fill-rule="nonzero"></path>
            <path d="M25.638916,7.56396484 L27.0536585,7.56396484 C27.6059432,7.56396484 28.0536585,8.01168009 28.0536585,8.56396484 C28.0536585,8.66856383 28.0372477,8.7725152 28.0050247,8.87202714 L26.5739773,13.2914258 C26.441314,13.7011201 26.0612665,13.9798726 25.6306426,13.9833313 L23.5552979,14 L23.5552979,14 C23.9337395,12.5995815 24.2426995,11.5295132 24.4821777,10.7897949 C24.721656,10.0500767 25.1072354,8.97479997 25.638916,7.56396484 Z" id="Rectangle-73" fill="#FFFFFF" fill-rule="nonzero" transform="translate(25.991943, 10.781982) scale(-1, 1) translate(-25.991943, -10.781982) "></path>
            <path d="M13.5897827,12.662384 L12.0259399,11.334198 L12.4231567,11.164093 L12.1624756,10.1161804 L13.1045532,10.3017883 L13.2545166,9.81704712 L13.9034373,10.568313 C13.9395389,10.6101084 14.0026869,10.6147241 14.0444823,10.5786225 C14.0708188,10.5558739 14.0834344,10.5210692 14.077791,10.4867288 L13.8092651,8.85275269 L13.8092651,8.85275269 L14.4457397,9.17178345 L15.0266113,8.034198 L15.6196899,9.17178345 L16.2060547,8.85275269 L15.8884856,10.5046812 C15.8780593,10.5589166 15.9135736,10.6113352 15.967809,10.6217615 C16.0010942,10.6281603 16.0353551,10.617263 16.0588277,10.5928112 L16.8035278,9.81704712 L16.8035278,9.81704712 L16.9441528,10.3017883 L17.9037476,10.1161804 L17.5960083,11.164093 L18.0259399,11.4304137 L16.4872437,12.662384 L16.6613159,13.2121277 L15.1037598,13.0080566 L15.1704712,14.1440735 L14.8480746,14.1440735 L14.9458313,13.0080566 L13.40271,13.2121277 L13.5897827,12.662384 Z" id="Path-515" fill="#D42F2E"></path>
        </g>
    </g>
</svg>